{
	"patcher" : 	{
		"fileversion" : 1,
		"appversion" : 		{
			"major" : 8,
			"minor" : 1,
			"revision" : 0,
			"architecture" : "x64",
			"modernui" : 1
		}
,
		"classnamespace" : "box",
		"rect" : [ 1291.0, -971.0, 489.0, 673.0 ],
		"bglocked" : 0,
		"openinpresentation" : 0,
		"default_fontsize" : 12.0,
		"default_fontface" : 0,
		"default_fontname" : "Arial",
		"gridonopen" : 1,
		"gridsize" : [ 15.0, 15.0 ],
		"gridsnaponopen" : 1,
		"objectsnaponopen" : 1,
		"statusbarvisible" : 2,
		"toolbarvisible" : 1,
		"lefttoolbarpinned" : 0,
		"toptoolbarpinned" : 0,
		"righttoolbarpinned" : 0,
		"bottomtoolbarpinned" : 0,
		"toolbars_unpinned_last_save" : 0,
		"tallnewobj" : 0,
		"boxanimatetime" : 200,
		"enablehscroll" : 1,
		"enablevscroll" : 1,
		"devicewidth" : 0.0,
		"description" : "",
		"digest" : "",
		"tags" : "",
		"style" : "",
		"subpatcher_template" : "",
		"boxes" : [ 			{
				"box" : 				{
					"id" : "obj-50",
					"maxclass" : "newobj",
					"numinlets" : 0,
					"numoutlets" : 1,
					"outlettype" : [ "" ],
					"patching_rect" : [ 677.0, 177.5, 46.0, 22.0 ],
					"text" : "r AI_qs"
				}

			}
, 			{
				"box" : 				{
					"id" : "obj-69",
					"maxclass" : "newobj",
					"numinlets" : 1,
					"numoutlets" : 1,
					"outlettype" : [ "" ],
					"patching_rect" : [ 677.0, 208.5, 75.0, 22.0 ],
					"text" : "prepend say"
				}

			}
, 			{
				"box" : 				{
					"id" : "obj-1",
					"maxclass" : "newobj",
					"numinlets" : 1,
					"numoutlets" : 2,
					"outlettype" : [ "", "bang" ],
					"patching_rect" : [ 677.0, 249.5, 62.0, 22.0 ],
					"saved_object_attributes" : 					{
						"shell" : "(default)"
					}
,
					"text" : "shell"
				}

			}
, 			{
				"box" : 				{
					"bgcolor" : [ 0.090196078431373, 0.533333333333333, 0.317647058823529, 1.0 ],
					"bgcolor2" : [ 0.090196078431373, 0.533333333333333, 0.317647058823529, 1.0 ],
					"bgfillcolor_angle" : 270.0,
					"bgfillcolor_autogradient" : 0.0,
					"bgfillcolor_color" : [ 0.133333333333333, 0.450980392156863, 0.847058823529412, 1.0 ],
					"bgfillcolor_color1" : [ 0.090196078431373, 0.533333333333333, 0.317647058823529, 1.0 ],
					"bgfillcolor_color2" : [ 0.627450980392157, 0.290196078431373, 0.290196078431373, 1.0 ],
					"bgfillcolor_proportion" : 0.5,
					"bgfillcolor_type" : "color",
					"gradient" : 1,
					"id" : "obj-14",
					"maxclass" : "message",
					"numinlets" : 2,
					"numoutlets" : 1,
					"outlettype" : [ "" ],
					"patching_rect" : [ 482.25, 1136.0, 35.0, 22.0 ],
					"text" : "reset"
				}

			}
, 			{
				"box" : 				{
					"id" : "obj-15",
					"maxclass" : "button",
					"numinlets" : 1,
					"numoutlets" : 1,
					"outlettype" : [ "bang" ],
					"parameter_enable" : 0,
					"patching_rect" : [ 442.25, 1136.0, 24.0, 24.0 ]
				}

			}
, 			{
				"box" : 				{
					"id" : "obj-20",
					"maxclass" : "newobj",
					"numinlets" : 2,
					"numoutlets" : 1,
					"outlettype" : [ "bang" ],
					"patching_rect" : [ 442.25, 1105.0, 55.0, 22.0 ],
					"text" : "del 3200"
				}

			}
, 			{
				"box" : 				{
					"bgcolor" : [ 0.847058823529412, 0.050980392156863, 0.050980392156863, 1.0 ],
					"id" : "obj-135",
					"linecount" : 6,
					"maxclass" : "comment",
					"numinlets" : 1,
					"numoutlets" : 0,
					"patching_rect" : [ 735.5, 15.0, 157.0, 87.0 ],
					"presentation" : 1,
					"presentation_linecount" : 6,
					"presentation_rect" : [ 250.0, 233.0, 157.0, 87.0 ],
					"text" : "TO DO create a gate like thing that the audio comands the lights only when the Qs are triggered, not when the jail messages are generated "
				}

			}
, 			{
				"box" : 				{
					"id" : "obj-54",
					"maxclass" : "button",
					"numinlets" : 1,
					"numoutlets" : 1,
					"outlettype" : [ "bang" ],
					"parameter_enable" : 0,
					"patching_rect" : [ 156.75, 394.0, 24.0, 24.0 ]
				}

			}
, 			{
				"box" : 				{
					"id" : "obj-55",
					"maxclass" : "newobj",
					"numinlets" : 2,
					"numoutlets" : 1,
					"outlettype" : [ "bang" ],
					"patching_rect" : [ 120.25, 341.5, 55.0, 22.0 ],
					"text" : "del 2000"
				}

			}
, 			{
				"box" : 				{
					"bgcolor" : [ 0.090196078431373, 0.533333333333333, 0.317647058823529, 1.0 ],
					"bgcolor2" : [ 0.090196078431373, 0.533333333333333, 0.317647058823529, 1.0 ],
					"bgfillcolor_angle" : 270.0,
					"bgfillcolor_autogradient" : 0.0,
					"bgfillcolor_color" : [ 0.133333333333333, 0.450980392156863, 0.847058823529412, 1.0 ],
					"bgfillcolor_color1" : [ 0.090196078431373, 0.533333333333333, 0.317647058823529, 1.0 ],
					"bgfillcolor_color2" : [ 0.627450980392157, 0.290196078431373, 0.290196078431373, 1.0 ],
					"bgfillcolor_proportion" : 0.5,
					"bgfillcolor_type" : "color",
					"gradient" : 1,
					"id" : "obj-48",
					"maxclass" : "message",
					"numinlets" : 2,
					"numoutlets" : 1,
					"outlettype" : [ "" ],
					"patching_rect" : [ 57.25, 378.0, 93.0, 22.0 ],
					"text" : "Trainingseinheit"
				}

			}
, 			{
				"box" : 				{
					"id" : "obj-132",
					"maxclass" : "button",
					"numinlets" : 1,
					"numoutlets" : 1,
					"outlettype" : [ "bang" ],
					"parameter_enable" : 0,
					"patching_rect" : [ 525.75, 990.0, 24.0, 24.0 ]
				}

			}
, 			{
				"box" : 				{
					"id" : "obj-133",
					"maxclass" : "newobj",
					"numinlets" : 2,
					"numoutlets" : 1,
					"outlettype" : [ "bang" ],
					"patching_rect" : [ 525.75, 963.0, 55.0, 22.0 ],
					"text" : "del 2500"
				}

			}
, 			{
				"box" : 				{
					"id" : "obj-131",
					"maxclass" : "message",
					"numinlets" : 2,
					"numoutlets" : 1,
					"outlettype" : [ "" ],
					"patching_rect" : [ 463.25, 1043.0, 111.0, 22.0 ],
					"text" : "verbessern würde?"
				}

			}
, 			{
				"box" : 				{
					"id" : "obj-128",
					"maxclass" : "button",
					"numinlets" : 1,
					"numoutlets" : 1,
					"outlettype" : [ "bang" ],
					"parameter_enable" : 0,
					"patching_rect" : [ 466.75, 972.5, 24.0, 24.0 ]
				}

			}
, 			{
				"box" : 				{
					"id" : "obj-129",
					"maxclass" : "newobj",
					"numinlets" : 2,
					"numoutlets" : 1,
					"outlettype" : [ "bang" ],
					"patching_rect" : [ 466.75, 930.5, 55.0, 22.0 ],
					"text" : "del 3000"
				}

			}
, 			{
				"box" : 				{
					"id" : "obj-127",
					"linecount" : 2,
					"maxclass" : "message",
					"numinlets" : 2,
					"numoutlets" : 1,
					"outlettype" : [ "" ],
					"patching_rect" : [ 358.25, 939.0, 79.0, 35.0 ],
					"text" : "wenn es ein System gäbe"
				}

			}
, 			{
				"box" : 				{
					"angle" : 270.0,
					"bgcolor" : [ 0.298039215686275, 0.458823529411765, 0.117647058823529, 1.0 ],
					"id" : "obj-109",
					"maxclass" : "panel",
					"mode" : 0,
					"numinlets" : 1,
					"numoutlets" : 0,
					"patching_rect" : [ 947.0, 972.0, 122.5, 38.5 ],
					"presentation" : 1,
					"presentation_rect" : [ 157.0, 101.5, 40.0, 13.0 ],
					"proportion" : 0.5
				}

			}
, 			{
				"box" : 				{
					"id" : "obj-95",
					"maxclass" : "newobj",
					"numinlets" : 1,
					"numoutlets" : 0,
					"patching_rect" : [ 33.25, 1143.0, 48.0, 22.0 ],
					"text" : "s AI_qs"
				}

			}
, 			{
				"box" : 				{
					"id" : "obj-102",
					"maxclass" : "live.button",
					"numinlets" : 1,
					"numoutlets" : 1,
					"outlettype" : [ "" ],
					"parameter_enable" : 1,
					"patching_rect" : [ 37.25, 1072.0, 15.0, 15.0 ],
					"presentation" : 1,
					"presentation_rect" : [ 16.5, 590.0, 15.0, 15.0 ],
					"saved_attribute_attributes" : 					{
						"valueof" : 						{
							"parameter_shortname" : "live.button[2]",
							"parameter_enum" : [ "off", "on" ],
							"parameter_type" : 2,
							"parameter_longname" : "live.button[9]",
							"parameter_mmax" : 1
						}

					}
,
					"varname" : "live.button[7]"
				}

			}
, 			{
				"box" : 				{
					"bgcolor" : [ 0.090196078431373, 0.533333333333333, 0.317647058823529, 1.0 ],
					"bgcolor2" : [ 0.090196078431373, 0.533333333333333, 0.317647058823529, 1.0 ],
					"bgfillcolor_angle" : 270.0,
					"bgfillcolor_autogradient" : 0.0,
					"bgfillcolor_color" : [ 0.133333333333333, 0.450980392156863, 0.847058823529412, 1.0 ],
					"bgfillcolor_color1" : [ 0.090196078431373, 0.533333333333333, 0.317647058823529, 1.0 ],
					"bgfillcolor_color2" : [ 0.627450980392157, 0.290196078431373, 0.290196078431373, 1.0 ],
					"bgfillcolor_proportion" : 0.5,
					"bgfillcolor_type" : "color",
					"gradient" : 1,
					"id" : "obj-104",
					"maxclass" : "message",
					"numinlets" : 2,
					"numoutlets" : 1,
					"outlettype" : [ "" ],
					"patching_rect" : [ 37.25, 1105.0, 35.0, 22.0 ],
					"text" : "reset"
				}

			}
, 			{
				"box" : 				{
					"id" : "obj-90",
					"maxclass" : "button",
					"numinlets" : 1,
					"numoutlets" : 1,
					"outlettype" : [ "bang" ],
					"parameter_enable" : 0,
					"patching_rect" : [ 319.75, 505.5, 24.0, 24.0 ]
				}

			}
, 			{
				"box" : 				{
					"id" : "obj-94",
					"maxclass" : "newobj",
					"numinlets" : 2,
					"numoutlets" : 1,
					"outlettype" : [ "bang" ],
					"patching_rect" : [ 319.75, 478.5, 55.0, 22.0 ],
					"text" : "del 2500"
				}

			}
, 			{
				"box" : 				{
					"id" : "obj-89",
					"linecount" : 2,
					"maxclass" : "message",
					"numinlets" : 2,
					"numoutlets" : 1,
					"outlettype" : [ "" ],
					"patching_rect" : [ 324.25, 532.0, 340.0, 35.0 ],
					"text" : "wenn mein Algorithmus dich besser kennen würde als du dich selbst? ?"
				}

			}
, 			{
				"box" : 				{
					"id" : "obj-61",
					"maxclass" : "button",
					"numinlets" : 1,
					"numoutlets" : 1,
					"outlettype" : [ "bang" ],
					"parameter_enable" : 0,
					"patching_rect" : [ 341.75, 67.5, 24.0, 24.0 ]
				}

			}
, 			{
				"box" : 				{
					"id" : "obj-63",
					"maxclass" : "newobj",
					"numinlets" : 2,
					"numoutlets" : 1,
					"outlettype" : [ "bang" ],
					"patching_rect" : [ 341.75, 40.5, 55.0, 22.0 ],
					"text" : "del 2000"
				}

			}
, 			{
				"box" : 				{
					"id" : "obj-59",
					"maxclass" : "message",
					"numinlets" : 2,
					"numoutlets" : 1,
					"outlettype" : [ "" ],
					"patching_rect" : [ 348.25, 110.0, 233.0, 22.0 ],
					"text" : "wenn das System immer weiß wo du bist?"
				}

			}
, 			{
				"box" : 				{
					"angle" : 270.0,
					"bgcolor" : [ 0.298039215686275, 0.458823529411765, 0.117647058823529, 1.0 ],
					"id" : "obj-53",
					"maxclass" : "panel",
					"mode" : 0,
					"numinlets" : 1,
					"numoutlets" : 0,
					"patching_rect" : [ 932.0, 957.0, 122.5, 38.5 ],
					"presentation" : 1,
					"presentation_rect" : [ 157.0, 289.5, 40.0, 13.0 ],
					"proportion" : 0.5
				}

			}
, 			{
				"box" : 				{
					"angle" : 270.0,
					"bgcolor" : [ 0.298039215686275, 0.458823529411765, 0.117647058823529, 1.0 ],
					"id" : "obj-52",
					"maxclass" : "panel",
					"mode" : 0,
					"numinlets" : 1,
					"numoutlets" : 0,
					"patching_rect" : [ 932.0, 959.5, 126.0, 47.0 ],
					"presentation" : 1,
					"presentation_rect" : [ 146.0, 514.0, 40.0, 13.0 ],
					"proportion" : 0.5
				}

			}
, 			{
				"box" : 				{
					"id" : "obj-124",
					"maxclass" : "button",
					"numinlets" : 1,
					"numoutlets" : 1,
					"outlettype" : [ "bang" ],
					"parameter_enable" : 0,
					"patching_rect" : [ 277.25, 990.0, 24.0, 24.0 ]
				}

			}
, 			{
				"box" : 				{
					"id" : "obj-125",
					"maxclass" : "newobj",
					"numinlets" : 2,
					"numoutlets" : 1,
					"outlettype" : [ "bang" ],
					"patching_rect" : [ 277.25, 963.0, 55.0, 22.0 ],
					"text" : "del 2500"
				}

			}
, 			{
				"box" : 				{
					"id" : "obj-123",
					"maxclass" : "message",
					"numinlets" : 2,
					"numoutlets" : 1,
					"outlettype" : [ "" ],
					"patching_rect" : [ 389.25, 1007.0, 74.0, 22.0 ],
					"text" : "das die Welt"
				}

			}
, 			{
				"box" : 				{
					"bgcolor" : [ 0.090196078431373, 0.533333333333333, 0.317647058823529, 1.0 ],
					"bgcolor2" : [ 0.090196078431373, 0.533333333333333, 0.317647058823529, 1.0 ],
					"bgfillcolor_angle" : 270.0,
					"bgfillcolor_autogradient" : 0.0,
					"bgfillcolor_color" : [ 0.133333333333333, 0.450980392156863, 0.847058823529412, 1.0 ],
					"bgfillcolor_color1" : [ 0.090196078431373, 0.533333333333333, 0.317647058823529, 1.0 ],
					"bgfillcolor_color2" : [ 0.627450980392157, 0.290196078431373, 0.290196078431373, 1.0 ],
					"bgfillcolor_proportion" : 0.5,
					"bgfillcolor_type" : "color",
					"gradient" : 1,
					"id" : "obj-121",
					"maxclass" : "message",
					"numinlets" : 2,
					"numoutlets" : 1,
					"outlettype" : [ "" ],
					"patching_rect" : [ 379.25, 1136.0, 35.0, 22.0 ],
					"text" : "reset"
				}

			}
, 			{
				"box" : 				{
					"id" : "obj-120",
					"maxclass" : "button",
					"numinlets" : 1,
					"numoutlets" : 1,
					"outlettype" : [ "bang" ],
					"parameter_enable" : 0,
					"patching_rect" : [ 339.25, 1136.0, 24.0, 24.0 ]
				}

			}
, 			{
				"box" : 				{
					"id" : "obj-119",
					"maxclass" : "newobj",
					"numinlets" : 2,
					"numoutlets" : 1,
					"outlettype" : [ "bang" ],
					"patching_rect" : [ 339.25, 1105.0, 55.0, 22.0 ],
					"text" : "del 3200"
				}

			}
, 			{
				"box" : 				{
					"id" : "obj-115",
					"maxclass" : "newobj",
					"numinlets" : 1,
					"numoutlets" : 0,
					"patching_rect" : [ 249.75, 1143.0, 48.0, 22.0 ],
					"text" : "s AI_qs"
				}

			}
, 			{
				"box" : 				{
					"id" : "obj-116",
					"maxclass" : "live.button",
					"numinlets" : 1,
					"numoutlets" : 1,
					"outlettype" : [ "" ],
					"parameter_enable" : 1,
					"patching_rect" : [ 253.75, 1072.0, 15.0, 15.0 ],
					"presentation" : 1,
					"presentation_rect" : [ 108.5, 590.0, 15.0, 15.0 ],
					"saved_attribute_attributes" : 					{
						"valueof" : 						{
							"parameter_shortname" : "live.button[2]",
							"parameter_enum" : [ "off", "on" ],
							"parameter_type" : 2,
							"parameter_longname" : "live.button[18]",
							"parameter_mmax" : 1
						}

					}
,
					"varname" : "live.button[16]"
				}

			}
, 			{
				"box" : 				{
					"bgcolor" : [ 0.996078431372549, 0.992156862745098, 0.992156862745098, 0.99 ],
					"id" : "obj-117",
					"maxclass" : "comment",
					"numinlets" : 1,
					"numoutlets" : 0,
					"patching_rect" : [ 37.25, 1041.0, 123.0, 20.0 ],
					"presentation" : 1,
					"presentation_rect" : [ 3.0, 553.0, 164.0, 20.0 ],
					"text" : "6.5 RESET"
				}

			}
, 			{
				"box" : 				{
					"bgcolor" : [ 0.090196078431373, 0.533333333333333, 0.317647058823529, 1.0 ],
					"bgcolor2" : [ 0.090196078431373, 0.533333333333333, 0.317647058823529, 1.0 ],
					"bgfillcolor_angle" : 270.0,
					"bgfillcolor_autogradient" : 0.0,
					"bgfillcolor_color" : [ 0.133333333333333, 0.450980392156863, 0.847058823529412, 1.0 ],
					"bgfillcolor_color1" : [ 0.090196078431373, 0.533333333333333, 0.317647058823529, 1.0 ],
					"bgfillcolor_color2" : [ 0.627450980392157, 0.290196078431373, 0.290196078431373, 1.0 ],
					"bgfillcolor_proportion" : 0.5,
					"bgfillcolor_type" : "color",
					"gradient" : 1,
					"id" : "obj-118",
					"maxclass" : "message",
					"numinlets" : 2,
					"numoutlets" : 1,
					"outlettype" : [ "" ],
					"patching_rect" : [ 253.75, 1105.0, 35.0, 22.0 ],
					"text" : "reset"
				}

			}
, 			{
				"box" : 				{
					"id" : "obj-112",
					"maxclass" : "newobj",
					"numinlets" : 1,
					"numoutlets" : 0,
					"patching_rect" : [ 284.25, 1048.0, 48.0, 22.0 ],
					"text" : "s AI_qs"
				}

			}
, 			{
				"box" : 				{
					"id" : "obj-111",
					"maxclass" : "live.button",
					"numinlets" : 1,
					"numoutlets" : 1,
					"outlettype" : [ "" ],
					"parameter_enable" : 1,
					"patching_rect" : [ 236.25, 914.0, 15.0, 15.0 ],
					"presentation" : 1,
					"presentation_rect" : [ 108.5, 513.0, 15.0, 15.0 ],
					"saved_attribute_attributes" : 					{
						"valueof" : 						{
							"parameter_shortname" : "live.button[2]",
							"parameter_enum" : [ "off", "on" ],
							"parameter_type" : 2,
							"parameter_longname" : "live.button[17]",
							"parameter_mmax" : 1
						}

					}
,
					"varname" : "live.button[15]"
				}

			}
, 			{
				"box" : 				{
					"id" : "obj-107",
					"maxclass" : "newobj",
					"numinlets" : 1,
					"numoutlets" : 0,
					"patching_rect" : [ 231.25, 838.0, 48.0, 22.0 ],
					"text" : "s AI_qs"
				}

			}
, 			{
				"box" : 				{
					"id" : "obj-106",
					"maxclass" : "live.button",
					"numinlets" : 1,
					"numoutlets" : 1,
					"outlettype" : [ "" ],
					"parameter_enable" : 1,
					"patching_rect" : [ 231.25, 778.0, 15.0, 15.0 ],
					"presentation" : 1,
					"presentation_rect" : [ 108.5, 431.0, 15.0, 15.0 ],
					"saved_attribute_attributes" : 					{
						"valueof" : 						{
							"parameter_shortname" : "live.button[2]",
							"parameter_enum" : [ "off", "on" ],
							"parameter_type" : 2,
							"parameter_longname" : "live.button[15]",
							"parameter_mmax" : 1
						}

					}
,
					"varname" : "live.button[13]"
				}

			}
, 			{
				"box" : 				{
					"id" : "obj-103",
					"maxclass" : "live.button",
					"numinlets" : 1,
					"numoutlets" : 1,
					"outlettype" : [ "" ],
					"parameter_enable" : 1,
					"patching_rect" : [ 234.25, 608.0, 15.0, 15.0 ],
					"presentation" : 1,
					"presentation_rect" : [ 108.5, 363.0, 15.0, 15.0 ],
					"saved_attribute_attributes" : 					{
						"valueof" : 						{
							"parameter_shortname" : "live.button[2]",
							"parameter_enum" : [ "off", "on" ],
							"parameter_type" : 2,
							"parameter_longname" : "live.button[13]",
							"parameter_mmax" : 1
						}

					}
,
					"varname" : "live.button[11]"
				}

			}
, 			{
				"box" : 				{
					"id" : "obj-100",
					"maxclass" : "button",
					"numinlets" : 1,
					"numoutlets" : 1,
					"outlettype" : [ "bang" ],
					"parameter_enable" : 0,
					"patching_rect" : [ 234.25, 691.0, 24.0, 24.0 ]
				}

			}
, 			{
				"box" : 				{
					"id" : "obj-101",
					"maxclass" : "newobj",
					"numinlets" : 2,
					"numoutlets" : 1,
					"outlettype" : [ "bang" ],
					"patching_rect" : [ 234.25, 664.0, 55.0, 22.0 ],
					"text" : "del 4000"
				}

			}
, 			{
				"box" : 				{
					"id" : "obj-98",
					"maxclass" : "newobj",
					"numinlets" : 1,
					"numoutlets" : 0,
					"patching_rect" : [ 389.25, 700.0, 48.0, 22.0 ],
					"text" : "s AI_qs"
				}

			}
, 			{
				"box" : 				{
					"id" : "obj-99",
					"maxclass" : "newobj",
					"numinlets" : 1,
					"numoutlets" : 0,
					"patching_rect" : [ 33.25, 834.0, 48.0, 22.0 ],
					"text" : "s AI_qs"
				}

			}
, 			{
				"box" : 				{
					"id" : "obj-96",
					"maxclass" : "live.button",
					"numinlets" : 1,
					"numoutlets" : 1,
					"outlettype" : [ "" ],
					"parameter_enable" : 1,
					"patching_rect" : [ 33.25, 782.0, 15.0, 15.0 ],
					"presentation" : 1,
					"presentation_rect" : [ 16.5, 431.0, 15.0, 15.0 ],
					"saved_attribute_attributes" : 					{
						"valueof" : 						{
							"parameter_shortname" : "live.button[2]",
							"parameter_enum" : [ "off", "on" ],
							"parameter_type" : 2,
							"parameter_longname" : "live.button[12]",
							"parameter_mmax" : 1
						}

					}
,
					"varname" : "live.button[10]"
				}

			}
, 			{
				"box" : 				{
					"bgcolor" : [ 0.996078431372549, 0.992156862745098, 0.992156862745098, 0.99 ],
					"id" : "obj-97",
					"maxclass" : "comment",
					"numinlets" : 1,
					"numoutlets" : 0,
					"patching_rect" : [ 33.25, 753.0, 187.0, 20.0 ],
					"presentation" : 1,
					"presentation_rect" : [ 3.0, 396.0, 164.0, 20.0 ],
					"text" : "6.1 TRAININGSEINHEIT 04"
				}

			}
, 			{
				"box" : 				{
					"id" : "obj-93",
					"maxclass" : "newobj",
					"numinlets" : 1,
					"numoutlets" : 0,
					"patching_rect" : [ 37.25, 985.0, 48.0, 22.0 ],
					"text" : "s AI_qs"
				}

			}
, 			{
				"box" : 				{
					"id" : "obj-91",
					"maxclass" : "live.button",
					"numinlets" : 1,
					"numoutlets" : 1,
					"outlettype" : [ "" ],
					"parameter_enable" : 1,
					"patching_rect" : [ 37.25, 920.0, 15.0, 15.0 ],
					"presentation" : 1,
					"presentation_rect" : [ 16.5, 513.0, 15.0, 15.0 ],
					"saved_attribute_attributes" : 					{
						"valueof" : 						{
							"parameter_shortname" : "live.button[2]",
							"parameter_enum" : [ "off", "on" ],
							"parameter_type" : 2,
							"parameter_longname" : "live.button[10]",
							"parameter_mmax" : 1
						}

					}
,
					"varname" : "live.button[8]"
				}

			}
, 			{
				"box" : 				{
					"bgcolor" : [ 0.996078431372549, 0.992156862745098, 0.992156862745098, 0.99 ],
					"id" : "obj-92",
					"maxclass" : "comment",
					"numinlets" : 1,
					"numoutlets" : 0,
					"patching_rect" : [ 37.25, 891.0, 138.0, 20.0 ],
					"presentation" : 1,
					"presentation_rect" : [ 3.0, 475.0, 164.0, 20.0 ],
					"text" : "6.3 SIMULATION 03"
				}

			}
, 			{
				"box" : 				{
					"id" : "obj-88",
					"maxclass" : "newobj",
					"numinlets" : 1,
					"numoutlets" : 0,
					"patching_rect" : [ 33.25, 668.0, 48.0, 22.0 ],
					"text" : "s AI_qs"
				}

			}
, 			{
				"box" : 				{
					"id" : "obj-86",
					"maxclass" : "live.button",
					"numinlets" : 1,
					"numoutlets" : 1,
					"outlettype" : [ "" ],
					"parameter_enable" : 1,
					"patching_rect" : [ 33.75, 608.0, 15.0, 15.0 ],
					"presentation" : 1,
					"presentation_rect" : [ 16.5, 363.0, 15.0, 15.0 ],
					"saved_attribute_attributes" : 					{
						"valueof" : 						{
							"parameter_shortname" : "live.button[2]",
							"parameter_enum" : [ "off", "on" ],
							"parameter_type" : 2,
							"parameter_longname" : "live.button[8]",
							"parameter_mmax" : 1
						}

					}
,
					"varname" : "live.button[6]"
				}

			}
, 			{
				"box" : 				{
					"bgcolor" : [ 0.996078431372549, 0.992156862745098, 0.992156862745098, 0.99 ],
					"id" : "obj-87",
					"maxclass" : "comment",
					"numinlets" : 1,
					"numoutlets" : 0,
					"patching_rect" : [ 33.75, 579.0, 178.0, 20.0 ],
					"presentation" : 1,
					"presentation_rect" : [ 3.0, 320.0, 164.0, 20.0 ],
					"text" : "5.1 TRAININGSEINHEIT 03"
				}

			}
, 			{
				"box" : 				{
					"id" : "obj-85",
					"maxclass" : "newobj",
					"numinlets" : 1,
					"numoutlets" : 0,
					"patching_rect" : [ 241.25, 536.0, 48.0, 22.0 ],
					"text" : "s AI_qs"
				}

			}
, 			{
				"box" : 				{
					"id" : "obj-84",
					"maxclass" : "newobj",
					"numinlets" : 1,
					"numoutlets" : 0,
					"patching_rect" : [ 30.25, 529.0, 48.0, 22.0 ],
					"text" : "s AI_qs"
				}

			}
, 			{
				"box" : 				{
					"id" : "obj-83",
					"maxclass" : "live.button",
					"numinlets" : 1,
					"numoutlets" : 1,
					"outlettype" : [ "" ],
					"parameter_enable" : 1,
					"patching_rect" : [ 245.25, 463.0, 15.0, 15.0 ],
					"presentation" : 1,
					"presentation_rect" : [ 108.5, 284.0, 15.0, 15.0 ],
					"saved_attribute_attributes" : 					{
						"valueof" : 						{
							"parameter_shortname" : "live.button[2]",
							"parameter_enum" : [ "off", "on" ],
							"parameter_type" : 2,
							"parameter_longname" : "live.button[7]",
							"parameter_mmax" : 1
						}

					}
,
					"varname" : "live.button[5]"
				}

			}
, 			{
				"box" : 				{
					"id" : "obj-81",
					"maxclass" : "live.button",
					"numinlets" : 1,
					"numoutlets" : 1,
					"outlettype" : [ "" ],
					"parameter_enable" : 1,
					"patching_rect" : [ 30.25, 472.0, 15.0, 15.0 ],
					"presentation" : 1,
					"presentation_rect" : [ 16.5, 284.0, 15.0, 15.0 ],
					"saved_attribute_attributes" : 					{
						"valueof" : 						{
							"parameter_shortname" : "live.button[2]",
							"parameter_enum" : [ "off", "on" ],
							"parameter_type" : 2,
							"parameter_longname" : "live.button[6]",
							"parameter_mmax" : 1
						}

					}
,
					"varname" : "live.button[4]"
				}

			}
, 			{
				"box" : 				{
					"bgcolor" : [ 0.996078431372549, 0.992156862745098, 0.992156862745098, 0.99 ],
					"id" : "obj-82",
					"maxclass" : "comment",
					"numinlets" : 1,
					"numoutlets" : 0,
					"patching_rect" : [ 30.25, 443.0, 145.0, 20.0 ],
					"presentation" : 1,
					"presentation_rect" : [ 3.0, 255.0, 164.0, 20.0 ],
					"text" : "4.3 SIMULATION 02"
				}

			}
, 			{
				"box" : 				{
					"id" : "obj-79",
					"maxclass" : "button",
					"numinlets" : 1,
					"numoutlets" : 1,
					"outlettype" : [ "bang" ],
					"parameter_enable" : 0,
					"patching_rect" : [ 260.75, 277.0, 24.0, 24.0 ]
				}

			}
, 			{
				"box" : 				{
					"id" : "obj-80",
					"maxclass" : "newobj",
					"numinlets" : 2,
					"numoutlets" : 1,
					"outlettype" : [ "bang" ],
					"patching_rect" : [ 260.75, 250.0, 55.0, 22.0 ],
					"text" : "del 6000"
				}

			}
, 			{
				"box" : 				{
					"id" : "obj-78",
					"maxclass" : "newobj",
					"numinlets" : 1,
					"numoutlets" : 0,
					"patching_rect" : [ 348.75, 285.0, 48.0, 22.0 ],
					"text" : "s AI_qs"
				}

			}
, 			{
				"box" : 				{
					"id" : "obj-77",
					"maxclass" : "live.button",
					"numinlets" : 1,
					"numoutlets" : 1,
					"outlettype" : [ "" ],
					"parameter_enable" : 1,
					"patching_rect" : [ 260.75, 190.0, 15.0, 15.0 ],
					"presentation" : 1,
					"presentation_rect" : [ 108.5, 147.0, 15.0, 15.0 ],
					"saved_attribute_attributes" : 					{
						"valueof" : 						{
							"parameter_shortname" : "live.button[2]",
							"parameter_enum" : [ "off", "on" ],
							"parameter_type" : 2,
							"parameter_longname" : "live.button[5]",
							"parameter_mmax" : 1
						}

					}
,
					"varname" : "live.button[3]"
				}

			}
, 			{
				"box" : 				{
					"id" : "obj-76",
					"maxclass" : "newobj",
					"numinlets" : 1,
					"numoutlets" : 0,
					"patching_rect" : [ 21.75, 249.0, 48.0, 22.0 ],
					"text" : "s AI_qs"
				}

			}
, 			{
				"box" : 				{
					"id" : "obj-75",
					"maxclass" : "live.button",
					"numinlets" : 1,
					"numoutlets" : 1,
					"outlettype" : [ "" ],
					"parameter_enable" : 1,
					"patching_rect" : [ 21.75, 190.0, 15.0, 15.0 ],
					"presentation" : 1,
					"presentation_rect" : [ 16.5, 147.0, 15.0, 15.0 ],
					"saved_attribute_attributes" : 					{
						"valueof" : 						{
							"parameter_shortname" : "live.button[2]",
							"parameter_enum" : [ "off", "on" ],
							"parameter_type" : 2,
							"parameter_longname" : "live.button[4]",
							"parameter_mmax" : 1
						}

					}
,
					"varname" : "live.button[2]"
				}

			}
, 			{
				"box" : 				{
					"bgcolor" : [ 0.996078431372549, 0.992156862745098, 0.992156862745098, 0.99 ],
					"id" : "obj-74",
					"maxclass" : "comment",
					"numinlets" : 1,
					"numoutlets" : 0,
					"patching_rect" : [ 21.75, 161.0, 176.0, 20.0 ],
					"presentation" : 1,
					"presentation_rect" : [ 3.0, 118.0, 164.0, 20.0 ],
					"text" : "3.1  TRAININGSEINHEIT 01"
				}

			}
, 			{
				"box" : 				{
					"id" : "obj-70",
					"maxclass" : "live.button",
					"numinlets" : 1,
					"numoutlets" : 1,
					"outlettype" : [ "" ],
					"parameter_enable" : 1,
					"patching_rect" : [ 264.75, 44.0, 15.0, 15.0 ],
					"presentation" : 1,
					"presentation_rect" : [ 108.5, 82.0, 15.0, 15.0 ],
					"saved_attribute_attributes" : 					{
						"valueof" : 						{
							"parameter_shortname" : "live.button[2]",
							"parameter_enum" : [ "off", "on" ],
							"parameter_type" : 2,
							"parameter_longname" : "live.button[3]",
							"parameter_mmax" : 1
						}

					}
,
					"varname" : "live.button[1]"
				}

			}
, 			{
				"box" : 				{
					"id" : "obj-68",
					"maxclass" : "newobj",
					"numinlets" : 1,
					"numoutlets" : 0,
					"patching_rect" : [ 260.75, 99.0, 48.0, 22.0 ],
					"text" : "s AI_qs"
				}

			}
, 			{
				"box" : 				{
					"bgcolor" : [ 0.996078431372549, 0.992156862745098, 0.992156862745098, 0.99 ],
					"id" : "obj-67",
					"maxclass" : "comment",
					"numinlets" : 1,
					"numoutlets" : 0,
					"patching_rect" : [ 16.25, 15.0, 177.0, 20.0 ],
					"presentation" : 1,
					"presentation_rect" : [ 3.0, 53.0, 164.0, 20.0 ],
					"text" : "2.1  SIMULATION 01"
				}

			}
, 			{
				"box" : 				{
					"id" : "obj-66",
					"maxclass" : "live.button",
					"numinlets" : 1,
					"numoutlets" : 1,
					"outlettype" : [ "" ],
					"parameter_enable" : 1,
					"patching_rect" : [ 305.25, 329.0, 15.0, 15.0 ],
					"presentation" : 1,
					"presentation_rect" : [ 108.5, 214.0, 15.0, 15.0 ],
					"saved_attribute_attributes" : 					{
						"valueof" : 						{
							"parameter_shortname" : "live.button[2]",
							"parameter_enum" : [ "off", "on" ],
							"parameter_type" : 2,
							"parameter_longname" : "live.button[2]",
							"parameter_mmax" : 1
						}

					}
,
					"varname" : "live.button"
				}

			}
, 			{
				"box" : 				{
					"id" : "obj-64",
					"maxclass" : "live.button",
					"numinlets" : 1,
					"numoutlets" : 1,
					"outlettype" : [ "" ],
					"parameter_enable" : 1,
					"patching_rect" : [ 25.75, 44.0, 15.0, 15.0 ],
					"presentation" : 1,
					"presentation_rect" : [ 16.5, 82.0, 15.0, 15.0 ],
					"saved_attribute_attributes" : 					{
						"valueof" : 						{
							"parameter_shortname" : "2-3",
							"parameter_enum" : [ "off", "on" ],
							"parameter_type" : 2,
							"parameter_longname" : "live.button[1]",
							"parameter_initial_enable" : 1,
							"parameter_mmax" : 1,
							"parameter_initial" : [ 0.0 ]
						}

					}
,
					"varname" : "2-3"
				}

			}
, 			{
				"box" : 				{
					"id" : "obj-65",
					"maxclass" : "newobj",
					"numinlets" : 1,
					"numoutlets" : 0,
					"patching_rect" : [ 25.25, 103.0, 48.0, 22.0 ],
					"text" : "s AI_qs"
				}

			}
, 			{
				"box" : 				{
					"fontface" : 1,
					"id" : "obj-62",
					"maxclass" : "comment",
					"numinlets" : 1,
					"numoutlets" : 0,
					"patching_rect" : [ 673.5, 930.0, 152.0, 20.0 ],
					"presentation" : 1,
					"presentation_rect" : [ 3.0, 7.0, 152.0, 20.0 ],
					"text" : "IA TRIGGERS"
				}

			}
, 			{
				"box" : 				{
					"bgcolor" : [ 0.996078431372549, 0.992156862745098, 0.992156862745098, 0.99 ],
					"id" : "obj-58",
					"maxclass" : "comment",
					"numinlets" : 1,
					"numoutlets" : 0,
					"patching_rect" : [ 24.75, 303.0, 187.0, 20.0 ],
					"presentation" : 1,
					"presentation_rect" : [ 3.0, 182.0, 164.0, 20.0 ],
					"text" : "4.1  TRAININGSEINHEIT 02"
				}

			}
, 			{
				"box" : 				{
					"id" : "obj-56",
					"maxclass" : "live.button",
					"numinlets" : 1,
					"numoutlets" : 1,
					"outlettype" : [ "" ],
					"parameter_enable" : 1,
					"patching_rect" : [ 30.75, 329.0, 15.0, 15.0 ],
					"presentation" : 1,
					"presentation_rect" : [ 16.5, 214.0, 15.0, 15.0 ],
					"saved_attribute_attributes" : 					{
						"valueof" : 						{
							"parameter_shortname" : "2-1",
							"parameter_enum" : [ "off", "on" ],
							"parameter_type" : 2,
							"parameter_longname" : "live.button",
							"parameter_initial_enable" : 1,
							"parameter_mmax" : 1,
							"parameter_initial" : [ 0.0 ]
						}

					}
,
					"varname" : "2-1"
				}

			}
, 			{
				"box" : 				{
					"id" : "obj-51",
					"maxclass" : "newobj",
					"numinlets" : 1,
					"numoutlets" : 0,
					"patching_rect" : [ 384.25, 429.0, 48.0, 22.0 ],
					"text" : "s AI_qs"
				}

			}
, 			{
				"box" : 				{
					"id" : "obj-49",
					"maxclass" : "newobj",
					"numinlets" : 1,
					"numoutlets" : 0,
					"patching_rect" : [ 30.25, 413.0, 48.0, 22.0 ],
					"text" : "s AI_qs"
				}

			}
, 			{
				"box" : 				{
					"id" : "obj-47",
					"maxclass" : "button",
					"numinlets" : 1,
					"numoutlets" : 1,
					"outlettype" : [ "bang" ],
					"parameter_enable" : 0,
					"patching_rect" : [ 305.25, 421.0, 24.0, 24.0 ]
				}

			}
, 			{
				"box" : 				{
					"id" : "obj-45",
					"maxclass" : "newobj",
					"numinlets" : 2,
					"numoutlets" : 1,
					"outlettype" : [ "bang" ],
					"patching_rect" : [ 305.25, 394.0, 55.0, 22.0 ],
					"text" : "del 6000"
				}

			}
, 			{
				"box" : 				{
					"id" : "obj-37",
					"maxclass" : "message",
					"numinlets" : 2,
					"numoutlets" : 1,
					"outlettype" : [ "" ],
					"patching_rect" : [ 400.75, 635.0, 129.0, 22.0 ],
					"text" : "wie lautet die Mission?"
				}

			}
, 			{
				"box" : 				{
					"id" : "obj-34",
					"maxclass" : "message",
					"numinlets" : 2,
					"numoutlets" : 1,
					"outlettype" : [ "" ],
					"patching_rect" : [ 452.25, 215.0, 129.0, 22.0 ],
					"text" : "wie lautet die Mission?"
				}

			}
, 			{
				"box" : 				{
					"id" : "obj-29",
					"maxclass" : "message",
					"numinlets" : 2,
					"numoutlets" : 1,
					"outlettype" : [ "" ],
					"patching_rect" : [ 472.25, 366.0, 129.0, 22.0 ],
					"text" : "wie lautet die Mission?"
				}

			}
, 			{
				"box" : 				{
					"id" : "obj-22",
					"maxclass" : "message",
					"numinlets" : 2,
					"numoutlets" : 1,
					"outlettype" : [ "" ],
					"patching_rect" : [ 231.25, 800.0, 129.0, 22.0 ],
					"text" : "wie lautet die Mission?"
				}

			}
, 			{
				"box" : 				{
					"id" : "obj-24",
					"maxclass" : "message",
					"numinlets" : 2,
					"numoutlets" : 1,
					"outlettype" : [ "" ],
					"patching_rect" : [ 231.25, 939.0, 65.0, 22.0 ],
					"text" : "Was wäre,"
				}

			}
, 			{
				"box" : 				{
					"id" : "obj-18",
					"maxclass" : "message",
					"numinlets" : 2,
					"numoutlets" : 1,
					"outlettype" : [ "" ],
					"patching_rect" : [ 234.25, 635.0, 129.0, 22.0 ],
					"text" : "Agentin tu dot one one"
				}

			}
, 			{
				"box" : 				{
					"bgcolor" : [ 0.090196078431373, 0.533333333333333, 0.317647058823529, 1.0 ],
					"bgcolor2" : [ 0.090196078431373, 0.533333333333333, 0.317647058823529, 1.0 ],
					"bgfillcolor_angle" : 270.0,
					"bgfillcolor_autogradient" : 0.0,
					"bgfillcolor_color" : [ 0.133333333333333, 0.450980392156863, 0.847058823529412, 1.0 ],
					"bgfillcolor_color1" : [ 0.090196078431373, 0.533333333333333, 0.317647058823529, 1.0 ],
					"bgfillcolor_color2" : [ 0.627450980392157, 0.290196078431373, 0.290196078431373, 1.0 ],
					"bgfillcolor_proportion" : 0.5,
					"bgfillcolor_type" : "color",
					"gradient" : 1,
					"id" : "obj-19",
					"maxclass" : "message",
					"numinlets" : 2,
					"numoutlets" : 1,
					"outlettype" : [ "" ],
					"patching_rect" : [ 33.25, 805.0, 127.0, 22.0 ],
					"text" : "Vierte Trainingseinheit"
				}

			}
, 			{
				"box" : 				{
					"bgcolor" : [ 0.090196078431373, 0.533333333333333, 0.317647058823529, 1.0 ],
					"bgcolor2" : [ 0.090196078431373, 0.533333333333333, 0.317647058823529, 1.0 ],
					"bgfillcolor_angle" : 270.0,
					"bgfillcolor_autogradient" : 0.0,
					"bgfillcolor_color" : [ 0.133333333333333, 0.450980392156863, 0.847058823529412, 1.0 ],
					"bgfillcolor_color1" : [ 0.090196078431373, 0.533333333333333, 0.317647058823529, 1.0 ],
					"bgfillcolor_color2" : [ 0.627450980392157, 0.290196078431373, 0.290196078431373, 1.0 ],
					"bgfillcolor_proportion" : 0.5,
					"bgfillcolor_type" : "color",
					"gradient" : 1,
					"id" : "obj-16",
					"maxclass" : "message",
					"numinlets" : 2,
					"numoutlets" : 1,
					"outlettype" : [ "" ],
					"patching_rect" : [ 33.25, 635.0, 125.0, 22.0 ],
					"text" : "Dritte Trainingseinheit"
				}

			}
, 			{
				"box" : 				{
					"bgcolor" : [ 0.090196078431373, 0.533333333333333, 0.317647058823529, 1.0 ],
					"bgcolor2" : [ 0.090196078431373, 0.533333333333333, 0.317647058823529, 1.0 ],
					"bgfillcolor_angle" : 270.0,
					"bgfillcolor_autogradient" : 0.0,
					"bgfillcolor_color" : [ 0.133333333333333, 0.450980392156863, 0.847058823529412, 1.0 ],
					"bgfillcolor_color1" : [ 0.090196078431373, 0.533333333333333, 0.317647058823529, 1.0 ],
					"bgfillcolor_color2" : [ 0.627450980392157, 0.290196078431373, 0.290196078431373, 1.0 ],
					"bgfillcolor_proportion" : 0.5,
					"bgfillcolor_type" : "color",
					"gradient" : 1,
					"id" : "obj-13",
					"maxclass" : "message",
					"numinlets" : 2,
					"numoutlets" : 1,
					"outlettype" : [ "" ],
					"patching_rect" : [ 37.25, 953.0, 97.0, 22.0 ],
					"text" : "Dritte Simulation"
				}

			}
, 			{
				"box" : 				{
					"id" : "obj-12",
					"maxclass" : "message",
					"numinlets" : 2,
					"numoutlets" : 1,
					"outlettype" : [ "" ],
					"patching_rect" : [ 241.25, 485.5, 65.0, 22.0 ],
					"text" : "Was wäre,"
				}

			}
, 			{
				"box" : 				{
					"bgcolor" : [ 0.090196078431373, 0.533333333333333, 0.317647058823529, 1.0 ],
					"bgcolor2" : [ 0.090196078431373, 0.533333333333333, 0.317647058823529, 1.0 ],
					"bgfillcolor_angle" : 270.0,
					"bgfillcolor_autogradient" : 0.0,
					"bgfillcolor_color" : [ 0.133333333333333, 0.450980392156863, 0.847058823529412, 1.0 ],
					"bgfillcolor_color1" : [ 0.090196078431373, 0.533333333333333, 0.317647058823529, 1.0 ],
					"bgfillcolor_color2" : [ 0.627450980392157, 0.290196078431373, 0.290196078431373, 1.0 ],
					"bgfillcolor_proportion" : 0.5,
					"bgfillcolor_type" : "color",
					"gradient" : 1,
					"id" : "obj-11",
					"maxclass" : "message",
					"numinlets" : 2,
					"numoutlets" : 1,
					"outlettype" : [ "" ],
					"patching_rect" : [ 30.25, 492.0, 103.0, 22.0 ],
					"text" : "Zweite Simulation"
				}

			}
, 			{
				"box" : 				{
					"id" : "obj-9",
					"maxclass" : "message",
					"numinlets" : 2,
					"numoutlets" : 1,
					"outlettype" : [ "" ],
					"patching_rect" : [ 260.75, 215.0, 158.0, 22.0 ],
					"text" : "Agentin 4 8 2 0 0 eight eight"
				}

			}
, 			{
				"box" : 				{
					"bgcolor" : [ 0.090196078431373, 0.533333333333333, 0.317647058823529, 1.0 ],
					"bgcolor2" : [ 0.090196078431373, 0.533333333333333, 0.317647058823529, 1.0 ],
					"bgfillcolor_angle" : 270.0,
					"bgfillcolor_autogradient" : 0.0,
					"bgfillcolor_color" : [ 0.133333333333333, 0.450980392156863, 0.847058823529412, 1.0 ],
					"bgfillcolor_color1" : [ 0.090196078431373, 0.533333333333333, 0.317647058823529, 1.0 ],
					"bgfillcolor_color2" : [ 0.627450980392157, 0.290196078431373, 0.290196078431373, 1.0 ],
					"bgfillcolor_proportion" : 0.5,
					"bgfillcolor_type" : "color",
					"gradient" : 1,
					"id" : "obj-10",
					"maxclass" : "message",
					"numinlets" : 2,
					"numoutlets" : 1,
					"outlettype" : [ "" ],
					"patching_rect" : [ 21.75, 215.0, 124.0, 22.0 ],
					"text" : "Erste Trainingseinheit"
				}

			}
, 			{
				"box" : 				{
					"id" : "obj-7",
					"maxclass" : "message",
					"numinlets" : 2,
					"numoutlets" : 1,
					"outlettype" : [ "" ],
					"patching_rect" : [ 260.75, 68.0, 61.0, 22.0 ],
					"text" : "Was wäre"
				}

			}
, 			{
				"box" : 				{
					"bgcolor" : [ 0.090196078431373, 0.533333333333333, 0.317647058823529, 1.0 ],
					"bgcolor2" : [ 0.090196078431373, 0.533333333333333, 0.317647058823529, 1.0 ],
					"bgfillcolor_angle" : 270.0,
					"bgfillcolor_autogradient" : 0.0,
					"bgfillcolor_color" : [ 0.133333333333333, 0.450980392156863, 0.847058823529412, 1.0 ],
					"bgfillcolor_color1" : [ 0.090196078431373, 0.533333333333333, 0.317647058823529, 1.0 ],
					"bgfillcolor_color2" : [ 0.627450980392157, 0.290196078431373, 0.290196078431373, 1.0 ],
					"bgfillcolor_proportion" : 0.5,
					"bgfillcolor_type" : "color",
					"gradient" : 1,
					"id" : "obj-8",
					"maxclass" : "message",
					"numinlets" : 2,
					"numoutlets" : 1,
					"outlettype" : [ "" ],
					"patching_rect" : [ 25.25, 68.0, 96.0, 22.0 ],
					"text" : "Erste Simulation"
				}

			}
, 			{
				"box" : 				{
					"id" : "obj-6",
					"maxclass" : "message",
					"numinlets" : 2,
					"numoutlets" : 1,
					"outlettype" : [ "" ],
					"patching_rect" : [ 305.25, 366.0, 162.0, 22.0 ],
					"text" : "Agentin 0 1 2 7 7 9 punkt 2 1"
				}

			}
, 			{
				"box" : 				{
					"bgcolor" : [ 0.090196078431373, 0.533333333333333, 0.317647058823529, 1.0 ],
					"bgcolor2" : [ 0.090196078431373, 0.533333333333333, 0.317647058823529, 1.0 ],
					"bgfillcolor_angle" : 270.0,
					"bgfillcolor_autogradient" : 0.0,
					"bgfillcolor_color" : [ 0.133333333333333, 0.450980392156863, 0.847058823529412, 1.0 ],
					"bgfillcolor_color1" : [ 0.090196078431373, 0.533333333333333, 0.317647058823529, 1.0 ],
					"bgfillcolor_color2" : [ 0.627450980392157, 0.290196078431373, 0.290196078431373, 1.0 ],
					"bgfillcolor_proportion" : 0.5,
					"bgfillcolor_type" : "color",
					"gradient" : 1,
					"id" : "obj-4",
					"maxclass" : "message",
					"numinlets" : 2,
					"numoutlets" : 1,
					"outlettype" : [ "" ],
					"patching_rect" : [ 30.25, 350.0, 44.0, 22.0 ],
					"text" : "Zweite"
				}

			}
, 			{
				"box" : 				{
					"angle" : 270.0,
					"background" : 1,
					"bgcolor" : [ 0.752941176470588, 0.756862745098039, 0.745098039215686, 0.9 ],
					"id" : "obj-60",
					"maxclass" : "panel",
					"mode" : 0,
					"numinlets" : 1,
					"numoutlets" : 0,
					"patching_rect" : [ 932.0, 897.5, 122.5, 52.5 ],
					"presentation" : 1,
					"presentation_rect" : [ 3.0, 44.0, 164.0, 575.0 ],
					"proportion" : 0.5
				}

			}
 ],
		"lines" : [ 			{
				"patchline" : 				{
					"destination" : [ "obj-76", 0 ],
					"source" : [ "obj-10", 0 ]
				}

			}
, 			{
				"patchline" : 				{
					"destination" : [ "obj-37", 0 ],
					"source" : [ "obj-100", 0 ]
				}

			}
, 			{
				"patchline" : 				{
					"destination" : [ "obj-100", 0 ],
					"source" : [ "obj-101", 0 ]
				}

			}
, 			{
				"patchline" : 				{
					"destination" : [ "obj-104", 0 ],
					"source" : [ "obj-102", 0 ]
				}

			}
, 			{
				"patchline" : 				{
					"destination" : [ "obj-18", 0 ],
					"source" : [ "obj-103", 0 ]
				}

			}
, 			{
				"patchline" : 				{
					"destination" : [ "obj-95", 0 ],
					"source" : [ "obj-104", 0 ]
				}

			}
, 			{
				"patchline" : 				{
					"destination" : [ "obj-22", 0 ],
					"source" : [ "obj-106", 0 ]
				}

			}
, 			{
				"patchline" : 				{
					"destination" : [ "obj-84", 0 ],
					"source" : [ "obj-11", 0 ]
				}

			}
, 			{
				"patchline" : 				{
					"destination" : [ "obj-24", 0 ],
					"source" : [ "obj-111", 0 ]
				}

			}
, 			{
				"patchline" : 				{
					"destination" : [ "obj-118", 0 ],
					"source" : [ "obj-116", 0 ]
				}

			}
, 			{
				"patchline" : 				{
					"destination" : [ "obj-115", 0 ],
					"order" : 1,
					"source" : [ "obj-118", 0 ]
				}

			}
, 			{
				"patchline" : 				{
					"destination" : [ "obj-119", 0 ],
					"order" : 0,
					"source" : [ "obj-118", 0 ]
				}

			}
, 			{
				"patchline" : 				{
					"destination" : [ "obj-120", 0 ],
					"source" : [ "obj-119", 0 ]
				}

			}
, 			{
				"patchline" : 				{
					"destination" : [ "obj-85", 0 ],
					"order" : 1,
					"source" : [ "obj-12", 0 ]
				}

			}
, 			{
				"patchline" : 				{
					"destination" : [ "obj-94", 0 ],
					"order" : 0,
					"source" : [ "obj-12", 0 ]
				}

			}
, 			{
				"patchline" : 				{
					"destination" : [ "obj-121", 0 ],
					"order" : 1,
					"source" : [ "obj-120", 0 ]
				}

			}
, 			{
				"patchline" : 				{
					"destination" : [ "obj-20", 0 ],
					"order" : 0,
					"source" : [ "obj-120", 0 ]
				}

			}
, 			{
				"patchline" : 				{
					"destination" : [ "obj-115", 0 ],
					"source" : [ "obj-121", 0 ]
				}

			}
, 			{
				"patchline" : 				{
					"destination" : [ "obj-112", 0 ],
					"order" : 1,
					"source" : [ "obj-123", 0 ]
				}

			}
, 			{
				"patchline" : 				{
					"destination" : [ "obj-133", 0 ],
					"order" : 0,
					"source" : [ "obj-123", 0 ]
				}

			}
, 			{
				"patchline" : 				{
					"destination" : [ "obj-127", 0 ],
					"source" : [ "obj-124", 0 ]
				}

			}
, 			{
				"patchline" : 				{
					"destination" : [ "obj-124", 0 ],
					"source" : [ "obj-125", 0 ]
				}

			}
, 			{
				"patchline" : 				{
					"destination" : [ "obj-112", 0 ],
					"order" : 1,
					"source" : [ "obj-127", 0 ]
				}

			}
, 			{
				"patchline" : 				{
					"destination" : [ "obj-129", 0 ],
					"order" : 0,
					"source" : [ "obj-127", 0 ]
				}

			}
, 			{
				"patchline" : 				{
					"destination" : [ "obj-123", 0 ],
					"source" : [ "obj-128", 0 ]
				}

			}
, 			{
				"patchline" : 				{
					"destination" : [ "obj-128", 0 ],
					"source" : [ "obj-129", 0 ]
				}

			}
, 			{
				"patchline" : 				{
					"destination" : [ "obj-93", 0 ],
					"source" : [ "obj-13", 0 ]
				}

			}
, 			{
				"patchline" : 				{
					"destination" : [ "obj-112", 0 ],
					"source" : [ "obj-131", 0 ]
				}

			}
, 			{
				"patchline" : 				{
					"destination" : [ "obj-131", 0 ],
					"source" : [ "obj-132", 0 ]
				}

			}
, 			{
				"patchline" : 				{
					"destination" : [ "obj-132", 0 ],
					"source" : [ "obj-133", 0 ]
				}

			}
, 			{
				"patchline" : 				{
					"destination" : [ "obj-115", 0 ],
					"source" : [ "obj-14", 0 ]
				}

			}
, 			{
				"patchline" : 				{
					"destination" : [ "obj-14", 0 ],
					"source" : [ "obj-15", 0 ]
				}

			}
, 			{
				"patchline" : 				{
					"destination" : [ "obj-88", 0 ],
					"source" : [ "obj-16", 0 ]
				}

			}
, 			{
				"patchline" : 				{
					"destination" : [ "obj-101", 0 ],
					"order" : 1,
					"source" : [ "obj-18", 0 ]
				}

			}
, 			{
				"patchline" : 				{
					"destination" : [ "obj-98", 0 ],
					"order" : 0,
					"source" : [ "obj-18", 0 ]
				}

			}
, 			{
				"patchline" : 				{
					"destination" : [ "obj-99", 0 ],
					"source" : [ "obj-19", 0 ]
				}

			}
, 			{
				"patchline" : 				{
					"destination" : [ "obj-15", 0 ],
					"source" : [ "obj-20", 0 ]
				}

			}
, 			{
				"patchline" : 				{
					"destination" : [ "obj-107", 0 ],
					"source" : [ "obj-22", 0 ]
				}

			}
, 			{
				"patchline" : 				{
					"destination" : [ "obj-112", 0 ],
					"order" : 0,
					"source" : [ "obj-24", 0 ]
				}

			}
, 			{
				"patchline" : 				{
					"destination" : [ "obj-125", 0 ],
					"order" : 1,
					"source" : [ "obj-24", 0 ]
				}

			}
, 			{
				"patchline" : 				{
					"destination" : [ "obj-51", 0 ],
					"source" : [ "obj-29", 0 ]
				}

			}
, 			{
				"patchline" : 				{
					"destination" : [ "obj-78", 0 ],
					"source" : [ "obj-34", 0 ]
				}

			}
, 			{
				"patchline" : 				{
					"destination" : [ "obj-98", 0 ],
					"source" : [ "obj-37", 0 ]
				}

			}
, 			{
				"patchline" : 				{
					"destination" : [ "obj-49", 0 ],
					"order" : 1,
					"source" : [ "obj-4", 0 ]
				}

			}
, 			{
				"patchline" : 				{
					"destination" : [ "obj-55", 0 ],
					"order" : 0,
					"source" : [ "obj-4", 0 ]
				}

			}
, 			{
				"patchline" : 				{
					"destination" : [ "obj-47", 0 ],
					"source" : [ "obj-45", 0 ]
				}

			}
, 			{
				"patchline" : 				{
					"destination" : [ "obj-29", 0 ],
					"source" : [ "obj-47", 0 ]
				}

			}
, 			{
				"patchline" : 				{
					"destination" : [ "obj-49", 0 ],
					"source" : [ "obj-48", 0 ]
				}

			}
, 			{
				"patchline" : 				{
					"destination" : [ "obj-69", 0 ],
					"source" : [ "obj-50", 0 ]
				}

			}
, 			{
				"patchline" : 				{
					"destination" : [ "obj-48", 0 ],
					"source" : [ "obj-54", 0 ]
				}

			}
, 			{
				"patchline" : 				{
					"destination" : [ "obj-54", 0 ],
					"source" : [ "obj-55", 0 ]
				}

			}
, 			{
				"patchline" : 				{
					"destination" : [ "obj-4", 0 ],
					"source" : [ "obj-56", 0 ]
				}

			}
, 			{
				"patchline" : 				{
					"destination" : [ "obj-68", 0 ],
					"source" : [ "obj-59", 0 ]
				}

			}
, 			{
				"patchline" : 				{
					"destination" : [ "obj-45", 0 ],
					"order" : 1,
					"source" : [ "obj-6", 0 ]
				}

			}
, 			{
				"patchline" : 				{
					"destination" : [ "obj-51", 0 ],
					"order" : 0,
					"source" : [ "obj-6", 0 ]
				}

			}
, 			{
				"patchline" : 				{
					"destination" : [ "obj-59", 0 ],
					"source" : [ "obj-61", 0 ]
				}

			}
, 			{
				"patchline" : 				{
					"destination" : [ "obj-61", 0 ],
					"source" : [ "obj-63", 0 ]
				}

			}
, 			{
				"patchline" : 				{
					"destination" : [ "obj-8", 0 ],
					"source" : [ "obj-64", 0 ]
				}

			}
, 			{
				"patchline" : 				{
					"destination" : [ "obj-6", 0 ],
					"source" : [ "obj-66", 0 ]
				}

			}
, 			{
				"patchline" : 				{
					"destination" : [ "obj-1", 0 ],
					"source" : [ "obj-69", 0 ]
				}

			}
, 			{
				"patchline" : 				{
					"destination" : [ "obj-63", 0 ],
					"order" : 0,
					"source" : [ "obj-7", 0 ]
				}

			}
, 			{
				"patchline" : 				{
					"destination" : [ "obj-68", 0 ],
					"order" : 1,
					"source" : [ "obj-7", 0 ]
				}

			}
, 			{
				"patchline" : 				{
					"destination" : [ "obj-7", 0 ],
					"source" : [ "obj-70", 0 ]
				}

			}
, 			{
				"patchline" : 				{
					"destination" : [ "obj-10", 0 ],
					"source" : [ "obj-75", 0 ]
				}

			}
, 			{
				"patchline" : 				{
					"destination" : [ "obj-9", 0 ],
					"source" : [ "obj-77", 0 ]
				}

			}
, 			{
				"patchline" : 				{
					"destination" : [ "obj-34", 0 ],
					"source" : [ "obj-79", 0 ]
				}

			}
, 			{
				"patchline" : 				{
					"destination" : [ "obj-65", 0 ],
					"source" : [ "obj-8", 0 ]
				}

			}
, 			{
				"patchline" : 				{
					"destination" : [ "obj-79", 0 ],
					"source" : [ "obj-80", 0 ]
				}

			}
, 			{
				"patchline" : 				{
					"destination" : [ "obj-11", 0 ],
					"source" : [ "obj-81", 0 ]
				}

			}
, 			{
				"patchline" : 				{
					"destination" : [ "obj-12", 0 ],
					"source" : [ "obj-83", 0 ]
				}

			}
, 			{
				"patchline" : 				{
					"destination" : [ "obj-16", 0 ],
					"source" : [ "obj-86", 0 ]
				}

			}
, 			{
				"patchline" : 				{
					"destination" : [ "obj-85", 0 ],
					"source" : [ "obj-89", 0 ]
				}

			}
, 			{
				"patchline" : 				{
					"destination" : [ "obj-78", 0 ],
					"order" : 0,
					"source" : [ "obj-9", 0 ]
				}

			}
, 			{
				"patchline" : 				{
					"destination" : [ "obj-80", 0 ],
					"order" : 1,
					"source" : [ "obj-9", 0 ]
				}

			}
, 			{
				"patchline" : 				{
					"destination" : [ "obj-89", 0 ],
					"source" : [ "obj-90", 0 ]
				}

			}
, 			{
				"patchline" : 				{
					"destination" : [ "obj-13", 0 ],
					"source" : [ "obj-91", 0 ]
				}

			}
, 			{
				"patchline" : 				{
					"destination" : [ "obj-90", 0 ],
					"source" : [ "obj-94", 0 ]
				}

			}
, 			{
				"patchline" : 				{
					"destination" : [ "obj-19", 0 ],
					"source" : [ "obj-96", 0 ]
				}

			}
 ],
		"parameters" : 		{
			"obj-81" : [ "live.button[6]", "live.button[2]", 0 ],
			"obj-111" : [ "live.button[17]", "live.button[2]", 0 ],
			"obj-75" : [ "live.button[4]", "live.button[2]", 0 ],
			"obj-86" : [ "live.button[8]", "live.button[2]", 0 ],
			"obj-70" : [ "live.button[3]", "live.button[2]", 0 ],
			"obj-103" : [ "live.button[13]", "live.button[2]", 0 ],
			"obj-102" : [ "live.button[9]", "live.button[2]", 0 ],
			"obj-64" : [ "live.button[1]", "2-3", 0 ],
			"obj-91" : [ "live.button[10]", "live.button[2]", 0 ],
			"obj-77" : [ "live.button[5]", "live.button[2]", 0 ],
			"obj-96" : [ "live.button[12]", "live.button[2]", 0 ],
			"obj-83" : [ "live.button[7]", "live.button[2]", 0 ],
			"obj-56" : [ "live.button", "2-1", 0 ],
			"obj-66" : [ "live.button[2]", "live.button[2]", 0 ],
			"obj-116" : [ "live.button[18]", "live.button[2]", 0 ],
			"obj-106" : [ "live.button[15]", "live.button[2]", 0 ],
			"parameterbanks" : 			{

			}

		}
,
		"dependency_cache" : [ 			{
				"name" : "shell.mxo",
				"type" : "iLaX"
			}
 ],
		"autosave" : 0
	}

}
