{
	"patcher" : 	{
		"fileversion" : 1,
		"appversion" : 		{
			"major" : 8,
			"minor" : 1,
			"revision" : 0,
			"architecture" : "x64",
			"modernui" : 1
		}
,
		"classnamespace" : "box",
		"rect" : [ 240.0, 79.0, 969.0, 746.0 ],
		"bglocked" : 0,
		"openinpresentation" : 0,
		"default_fontsize" : 12.0,
		"default_fontface" : 0,
		"default_fontname" : "Arial",
		"gridonopen" : 1,
		"gridsize" : [ 15.0, 15.0 ],
		"gridsnaponopen" : 1,
		"objectsnaponopen" : 1,
		"statusbarvisible" : 2,
		"toolbarvisible" : 1,
		"lefttoolbarpinned" : 0,
		"toptoolbarpinned" : 0,
		"righttoolbarpinned" : 0,
		"bottomtoolbarpinned" : 0,
		"toolbars_unpinned_last_save" : 0,
		"tallnewobj" : 0,
		"boxanimatetime" : 200,
		"enablehscroll" : 1,
		"enablevscroll" : 1,
		"devicewidth" : 0.0,
		"description" : "",
		"digest" : "",
		"tags" : "",
		"style" : "",
		"subpatcher_template" : "",
		"boxes" : [ 			{
				"box" : 				{
					"fontname" : "Arial Bold",
					"fontsize" : 10.0,
					"id" : "obj-254",
					"maxclass" : "message",
					"numinlets" : 2,
					"numoutlets" : 1,
					"outlettype" : [ "" ],
					"patching_rect" : [ 720.584716999999955, -440.80999799999995, 84.0, 20.0 ],
					"text" : "sizeinsamps 16"
				}

			}
, 			{
				"box" : 				{
					"fontname" : "Arial Bold",
					"fontsize" : 10.0,
					"id" : "obj-431",
					"maxclass" : "message",
					"numinlets" : 2,
					"numoutlets" : 1,
					"outlettype" : [ "" ],
					"patching_rect" : [ 621.964874000000009, 106.46276899999998, 32.5, 20.0 ],
					"text" : "1"
				}

			}
, 			{
				"box" : 				{
					"fontname" : "Arial Bold",
					"fontsize" : 10.0,
					"id" : "obj-432",
					"maxclass" : "newobj",
					"numinlets" : 1,
					"numoutlets" : 1,
					"outlettype" : [ "bang" ],
					"patching_rect" : [ 621.964874000000009, 91.269896999999901, 55.0, 20.0 ],
					"text" : "loadbang"
				}

			}
, 			{
				"box" : 				{
					"fontname" : "Arial Bold",
					"fontsize" : 10.0,
					"id" : "obj-429",
					"maxclass" : "message",
					"numinlets" : 2,
					"numoutlets" : 1,
					"outlettype" : [ "" ],
					"patching_rect" : [ 621.964874000000009, -153.465819999999894, 32.5, 20.0 ],
					"text" : "0"
				}

			}
, 			{
				"box" : 				{
					"fontname" : "Arial Bold",
					"fontsize" : 10.0,
					"id" : "obj-430",
					"maxclass" : "newobj",
					"numinlets" : 1,
					"numoutlets" : 1,
					"outlettype" : [ "bang" ],
					"patching_rect" : [ 621.964874000000009, -168.65869100000009, 55.0, 20.0 ],
					"text" : "loadbang"
				}

			}
, 			{
				"box" : 				{
					"fontname" : "Arial Bold",
					"fontsize" : 10.0,
					"id" : "obj-428",
					"maxclass" : "message",
					"numinlets" : 2,
					"numoutlets" : 1,
					"outlettype" : [ "" ],
					"patching_rect" : [ 701.420914000000039, -564.807067999999958, 32.5, 20.0 ],
					"text" : "1"
				}

			}
, 			{
				"box" : 				{
					"fontname" : "Arial Bold",
					"fontsize" : 10.0,
					"id" : "obj-426",
					"maxclass" : "newobj",
					"numinlets" : 1,
					"numoutlets" : 1,
					"outlettype" : [ "bang" ],
					"patching_rect" : [ 730.284545999999978, -588.0, 55.0, 20.0 ],
					"text" : "loadbang"
				}

			}
, 			{
				"box" : 				{
					"id" : "obj-396",
					"maxclass" : "multislider",
					"numinlets" : 1,
					"numoutlets" : 2,
					"outlettype" : [ "", "" ],
					"parameter_enable" : 0,
					"patching_rect" : [ 600.0, 198.276732999999922, 227.0, 129.0 ],
					"setminmax" : [ -4.0, 4.0 ],
					"size" : 16
				}

			}
, 			{
				"box" : 				{
					"id" : "obj-392",
					"maxclass" : "button",
					"numinlets" : 1,
					"numoutlets" : 1,
					"outlettype" : [ "bang" ],
					"parameter_enable" : 0,
					"patching_rect" : [ 647.857451999999967, 141.404907000000094, 20.0, 20.0 ]
				}

			}
, 			{
				"box" : 				{
					"id" : "obj-393",
					"maxclass" : "live.dial",
					"numinlets" : 1,
					"numoutlets" : 2,
					"outlettype" : [ "", "float" ],
					"parameter_enable" : 1,
					"patching_rect" : [ 678.674118000000021, 91.269896999999901, 44.0, 48.0 ],
					"saved_attribute_attributes" : 					{
						"valueof" : 						{
							"parameter_mmin" : -6.0,
							"parameter_longname" : "live.dial[2]",
							"parameter_mmax" : 6.0,
							"parameter_shortname" : "Control",
							"parameter_type" : 0,
							"parameter_unitstyle" : 1
						}

					}
,
					"varname" : "live.dial[2]"
				}

			}
, 			{
				"box" : 				{
					"fontname" : "Arial Bold",
					"fontsize" : 10.0,
					"id" : "obj-394",
					"maxclass" : "message",
					"numinlets" : 2,
					"numoutlets" : 1,
					"outlettype" : [ "" ],
					"patching_rect" : [ 701.964874000000009, 149.669311999999991, 230.0, 20.0 ],
					"text" : "$1 $1 $1 $1 $1 $1 $1 $1 $1 $1 $1 $1 $1 $1 $1 $1"
				}

			}
, 			{
				"box" : 				{
					"fontname" : "Arial Bold",
					"fontsize" : 10.0,
					"id" : "obj-395",
					"maxclass" : "newobj",
					"numinlets" : 2,
					"numoutlets" : 1,
					"outlettype" : [ "" ],
					"patching_rect" : [ 600.0, 170.330443999999943, 80.0, 20.0 ],
					"text" : "vexpr $f1 + $f2"
				}

			}
, 			{
				"box" : 				{
					"id" : "obj-353",
					"maxclass" : "button",
					"numinlets" : 1,
					"numoutlets" : 1,
					"outlettype" : [ "bang" ],
					"parameter_enable" : 0,
					"patching_rect" : [ 647.857451999999967, -121.528931000000057, 20.0, 20.0 ]
				}

			}
, 			{
				"box" : 				{
					"id" : "obj-351",
					"maxclass" : "live.dial",
					"numinlets" : 1,
					"numoutlets" : 2,
					"outlettype" : [ "", "float" ],
					"parameter_enable" : 1,
					"patching_rect" : [ 701.964874000000009, -168.65869100000009, 44.0, 48.0 ],
					"saved_attribute_attributes" : 					{
						"valueof" : 						{
							"parameter_mmin" : -4.0,
							"parameter_longname" : "live.dial[1]",
							"parameter_mmax" : 4.0,
							"parameter_shortname" : "Amount",
							"parameter_type" : 0,
							"parameter_unitstyle" : 1
						}

					}
,
					"varname" : "live.dial[1]"
				}

			}
, 			{
				"box" : 				{
					"fontname" : "Arial Bold",
					"fontsize" : 10.0,
					"id" : "obj-350",
					"maxclass" : "message",
					"numinlets" : 2,
					"numoutlets" : 1,
					"outlettype" : [ "" ],
					"patching_rect" : [ 701.964874000000009, -113.264525999999933, 230.0, 20.0 ],
					"text" : "$1 $1 $1 $1 $1 $1 $1 $1 $1 $1 $1 $1 $1 $1 $1 $1"
				}

			}
, 			{
				"box" : 				{
					"fontname" : "Arial Bold",
					"fontsize" : 10.0,
					"id" : "obj-348",
					"maxclass" : "newobj",
					"numinlets" : 2,
					"numoutlets" : 1,
					"outlettype" : [ "" ],
					"patching_rect" : [ 600.0, -92.60339399999998, 78.0, 20.0 ],
					"text" : "vexpr $f1 * $f2"
				}

			}
, 			{
				"box" : 				{
					"fontname" : "Arial Bold",
					"fontsize" : 10.0,
					"id" : "obj-346",
					"maxclass" : "newobj",
					"numinlets" : 1,
					"numoutlets" : 2,
					"outlettype" : [ "bang", "float" ],
					"patching_rect" : [ 641.245879999999943, -471.157043000000044, 32.5, 20.0 ],
					"text" : "t b f"
				}

			}
, 			{
				"box" : 				{
					"fontname" : "Arial Bold",
					"fontsize" : 10.0,
					"id" : "obj-345",
					"maxclass" : "newobj",
					"numinlets" : 2,
					"numoutlets" : 1,
					"outlettype" : [ "int" ],
					"patching_rect" : [ 600.0, -291.657104000000004, 32.5, 20.0 ],
					"text" : "+ 1"
				}

			}
, 			{
				"box" : 				{
					"fontname" : "Arial Bold",
					"fontsize" : 10.0,
					"id" : "obj-344",
					"maxclass" : "newobj",
					"numinlets" : 16,
					"numoutlets" : 1,
					"outlettype" : [ "" ],
					"patching_rect" : [ 600.0, -200.041382000000112, 221.5, 20.0 ],
					"text" : "pak 0. 0. 0. 0. 0. 0. 0. 0. 0. 0. 0. 0. 0. 0. 0. 0."
				}

			}
, 			{
				"box" : 				{
					"fontname" : "Arial Bold",
					"fontsize" : 10.0,
					"id" : "obj-343",
					"maxclass" : "newobj",
					"numinlets" : 1,
					"numoutlets" : 2,
					"outlettype" : [ "int", "int" ],
					"patching_rect" : [ 612.964874000000009, -328.413329999999974, 32.5, 20.0 ],
					"text" : "t i i"
				}

			}
, 			{
				"box" : 				{
					"fontname" : "Arial Bold",
					"fontsize" : 10.0,
					"id" : "obj-340",
					"maxclass" : "newobj",
					"numinlets" : 2,
					"numoutlets" : 16,
					"outlettype" : [ "", "", "", "", "", "", "", "", "", "", "", "", "", "", "", "" ],
					"patching_rect" : [ 600.0, -226.863646999999901, 221.5, 20.0 ],
					"text" : "gate 16"
				}

			}
, 			{
				"box" : 				{
					"fontname" : "Arial Bold",
					"fontsize" : 10.0,
					"id" : "obj-338",
					"maxclass" : "number",
					"numinlets" : 1,
					"numoutlets" : 2,
					"outlettype" : [ "", "bang" ],
					"parameter_enable" : 0,
					"patching_rect" : [ 612.964874000000009, -353.206726000000003, 50.0, 20.0 ]
				}

			}
, 			{
				"box" : 				{
					"fontname" : "Arial Bold",
					"fontsize" : 10.0,
					"id" : "obj-335",
					"maxclass" : "newobj",
					"numinlets" : 5,
					"numoutlets" : 4,
					"outlettype" : [ "int", "", "", "int" ],
					"patching_rect" : [ 612.964874000000009, -377.173644999999965, 73.0, 20.0 ],
					"text" : "counter 0 15"
				}

			}
, 			{
				"box" : 				{
					"id" : "obj-332",
					"maxclass" : "button",
					"numinlets" : 1,
					"numoutlets" : 1,
					"outlettype" : [ "bang" ],
					"parameter_enable" : 0,
					"patching_rect" : [ 612.964874000000009, -440.80999799999995, 20.0, 20.0 ]
				}

			}
, 			{
				"box" : 				{
					"fontname" : "Arial Bold",
					"fontsize" : 10.0,
					"id" : "obj-330",
					"maxclass" : "newobj",
					"numinlets" : 2,
					"numoutlets" : 3,
					"outlettype" : [ "bang", "bang", "int" ],
					"patching_rect" : [ 612.964874000000009, -409.483520999999996, 46.0, 20.0 ],
					"text" : "uzi 16"
				}

			}
, 			{
				"box" : 				{
					"fontname" : "Arial Bold",
					"fontsize" : 10.0,
					"format" : 6,
					"id" : "obj-300",
					"maxclass" : "flonum",
					"numinlets" : 1,
					"numoutlets" : 2,
					"outlettype" : [ "", "bang" ],
					"parameter_enable" : 0,
					"patching_rect" : [ 648.502074999999991, -281.921569999999974, 50.0, 20.0 ]
				}

			}
, 			{
				"box" : 				{
					"fontname" : "Arial Bold",
					"fontsize" : 10.0,
					"id" : "obj-298",
					"maxclass" : "newobj",
					"numinlets" : 3,
					"numoutlets" : 1,
					"outlettype" : [ "float" ],
					"patching_rect" : [ 648.502074999999991, -299.921569999999974, 98.0, 20.0 ],
					"text" : "peek~ Speed_Mod"
				}

			}
, 			{
				"box" : 				{
					"id" : "obj-234",
					"maxclass" : "live.dial",
					"numinlets" : 1,
					"numoutlets" : 2,
					"outlettype" : [ "", "float" ],
					"parameter_enable" : 1,
					"patching_rect" : [ 641.245879999999943, -536.157043000000044, 44.0, 48.0 ],
					"saved_attribute_attributes" : 					{
						"valueof" : 						{
							"parameter_mmin" : 0.5,
							"parameter_longname" : "live.dial",
							"parameter_mmax" : 8.0,
							"parameter_shortname" : "Cycles",
							"parameter_type" : 0,
							"parameter_unitstyle" : 1
						}

					}
,
					"varname" : "live.dial"
				}

			}
, 			{
				"box" : 				{
					"fontname" : "Arial Bold",
					"fontsize" : 10.0,
					"id" : "obj-224",
					"maxclass" : "message",
					"numinlets" : 2,
					"numoutlets" : 1,
					"outlettype" : [ "" ],
					"patching_rect" : [ 654.745879999999943, -440.80999799999995, 53.0, 20.0 ],
					"text" : "fill sin $1"
				}

			}
, 			{
				"box" : 				{
					"fontname" : "Arial Bold",
					"fontsize" : 10.0,
					"id" : "obj-6",
					"maxclass" : "newobj",
					"numinlets" : 1,
					"numoutlets" : 2,
					"outlettype" : [ "float", "bang" ],
					"patching_rect" : [ 720.584716999999955, -416.570374000000015, 134.0, 20.0 ],
					"text" : "buffer~ Speed_Mod 0.36 1"
				}

			}
, 			{
				"box" : 				{
					"id" : "obj-229",
					"maxclass" : "multislider",
					"numinlets" : 1,
					"numoutlets" : 2,
					"outlettype" : [ "", "" ],
					"parameter_enable" : 0,
					"patching_rect" : [ 600.0, -46.625487999999905, 227.0, 129.0 ],
					"setminmax" : [ -4.0, 4.0 ],
					"size" : 16
				}

			}
 ],
		"lines" : [ 			{
				"patchline" : 				{
					"destination" : [ "obj-6", 0 ],
					"source" : [ "obj-224", 0 ]
				}

			}
, 			{
				"patchline" : 				{
					"destination" : [ "obj-395", 0 ],
					"source" : [ "obj-229", 0 ]
				}

			}
, 			{
				"patchline" : 				{
					"destination" : [ "obj-346", 0 ],
					"source" : [ "obj-234", 0 ]
				}

			}
, 			{
				"patchline" : 				{
					"destination" : [ "obj-6", 0 ],
					"source" : [ "obj-254", 0 ]
				}

			}
, 			{
				"patchline" : 				{
					"destination" : [ "obj-300", 0 ],
					"source" : [ "obj-298", 0 ]
				}

			}
, 			{
				"patchline" : 				{
					"destination" : [ "obj-340", 1 ],
					"source" : [ "obj-300", 0 ]
				}

			}
, 			{
				"patchline" : 				{
					"destination" : [ "obj-335", 2 ],
					"source" : [ "obj-330", 1 ]
				}

			}
, 			{
				"patchline" : 				{
					"destination" : [ "obj-335", 0 ],
					"source" : [ "obj-330", 0 ]
				}

			}
, 			{
				"patchline" : 				{
					"destination" : [ "obj-330", 0 ],
					"source" : [ "obj-332", 0 ]
				}

			}
, 			{
				"patchline" : 				{
					"destination" : [ "obj-338", 0 ],
					"source" : [ "obj-335", 0 ]
				}

			}
, 			{
				"patchline" : 				{
					"destination" : [ "obj-343", 0 ],
					"source" : [ "obj-338", 0 ]
				}

			}
, 			{
				"patchline" : 				{
					"destination" : [ "obj-344", 15 ],
					"source" : [ "obj-340", 15 ]
				}

			}
, 			{
				"patchline" : 				{
					"destination" : [ "obj-344", 14 ],
					"source" : [ "obj-340", 14 ]
				}

			}
, 			{
				"patchline" : 				{
					"destination" : [ "obj-344", 13 ],
					"source" : [ "obj-340", 13 ]
				}

			}
, 			{
				"patchline" : 				{
					"destination" : [ "obj-344", 12 ],
					"source" : [ "obj-340", 12 ]
				}

			}
, 			{
				"patchline" : 				{
					"destination" : [ "obj-344", 11 ],
					"source" : [ "obj-340", 11 ]
				}

			}
, 			{
				"patchline" : 				{
					"destination" : [ "obj-344", 10 ],
					"source" : [ "obj-340", 10 ]
				}

			}
, 			{
				"patchline" : 				{
					"destination" : [ "obj-344", 9 ],
					"source" : [ "obj-340", 9 ]
				}

			}
, 			{
				"patchline" : 				{
					"destination" : [ "obj-344", 8 ],
					"source" : [ "obj-340", 8 ]
				}

			}
, 			{
				"patchline" : 				{
					"destination" : [ "obj-344", 7 ],
					"source" : [ "obj-340", 7 ]
				}

			}
, 			{
				"patchline" : 				{
					"destination" : [ "obj-344", 6 ],
					"source" : [ "obj-340", 6 ]
				}

			}
, 			{
				"patchline" : 				{
					"destination" : [ "obj-344", 5 ],
					"source" : [ "obj-340", 5 ]
				}

			}
, 			{
				"patchline" : 				{
					"destination" : [ "obj-344", 4 ],
					"source" : [ "obj-340", 4 ]
				}

			}
, 			{
				"patchline" : 				{
					"destination" : [ "obj-344", 3 ],
					"source" : [ "obj-340", 3 ]
				}

			}
, 			{
				"patchline" : 				{
					"destination" : [ "obj-344", 2 ],
					"source" : [ "obj-340", 2 ]
				}

			}
, 			{
				"patchline" : 				{
					"destination" : [ "obj-344", 1 ],
					"source" : [ "obj-340", 1 ]
				}

			}
, 			{
				"patchline" : 				{
					"destination" : [ "obj-344", 0 ],
					"source" : [ "obj-340", 0 ]
				}

			}
, 			{
				"patchline" : 				{
					"destination" : [ "obj-298", 0 ],
					"source" : [ "obj-343", 1 ]
				}

			}
, 			{
				"patchline" : 				{
					"destination" : [ "obj-345", 0 ],
					"source" : [ "obj-343", 0 ]
				}

			}
, 			{
				"patchline" : 				{
					"destination" : [ "obj-348", 0 ],
					"source" : [ "obj-344", 0 ]
				}

			}
, 			{
				"patchline" : 				{
					"destination" : [ "obj-340", 0 ],
					"source" : [ "obj-345", 0 ]
				}

			}
, 			{
				"patchline" : 				{
					"destination" : [ "obj-224", 0 ],
					"source" : [ "obj-346", 1 ]
				}

			}
, 			{
				"patchline" : 				{
					"destination" : [ "obj-332", 0 ],
					"source" : [ "obj-346", 0 ]
				}

			}
, 			{
				"patchline" : 				{
					"destination" : [ "obj-229", 0 ],
					"source" : [ "obj-348", 0 ]
				}

			}
, 			{
				"patchline" : 				{
					"destination" : [ "obj-348", 1 ],
					"source" : [ "obj-350", 0 ]
				}

			}
, 			{
				"patchline" : 				{
					"destination" : [ "obj-350", 0 ],
					"order" : 0,
					"source" : [ "obj-351", 0 ]
				}

			}
, 			{
				"patchline" : 				{
					"destination" : [ "obj-353", 0 ],
					"order" : 1,
					"source" : [ "obj-351", 0 ]
				}

			}
, 			{
				"patchline" : 				{
					"destination" : [ "obj-348", 0 ],
					"source" : [ "obj-353", 0 ]
				}

			}
, 			{
				"patchline" : 				{
					"destination" : [ "obj-395", 0 ],
					"source" : [ "obj-392", 0 ]
				}

			}
, 			{
				"patchline" : 				{
					"destination" : [ "obj-392", 0 ],
					"order" : 1,
					"source" : [ "obj-393", 0 ]
				}

			}
, 			{
				"patchline" : 				{
					"destination" : [ "obj-394", 0 ],
					"order" : 0,
					"source" : [ "obj-393", 0 ]
				}

			}
, 			{
				"patchline" : 				{
					"destination" : [ "obj-395", 1 ],
					"source" : [ "obj-394", 0 ]
				}

			}
, 			{
				"patchline" : 				{
					"destination" : [ "obj-396", 0 ],
					"source" : [ "obj-395", 0 ]
				}

			}
, 			{
				"patchline" : 				{
					"destination" : [ "obj-254", 0 ],
					"order" : 0,
					"source" : [ "obj-426", 0 ]
				}

			}
, 			{
				"patchline" : 				{
					"destination" : [ "obj-428", 0 ],
					"order" : 1,
					"source" : [ "obj-426", 0 ]
				}

			}
, 			{
				"patchline" : 				{
					"destination" : [ "obj-234", 0 ],
					"source" : [ "obj-428", 0 ]
				}

			}
, 			{
				"patchline" : 				{
					"destination" : [ "obj-351", 0 ],
					"source" : [ "obj-429", 0 ]
				}

			}
, 			{
				"patchline" : 				{
					"destination" : [ "obj-429", 0 ],
					"source" : [ "obj-430", 0 ]
				}

			}
, 			{
				"patchline" : 				{
					"destination" : [ "obj-393", 0 ],
					"source" : [ "obj-431", 0 ]
				}

			}
, 			{
				"patchline" : 				{
					"destination" : [ "obj-431", 0 ],
					"source" : [ "obj-432", 0 ]
				}

			}
 ],
		"parameters" : 		{
			"obj-234" : [ "live.dial", "Cycles", 0 ],
			"obj-393" : [ "live.dial[2]", "Control", 0 ],
			"obj-351" : [ "live.dial[1]", "Amount", 0 ],
			"parameterbanks" : 			{

			}

		}
,
		"dependency_cache" : [  ],
		"autosave" : 0
	}

}
