{
	"patcher" : 	{
		"fileversion" : 1,
		"appversion" : 		{
			"major" : 8,
			"minor" : 1,
			"revision" : 0,
			"architecture" : "x64",
			"modernui" : 1
		}
,
		"classnamespace" : "box",
		"rect" : [ 34.0, 79.0, 1177.0, 707.0 ],
		"bglocked" : 0,
		"openinpresentation" : 1,
		"default_fontsize" : 12.0,
		"default_fontface" : 0,
		"default_fontname" : "Arial",
		"gridonopen" : 1,
		"gridsize" : [ 15.0, 15.0 ],
		"gridsnaponopen" : 1,
		"objectsnaponopen" : 1,
		"statusbarvisible" : 2,
		"toolbarvisible" : 1,
		"lefttoolbarpinned" : 0,
		"toptoolbarpinned" : 0,
		"righttoolbarpinned" : 0,
		"bottomtoolbarpinned" : 0,
		"toolbars_unpinned_last_save" : 0,
		"tallnewobj" : 0,
		"boxanimatetime" : 200,
		"enablehscroll" : 1,
		"enablevscroll" : 1,
		"devicewidth" : 0.0,
		"description" : "",
		"digest" : "",
		"tags" : "",
		"style" : "",
		"subpatcher_template" : "",
		"boxes" : [ 			{
				"box" : 				{
					"id" : "obj-76",
					"maxclass" : "meter~",
					"numinlets" : 1,
					"numoutlets" : 1,
					"outlettype" : [ "float" ],
					"patching_rect" : [ 1122.0, 494.0, 17.0, 141.0 ],
					"presentation" : 1,
					"presentation_rect" : [ 806.0, 150.0, 17.0, 141.0 ]
				}

			}
, 			{
				"box" : 				{
					"id" : "obj-77",
					"maxclass" : "meter~",
					"numinlets" : 1,
					"numoutlets" : 1,
					"outlettype" : [ "float" ],
					"patching_rect" : [ 1099.0, 494.0, 17.0, 141.0 ],
					"presentation" : 1,
					"presentation_rect" : [ 783.0, 150.0, 17.0, 141.0 ]
				}

			}
, 			{
				"box" : 				{
					"id" : "obj-78",
					"maxclass" : "meter~",
					"numinlets" : 1,
					"numoutlets" : 1,
					"outlettype" : [ "float" ],
					"patching_rect" : [ 1077.0, 494.0, 17.0, 141.0 ],
					"presentation" : 1,
					"presentation_rect" : [ 761.0, 150.0, 17.0, 141.0 ]
				}

			}
, 			{
				"box" : 				{
					"id" : "obj-79",
					"maxclass" : "meter~",
					"numinlets" : 1,
					"numoutlets" : 1,
					"outlettype" : [ "float" ],
					"patching_rect" : [ 1055.0, 494.0, 17.0, 141.0 ],
					"presentation" : 1,
					"presentation_rect" : [ 739.0, 150.0, 17.0, 141.0 ]
				}

			}
, 			{
				"box" : 				{
					"id" : "obj-81",
					"maxclass" : "meter~",
					"numinlets" : 1,
					"numoutlets" : 1,
					"outlettype" : [ "float" ],
					"patching_rect" : [ 1033.0, 494.0, 17.0, 141.0 ],
					"presentation" : 1,
					"presentation_rect" : [ 717.0, 150.0, 17.0, 141.0 ]
				}

			}
, 			{
				"box" : 				{
					"id" : "obj-73",
					"maxclass" : "meter~",
					"numinlets" : 1,
					"numoutlets" : 1,
					"outlettype" : [ "float" ],
					"patching_rect" : [ 1014.0, 494.0, 17.0, 141.0 ],
					"presentation" : 1,
					"presentation_rect" : [ 698.0, 150.0, 17.0, 141.0 ]
				}

			}
, 			{
				"box" : 				{
					"id" : "obj-60",
					"maxclass" : "meter~",
					"numinlets" : 1,
					"numoutlets" : 1,
					"outlettype" : [ "float" ],
					"patching_rect" : [ 991.0, 494.0, 17.0, 141.0 ],
					"presentation" : 1,
					"presentation_rect" : [ 675.0, 150.0, 17.0, 141.0 ]
				}

			}
, 			{
				"box" : 				{
					"id" : "obj-38",
					"maxclass" : "meter~",
					"numinlets" : 1,
					"numoutlets" : 1,
					"outlettype" : [ "float" ],
					"patching_rect" : [ 969.0, 494.0, 17.0, 141.0 ],
					"presentation" : 1,
					"presentation_rect" : [ 653.0, 150.0, 17.0, 141.0 ]
				}

			}
, 			{
				"box" : 				{
					"id" : "obj-29",
					"maxclass" : "meter~",
					"numinlets" : 1,
					"numoutlets" : 1,
					"outlettype" : [ "float" ],
					"patching_rect" : [ 947.0, 494.0, 17.0, 141.0 ],
					"presentation" : 1,
					"presentation_rect" : [ 631.0, 150.0, 17.0, 141.0 ]
				}

			}
, 			{
				"box" : 				{
					"id" : "obj-28",
					"maxclass" : "meter~",
					"numinlets" : 1,
					"numoutlets" : 1,
					"outlettype" : [ "float" ],
					"patching_rect" : [ 925.0, 494.0, 17.0, 141.0 ],
					"presentation" : 1,
					"presentation_rect" : [ 609.0, 150.0, 17.0, 141.0 ]
				}

			}
, 			{
				"box" : 				{
					"id" : "obj-26",
					"linecount" : 2,
					"maxclass" : "comment",
					"numinlets" : 1,
					"numoutlets" : 0,
					"patching_rect" : [ 260.0, 79.0, 150.0, 33.0 ],
					"presentation" : 1,
					"presentation_linecount" : 2,
					"presentation_rect" : [ 196.0, 71.0, 150.0, 33.0 ],
					"text" : "always switch OFF audio before changing the ppl nr"
				}

			}
, 			{
				"box" : 				{
					"id" : "obj-70",
					"maxclass" : "newobj",
					"numinlets" : 0,
					"numoutlets" : 1,
					"outlettype" : [ "" ],
					"patching_rect" : [ 513.0, 690.0, 111.0, 22.0 ],
					"text" : "r reset_vol_manual"
				}

			}
, 			{
				"box" : 				{
					"id" : "obj-69",
					"maxclass" : "newobj",
					"numinlets" : 1,
					"numoutlets" : 0,
					"patching_rect" : [ -241.0, 274.0, 113.0, 22.0 ],
					"text" : "s reset_vol_manual"
				}

			}
, 			{
				"box" : 				{
					"id" : "obj-107",
					"maxclass" : "newobj",
					"numinlets" : 1,
					"numoutlets" : 0,
					"patching_rect" : [ -269.0, 681.0, 89.0, 22.0 ],
					"text" : "s mode_choice"
				}

			}
, 			{
				"box" : 				{
					"id" : "obj-103",
					"maxclass" : "newobj",
					"numinlets" : 1,
					"numoutlets" : 1,
					"outlettype" : [ "" ],
					"patching_rect" : [ -307.0, 320.0, 70.0, 22.0 ],
					"text" : "loadmess 1"
				}

			}
, 			{
				"box" : 				{
					"id" : "obj-97",
					"maxclass" : "newobj",
					"numinlets" : 1,
					"numoutlets" : 2,
					"outlettype" : [ "bang", "int" ],
					"patching_rect" : [ 847.0, 177.0, 29.5, 22.0 ],
					"text" : "t b i"
				}

			}
, 			{
				"box" : 				{
					"id" : "obj-98",
					"maxclass" : "newobj",
					"numinlets" : 2,
					"numoutlets" : 3,
					"outlettype" : [ "", "", "" ],
					"patching_rect" : [ 825.5, 217.0, 84.0, 22.0 ],
					"text" : "gate 3"
				}

			}
, 			{
				"box" : 				{
					"id" : "obj-99",
					"maxclass" : "newobj",
					"numinlets" : 0,
					"numoutlets" : 1,
					"outlettype" : [ "" ],
					"patching_rect" : [ 847.0, 146.0, 49.0, 22.0 ],
					"text" : "r ppl_nr"
				}

			}
, 			{
				"box" : 				{
					"id" : "obj-100",
					"maxclass" : "message",
					"numinlets" : 2,
					"numoutlets" : 1,
					"outlettype" : [ "" ],
					"patching_rect" : [ 896.25, 251.0, 59.0, 22.0 ],
					"text" : "voices 50"
				}

			}
, 			{
				"box" : 				{
					"id" : "obj-101",
					"maxclass" : "message",
					"numinlets" : 2,
					"numoutlets" : 1,
					"outlettype" : [ "" ],
					"patching_rect" : [ 825.25, 251.0, 59.0, 22.0 ],
					"text" : "voices 40"
				}

			}
, 			{
				"box" : 				{
					"id" : "obj-102",
					"maxclass" : "message",
					"numinlets" : 2,
					"numoutlets" : 1,
					"outlettype" : [ "" ],
					"patching_rect" : [ 756.0, 251.0, 59.0, 22.0 ],
					"text" : "voices 30"
				}

			}
, 			{
				"box" : 				{
					"id" : "obj-95",
					"maxclass" : "newobj",
					"numinlets" : 0,
					"numoutlets" : 1,
					"outlettype" : [ "" ],
					"patching_rect" : [ 195.5, 685.0, 84.0, 22.0 ],
					"text" : "r reset_vol_txt"
				}

			}
, 			{
				"box" : 				{
					"id" : "obj-93",
					"maxclass" : "newobj",
					"numinlets" : 1,
					"numoutlets" : 0,
					"patching_rect" : [ -293.0, 241.0, 86.0, 22.0 ],
					"text" : "s reset_vol_txt"
				}

			}
, 			{
				"box" : 				{
					"id" : "obj-92",
					"maxclass" : "newobj",
					"numinlets" : 1,
					"numoutlets" : 2,
					"outlettype" : [ "bang", "int" ],
					"patching_rect" : [ -179.75, -37.0, 29.5, 22.0 ],
					"text" : "t b i"
				}

			}
, 			{
				"box" : 				{
					"id" : "obj-91",
					"maxclass" : "newobj",
					"numinlets" : 1,
					"numoutlets" : 2,
					"outlettype" : [ "bang", "int" ],
					"patching_rect" : [ 419.0, 559.5, 29.5, 22.0 ],
					"text" : "t b i"
				}

			}
, 			{
				"box" : 				{
					"id" : "obj-90",
					"maxclass" : "newobj",
					"numinlets" : 1,
					"numoutlets" : 2,
					"outlettype" : [ "bang", "int" ],
					"patching_rect" : [ 133.5, 559.5, 29.5, 22.0 ],
					"text" : "t b i"
				}

			}
, 			{
				"box" : 				{
					"id" : "obj-89",
					"maxclass" : "newobj",
					"numinlets" : 1,
					"numoutlets" : 2,
					"outlettype" : [ "bang", "int" ],
					"patching_rect" : [ -170.0, 559.5, 29.5, 22.0 ],
					"text" : "t b i"
				}

			}
, 			{
				"box" : 				{
					"id" : "obj-88",
					"maxclass" : "newobj",
					"numinlets" : 1,
					"numoutlets" : 2,
					"outlettype" : [ "bang", "int" ],
					"patching_rect" : [ 106.0, -49.0, 29.5, 22.0 ],
					"text" : "t b i"
				}

			}
, 			{
				"box" : 				{
					"id" : "obj-72",
					"maxclass" : "newobj",
					"numinlets" : 2,
					"numoutlets" : 3,
					"outlettype" : [ "", "", "" ],
					"patching_rect" : [ 84.5, -9.0, 84.0, 22.0 ],
					"text" : "gate 3"
				}

			}
, 			{
				"box" : 				{
					"id" : "obj-65",
					"maxclass" : "newobj",
					"numinlets" : 0,
					"numoutlets" : 1,
					"outlettype" : [ "" ],
					"patching_rect" : [ -179.75, -80.0, 49.0, 22.0 ],
					"text" : "r ppl_nr"
				}

			}
, 			{
				"box" : 				{
					"id" : "obj-64",
					"maxclass" : "newobj",
					"numinlets" : 2,
					"numoutlets" : 3,
					"outlettype" : [ "", "", "" ],
					"patching_rect" : [ -184.75, 1.0, 42.0, 22.0 ],
					"text" : "gate 3"
				}

			}
, 			{
				"box" : 				{
					"id" : "obj-61",
					"maxclass" : "newobj",
					"numinlets" : 3,
					"numoutlets" : 5,
					"outlettype" : [ "", "", "", "int", "" ],
					"patching_rect" : [ -216.25, 94.0, 61.0, 22.0 ],
					"text" : "uzi_total"
				}

			}
, 			{
				"box" : 				{
					"id" : "obj-59",
					"maxclass" : "newobj",
					"numinlets" : 0,
					"numoutlets" : 1,
					"outlettype" : [ "" ],
					"patching_rect" : [ 106.0, -80.0, 49.0, 22.0 ],
					"text" : "r ppl_nr"
				}

			}
, 			{
				"box" : 				{
					"id" : "obj-58",
					"maxclass" : "newobj",
					"numinlets" : 1,
					"numoutlets" : 0,
					"patching_rect" : [ -303.5, 442.0, 51.0, 22.0 ],
					"text" : "s ppl_nr"
				}

			}
, 			{
				"box" : 				{
					"id" : "obj-57",
					"maxclass" : "newobj",
					"numinlets" : 2,
					"numoutlets" : 3,
					"outlettype" : [ "", "", "" ],
					"patching_rect" : [ 429.5, 599.0, 42.0, 22.0 ],
					"text" : "gate 3"
				}

			}
, 			{
				"box" : 				{
					"id" : "obj-55",
					"maxclass" : "newobj",
					"numinlets" : 1,
					"numoutlets" : 2,
					"outlettype" : [ "list", "" ],
					"patching_rect" : [ 484.5, 746.0, 68.0, 22.0 ],
					"text" : "50_Manual"
				}

			}
, 			{
				"box" : 				{
					"id" : "obj-52",
					"maxclass" : "newobj",
					"numinlets" : 1,
					"numoutlets" : 2,
					"outlettype" : [ "list", "" ],
					"patching_rect" : [ 405.0, 746.0, 68.0, 22.0 ],
					"text" : "40_Manual"
				}

			}
, 			{
				"box" : 				{
					"id" : "obj-51",
					"maxclass" : "newobj",
					"numinlets" : 2,
					"numoutlets" : 3,
					"outlettype" : [ "", "", "" ],
					"patching_rect" : [ 144.0, 599.0, 42.0, 22.0 ],
					"text" : "gate 3"
				}

			}
, 			{
				"box" : 				{
					"id" : "obj-50",
					"maxclass" : "newobj",
					"numinlets" : 1,
					"numoutlets" : 2,
					"outlettype" : [ "list", "" ],
					"patching_rect" : [ 66.0, 746.0, 77.0, 22.0 ],
					"text" : "30_Playback"
				}

			}
, 			{
				"box" : 				{
					"id" : "obj-49",
					"maxclass" : "newobj",
					"numinlets" : 1,
					"numoutlets" : 2,
					"outlettype" : [ "list", "" ],
					"patching_rect" : [ 145.5, 746.0, 77.0, 22.0 ],
					"text" : "40_Playback"
				}

			}
, 			{
				"box" : 				{
					"id" : "obj-48",
					"maxclass" : "newobj",
					"numinlets" : 2,
					"numoutlets" : 1,
					"outlettype" : [ "int" ],
					"patching_rect" : [ -303.5, 391.5, 29.5, 22.0 ],
					"text" : "+ 1"
				}

			}
, 			{
				"box" : 				{
					"id" : "obj-46",
					"maxclass" : "newobj",
					"numinlets" : 2,
					"numoutlets" : 3,
					"outlettype" : [ "", "", "" ],
					"patching_rect" : [ -170.0, 599.0, 42.0, 22.0 ],
					"text" : "gate 3"
				}

			}
, 			{
				"box" : 				{
					"id" : "obj-44",
					"maxclass" : "newobj",
					"numinlets" : 1,
					"numoutlets" : 2,
					"outlettype" : [ "list", "" ],
					"patching_rect" : [ -27.5, 746.0, 55.0, 22.0 ],
					"text" : "50_OSC"
				}

			}
, 			{
				"box" : 				{
					"id" : "obj-41",
					"maxclass" : "newobj",
					"numinlets" : 1,
					"numoutlets" : 2,
					"outlettype" : [ "list", "" ],
					"patching_rect" : [ -96.5, 746.0, 55.0, 22.0 ],
					"text" : "40_OSC"
				}

			}
, 			{
				"box" : 				{
					"id" : "obj-36",
					"items" : [ 30, "PPL", ",", 40, "PPL", ",", 50, "PPL" ],
					"maxclass" : "umenu",
					"numinlets" : 1,
					"numoutlets" : 3,
					"outlettype" : [ "int", "", "" ],
					"parameter_enable" : 0,
					"patching_rect" : [ -307.0, 350.0, 100.0, 22.0 ],
					"presentation" : 1,
					"presentation_rect" : [ 215.5, 46.0, 100.0, 22.0 ]
				}

			}
, 			{
				"box" : 				{
					"id" : "obj-35",
					"maxclass" : "message",
					"numinlets" : 2,
					"numoutlets" : 1,
					"outlettype" : [ "" ],
					"patching_rect" : [ 155.25, 25.0, 29.5, 22.0 ],
					"text" : "50"
				}

			}
, 			{
				"box" : 				{
					"id" : "obj-32",
					"maxclass" : "message",
					"numinlets" : 2,
					"numoutlets" : 1,
					"outlettype" : [ "" ],
					"patching_rect" : [ 113.25, 25.0, 29.5, 22.0 ],
					"text" : "40"
				}

			}
, 			{
				"box" : 				{
					"id" : "obj-31",
					"maxclass" : "message",
					"numinlets" : 2,
					"numoutlets" : 1,
					"outlettype" : [ "" ],
					"patching_rect" : [ 73.0, 25.0, 29.5, 22.0 ],
					"text" : "30"
				}

			}
, 			{
				"box" : 				{
					"attr" : "size",
					"id" : "obj-15",
					"maxclass" : "attrui",
					"numinlets" : 1,
					"numoutlets" : 1,
					"outlettype" : [ "" ],
					"patching_rect" : [ 84.5, 94.0, 150.0, 22.0 ]
				}

			}
, 			{
				"box" : 				{
					"id" : "obj-18",
					"maxclass" : "comment",
					"numinlets" : 1,
					"numoutlets" : 0,
					"patching_rect" : [ -233.0, 614.0, 53.0, 20.0 ],
					"presentation" : 1,
					"presentation_rect" : [ 328.0, 13.0, 53.0, 20.0 ],
					"text" : "source"
				}

			}
, 			{
				"box" : 				{
					"id" : "obj-12",
					"maxclass" : "newobj",
					"numinlets" : 1,
					"numoutlets" : 1,
					"outlettype" : [ "" ],
					"patching_rect" : [ -307.0, 603.0, 70.0, 22.0 ],
					"text" : "loadmess 0"
				}

			}
, 			{
				"box" : 				{
					"id" : "obj-27",
					"maxclass" : "newobj",
					"numinlets" : 0,
					"numoutlets" : 1,
					"outlettype" : [ "" ],
					"patching_rect" : [ 600.0, 358.0, 97.0, 22.0 ],
					"text" : "scale_prep_total"
				}

			}
, 			{
				"box" : 				{
					"id" : "obj-16",
					"maxclass" : "newobj",
					"numinlets" : 0,
					"numoutlets" : 1,
					"outlettype" : [ "" ],
					"patching_rect" : [ 863.0, 371.5, 96.0, 22.0 ],
					"text" : "r synth_volumes"
				}

			}
, 			{
				"box" : 				{
					"id" : "obj-14",
					"maxclass" : "newobj",
					"numinlets" : 1,
					"numoutlets" : 0,
					"patching_rect" : [ 306.0, 870.0, 98.0, 22.0 ],
					"text" : "s synth_volumes"
				}

			}
, 			{
				"box" : 				{
					"id" : "obj-13",
					"maxclass" : "newobj",
					"numinlets" : 0,
					"numoutlets" : 1,
					"outlettype" : [ "" ],
					"patching_rect" : [ -42.75, 172.0, 47.0, 22.0 ],
					"text" : "r graph"
				}

			}
, 			{
				"box" : 				{
					"id" : "obj-11",
					"maxclass" : "newobj",
					"numinlets" : 2,
					"numoutlets" : 1,
					"outlettype" : [ "" ],
					"patching_rect" : [ 390.0, 481.0, 57.0, 22.0 ],
					"text" : "pack 0 0."
				}

			}
, 			{
				"box" : 				{
					"id" : "obj-67",
					"maxclass" : "comment",
					"numinlets" : 1,
					"numoutlets" : 0,
					"patching_rect" : [ 396.0, 331.0, 107.0, 20.0 ],
					"presentation" : 1,
					"presentation_rect" : [ 558.0, 7.0, 107.0, 20.0 ],
					"text" : "MANUAL CTRLS"
				}

			}
, 			{
				"box" : 				{
					"id" : "obj-71",
					"maxclass" : "comment",
					"numinlets" : 1,
					"numoutlets" : 0,
					"patching_rect" : [ 471.5, 368.0, 93.0, 20.0 ],
					"presentation" : 1,
					"presentation_rect" : [ 632.5, 65.0, 93.0, 20.0 ],
					"text" : "volume ( 0.-1.)"
				}

			}
, 			{
				"box" : 				{
					"id" : "obj-54",
					"maxclass" : "comment",
					"numinlets" : 1,
					"numoutlets" : 0,
					"patching_rect" : [ 386.0, 355.0, 77.0, 20.0 ],
					"presentation" : 1,
					"presentation_rect" : [ 553.5, 65.0, 77.0, 20.0 ],
					"text" : "ID number "
				}

			}
, 			{
				"box" : 				{
					"id" : "obj-3",
					"maxclass" : "newobj",
					"numinlets" : 1,
					"numoutlets" : 2,
					"outlettype" : [ "bang", "float" ],
					"patching_rect" : [ 441.5, 432.0, 29.5, 22.0 ],
					"text" : "t b f"
				}

			}
, 			{
				"box" : 				{
					"format" : 6,
					"id" : "obj-68",
					"maxclass" : "flonum",
					"maximum" : 1.0,
					"minimum" : 0.0,
					"numinlets" : 1,
					"numoutlets" : 2,
					"outlettype" : [ "", "bang" ],
					"parameter_enable" : 0,
					"patching_rect" : [ 457.5, 397.0, 50.0, 22.0 ],
					"presentation" : 1,
					"presentation_rect" : [ 625.0, 35.5, 50.0, 22.0 ]
				}

			}
, 			{
				"box" : 				{
					"id" : "obj-62",
					"maxclass" : "number",
					"numinlets" : 1,
					"numoutlets" : 2,
					"outlettype" : [ "", "bang" ],
					"parameter_enable" : 0,
					"patching_rect" : [ 399.5, 397.0, 50.0, 22.0 ],
					"presentation" : 1,
					"presentation_rect" : [ 567.0, 35.5, 50.0, 22.0 ]
				}

			}
, 			{
				"box" : 				{
					"id" : "obj-25",
					"maxclass" : "newobj",
					"numinlets" : 1,
					"numoutlets" : 0,
					"patching_rect" : [ -87.75, 870.0, 49.0, 22.0 ],
					"text" : "s graph"
				}

			}
, 			{
				"box" : 				{
					"id" : "obj-24",
					"maxclass" : "comment",
					"numinlets" : 1,
					"numoutlets" : 0,
					"patching_rect" : [ -152.75, 824.0, 65.0, 20.0 ],
					"text" : "graph"
				}

			}
, 			{
				"box" : 				{
					"id" : "obj-8",
					"maxclass" : "newobj",
					"numinlets" : 1,
					"numoutlets" : 2,
					"outlettype" : [ "list", "" ],
					"patching_rect" : [ 322.5, 746.0, 68.0, 22.0 ],
					"text" : "30_Manual"
				}

			}
, 			{
				"box" : 				{
					"id" : "obj-43",
					"maxclass" : "newobj",
					"numinlets" : 4,
					"numoutlets" : 1,
					"outlettype" : [ "" ],
					"patching_rect" : [ 306.0, 824.0, 157.0, 22.0 ],
					"text" : "switch 3"
				}

			}
, 			{
				"box" : 				{
					"id" : "obj-42",
					"maxclass" : "newobj",
					"numinlets" : 2,
					"numoutlets" : 1,
					"outlettype" : [ "int" ],
					"patching_rect" : [ -308.0, 681.0, 29.5, 22.0 ],
					"text" : "+ 1"
				}

			}
, 			{
				"box" : 				{
					"id" : "obj-9",
					"maxclass" : "newobj",
					"numinlets" : 4,
					"numoutlets" : 1,
					"outlettype" : [ "" ],
					"patching_rect" : [ -82.75, 824.0, 258.0, 22.0 ],
					"text" : "switch 3"
				}

			}
, 			{
				"box" : 				{
					"id" : "obj-2",
					"items" : [ "OSC", ",", "TXT", "FILE", ",", "MANUAL" ],
					"maxclass" : "umenu",
					"numinlets" : 1,
					"numoutlets" : 3,
					"outlettype" : [ "int", "", "" ],
					"parameter_enable" : 0,
					"patching_rect" : [ -307.0, 640.0, 100.0, 22.0 ],
					"presentation" : 1,
					"presentation_rect" : [ 215.5, 13.0, 100.0, 22.0 ]
				}

			}
, 			{
				"box" : 				{
					"id" : "obj-10",
					"maxclass" : "comment",
					"numinlets" : 1,
					"numoutlets" : 0,
					"patching_rect" : [ 484.5, 825.0, 74.0, 20.0 ],
					"text" : "volume"
				}

			}
, 			{
				"box" : 				{
					"id" : "obj-47",
					"linecount" : 3,
					"maxclass" : "comment",
					"numinlets" : 1,
					"numoutlets" : 0,
					"patching_rect" : [ 273.0, 359.0, 43.0, 47.0 ],
					"presentation" : 1,
					"presentation_rect" : [ 396.75, 71.0, 81.0, 20.0 ],
					"text" : "reset counter"
				}

			}
, 			{
				"box" : 				{
					"id" : "obj-34",
					"maxclass" : "button",
					"numinlets" : 1,
					"numoutlets" : 1,
					"outlettype" : [ "bang" ],
					"parameter_enable" : 0,
					"patching_rect" : [ 281.0, 411.0, 24.0, 24.0 ],
					"presentation" : 1,
					"presentation_rect" : [ 485.5, 71.0, 24.0, 24.0 ]
				}

			}
, 			{
				"box" : 				{
					"id" : "obj-40",
					"maxclass" : "newobj",
					"numinlets" : 1,
					"numoutlets" : 2,
					"outlettype" : [ "list", "" ],
					"patching_rect" : [ -176.5, 746.0, 55.0, 22.0 ],
					"text" : "30_OSC"
				}

			}
, 			{
				"box" : 				{
					"id" : "obj-53",
					"maxclass" : "newobj",
					"numinlets" : 1,
					"numoutlets" : 2,
					"outlettype" : [ "list", "" ],
					"patching_rect" : [ 227.5, 746.0, 77.0, 22.0 ],
					"text" : "50_Playback"
				}

			}
, 			{
				"box" : 				{
					"id" : "obj-45",
					"maxclass" : "comment",
					"numinlets" : 1,
					"numoutlets" : 0,
					"patching_rect" : [ 167.5, 352.0, 78.0, 20.0 ],
					"presentation" : 1,
					"presentation_rect" : [ 396.75, 41.0, 78.0, 20.0 ],
					"text" : "playback"
				}

			}
, 			{
				"box" : 				{
					"id" : "obj-39",
					"maxclass" : "newobj",
					"numinlets" : 5,
					"numoutlets" : 4,
					"outlettype" : [ "int", "", "", "int" ],
					"patching_rect" : [ 137.5, 430.0, 61.0, 22.0 ],
					"text" : "counter"
				}

			}
, 			{
				"box" : 				{
					"id" : "obj-33",
					"maxclass" : "toggle",
					"numinlets" : 1,
					"numoutlets" : 1,
					"outlettype" : [ "int" ],
					"parameter_enable" : 0,
					"patching_rect" : [ 137.5, 352.0, 24.0, 24.0 ],
					"presentation" : 1,
					"presentation_rect" : [ 485.5, 41.0, 24.0, 24.0 ]
				}

			}
, 			{
				"box" : 				{
					"id" : "obj-30",
					"maxclass" : "newobj",
					"numinlets" : 2,
					"numoutlets" : 1,
					"outlettype" : [ "bang" ],
					"patching_rect" : [ 137.5, 401.0, 56.0, 22.0 ],
					"text" : "metro 33"
				}

			}
, 			{
				"box" : 				{
					"id" : "obj-7",
					"maxclass" : "message",
					"numinlets" : 2,
					"numoutlets" : 1,
					"outlettype" : [ "" ],
					"patching_rect" : [ 88.75, 430.0, 33.0, 22.0 ],
					"presentation" : 1,
					"presentation_rect" : [ 481.0, 13.0, 33.0, 22.0 ],
					"text" : "read"
				}

			}
, 			{
				"box" : 				{
					"id" : "obj-23",
					"maxclass" : "newobj",
					"numinlets" : 1,
					"numoutlets" : 4,
					"outlettype" : [ "", "", "", "" ],
					"patching_rect" : [ 145.5, 461.0, 122.0, 22.0 ],
					"saved_object_attributes" : 					{
						"embed" : 0
					}
,
					"text" : "coll 6pplHumanSynth"
				}

			}
, 			{
				"box" : 				{
					"id" : "obj-21",
					"maxclass" : "comment",
					"numinlets" : 1,
					"numoutlets" : 0,
					"patching_rect" : [ 4.5, 430.0, 81.0, 20.0 ],
					"presentation" : 1,
					"presentation_rect" : [ 396.75, 13.0, 81.0, 20.0 ],
					"text" : "upload file"
				}

			}
, 			{
				"box" : 				{
					"id" : "obj-5",
					"maxclass" : "newobj",
					"numinlets" : 1,
					"numoutlets" : 1,
					"outlettype" : [ "" ],
					"patching_rect" : [ -147.0, 419.0, 103.0, 22.0 ],
					"text" : "udpreceive 11000"
				}

			}
, 			{
				"box" : 				{
					"id" : "obj-6",
					"maxclass" : "comment",
					"numinlets" : 1,
					"numoutlets" : 0,
					"patching_rect" : [ 602.0, 595.0, 89.0, 20.0 ],
					"presentation" : 1,
					"presentation_rect" : [ 79.0, 30.5, 93.0, 20.0 ],
					"text" : "audio ON/OFF"
				}

			}
, 			{
				"box" : 				{
					"id" : "obj-4",
					"maxclass" : "toggle",
					"numinlets" : 1,
					"numoutlets" : 1,
					"outlettype" : [ "int" ],
					"parameter_enable" : 0,
					"patching_rect" : [ 699.0, 593.0, 24.0, 24.0 ],
					"presentation" : 1,
					"presentation_rect" : [ 17.0, 13.0, 55.0, 55.0 ]
				}

			}
, 			{
				"box" : 				{
					"id" : "obj-1",
					"maxclass" : "newobj",
					"numinlets" : 2,
					"numoutlets" : 0,
					"patching_rect" : [ 733.0, 637.0, 100.0, 22.0 ],
					"text" : "dac~ 3 4"
				}

			}
, 			{
				"box" : 				{
					"id" : "obj-84",
					"maxclass" : "comment",
					"numinlets" : 1,
					"numoutlets" : 0,
					"patching_rect" : [ 795.5, 440.0, 150.0, 20.0 ],
					"presentation" : 1,
					"presentation_rect" : [ 510.0, 332.0, 80.0, 20.0 ],
					"text" : "master fader "
				}

			}
, 			{
				"box" : 				{
					"fontface" : 1,
					"id" : "obj-82",
					"maxclass" : "comment",
					"numinlets" : 1,
					"numoutlets" : 0,
					"patching_rect" : [ 644.0, 137.0, 161.0, 20.0 ],
					"presentation" : 1,
					"presentation_rect" : [ 165.0, 332.0, 190.0, 20.0 ],
					"text" : "data vizualization"
				}

			}
, 			{
				"box" : 				{
					"id" : "obj-80",
					"maxclass" : "comment",
					"numinlets" : 1,
					"numoutlets" : 0,
					"patching_rect" : [ -268.75, -74.0, 68.0, 20.0 ],
					"presentation" : 1,
					"presentation_rect" : [ 28.0, 108.0, 55.0, 20.0 ],
					"text" : "mute all"
				}

			}
, 			{
				"box" : 				{
					"id" : "obj-37",
					"maxclass" : "button",
					"numinlets" : 1,
					"numoutlets" : 1,
					"outlettype" : [ "bang" ],
					"parameter_enable" : 0,
					"patching_rect" : [ -268.75, -49.0, 24.0, 24.0 ],
					"presentation" : 1,
					"presentation_rect" : [ 109.0, 108.0, 24.0, 24.0 ]
				}

			}
, 			{
				"box" : 				{
					"id" : "obj-22",
					"maxclass" : "newobj",
					"numinlets" : 1,
					"numoutlets" : 1,
					"outlettype" : [ "" ],
					"patching_rect" : [ -169.75, 226.0, 72.0, 22.0 ],
					"text" : "prepend set"
				}

			}
, 			{
				"box" : 				{
					"candycane" : 23,
					"id" : "obj-19",
					"maxclass" : "multislider",
					"numinlets" : 1,
					"numoutlets" : 2,
					"outlettype" : [ "", "" ],
					"parameter_enable" : 1,
					"parameter_mappable" : 0,
					"patching_rect" : [ 84.5, 126.0, 554.0, 174.0 ],
					"presentation" : 1,
					"presentation_rect" : [ 17.0, 143.0, 497.0, 182.0 ],
					"saved_attribute_attributes" : 					{
						"valueof" : 						{
							"parameter_shortname" : "multislider",
							"parameter_type" : 3,
							"parameter_longname" : "multislider",
							"parameter_invisible" : 1
						}

					}
,
					"setminmax" : [ 0.0, 1.0 ],
					"setstyle" : 1,
					"size" : 30,
					"spacing" : 8,
					"style" : "chiba",
					"varname" : "multislider"
				}

			}
, 			{
				"box" : 				{
					"id" : "obj-66",
					"maxclass" : "newobj",
					"numinlets" : 2,
					"numoutlets" : 1,
					"outlettype" : [ "" ],
					"patching_rect" : [ -169.75, 172.0, 115.0, 22.0 ],
					"text" : "pack 0 0."
				}

			}
, 			{
				"box" : 				{
					"id" : "obj-17",
					"maxclass" : "comment",
					"numinlets" : 1,
					"numoutlets" : 0,
					"patching_rect" : [ 863.0, 349.5, 74.0, 20.0 ],
					"text" : "volume"
				}

			}
, 			{
				"box" : 				{
					"id" : "obj-74",
					"interp" : 1029.0,
					"interpinlet" : 1,
					"maxclass" : "gain~",
					"multichannelvariant" : 0,
					"numinlets" : 2,
					"numoutlets" : 2,
					"outlettype" : [ "signal", "" ],
					"parameter_enable" : 0,
					"patching_rect" : [ 756.0, 447.0, 37.0, 141.0 ],
					"presentation" : 1,
					"presentation_rect" : [ 527.0, 143.0, 35.0, 182.0 ]
				}

			}
, 			{
				"box" : 				{
					"id" : "obj-75",
					"maxclass" : "meter~",
					"numinlets" : 1,
					"numoutlets" : 1,
					"outlettype" : [ "float" ],
					"patching_rect" : [ 693.0, 450.0, 17.0, 141.0 ],
					"presentation" : 1,
					"presentation_rect" : [ 567.0, 143.0, 17.0, 182.0 ]
				}

			}
, 			{
				"box" : 				{
					"fontname" : "Arial",
					"fontsize" : 12.0,
					"id" : "obj-63",
					"maxclass" : "newobj",
					"numinlets" : 2,
					"numoutlets" : 30,
					"outlettype" : [ "signal", "signal", "signal", "signal", "signal", "signal", "signal", "signal", "signal", "signal", "signal", "signal", "signal", "signal", "signal", "signal", "signal", "signal", "signal", "signal", "signal", "signal", "signal", "signal", "signal", "signal", "signal", "signal", "signal", "signal" ],
					"patching_rect" : [ 721.0, 411.0, 323.5, 22.0 ],
					"text" : "poly~ synth_SF_5 30 @steal 1"
				}

			}
 ],
		"lines" : [ 			{
				"patchline" : 				{
					"destination" : [ "obj-63", 0 ],
					"midpoints" : [ 905.75, 336.0, 730.5, 336.0 ],
					"source" : [ "obj-100", 0 ]
				}

			}
, 			{
				"patchline" : 				{
					"destination" : [ "obj-63", 0 ],
					"midpoints" : [ 834.75, 396.0, 730.5, 396.0 ],
					"source" : [ "obj-101", 0 ]
				}

			}
, 			{
				"patchline" : 				{
					"destination" : [ "obj-63", 0 ],
					"midpoints" : [ 765.5, 396.0, 730.5, 396.0 ],
					"source" : [ "obj-102", 0 ]
				}

			}
, 			{
				"patchline" : 				{
					"destination" : [ "obj-36", 0 ],
					"midpoints" : [ -297.5, 345.0, -297.5, 345.0 ],
					"source" : [ "obj-103", 0 ]
				}

			}
, 			{
				"patchline" : 				{
					"destination" : [ "obj-57", 1 ],
					"midpoints" : [ 399.5, 546.0, 462.0, 546.0 ],
					"source" : [ "obj-11", 0 ]
				}

			}
, 			{
				"patchline" : 				{
					"destination" : [ "obj-2", 0 ],
					"midpoints" : [ -297.5, 627.0, -297.5, 627.0 ],
					"source" : [ "obj-12", 0 ]
				}

			}
, 			{
				"patchline" : 				{
					"destination" : [ "obj-22", 0 ],
					"midpoints" : [ -33.25, 196.0, -155.0, 196.0, -155.0, 220.0, -160.25, 220.0 ],
					"source" : [ "obj-13", 0 ]
				}

			}
, 			{
				"patchline" : 				{
					"destination" : [ "obj-19", 0 ],
					"midpoints" : [ 94.0, 117.0, 94.0, 117.0 ],
					"source" : [ "obj-15", 0 ]
				}

			}
, 			{
				"patchline" : 				{
					"destination" : [ "obj-63", 1 ],
					"midpoints" : [ 872.5, 396.0, 1035.0, 396.0 ],
					"source" : [ "obj-16", 0 ]
				}

			}
, 			{
				"patchline" : 				{
					"destination" : [ "obj-42", 0 ],
					"midpoints" : [ -297.5, 663.0, -298.5, 663.0 ],
					"source" : [ "obj-2", 0 ]
				}

			}
, 			{
				"patchline" : 				{
					"destination" : [ "obj-19", 0 ],
					"midpoints" : [ -160.25, 228.0, 69.0, 228.0, 69.0, 120.0, 94.0, 120.0 ],
					"source" : [ "obj-22", 0 ]
				}

			}
, 			{
				"patchline" : 				{
					"destination" : [ "obj-51", 1 ],
					"midpoints" : [ 155.0, 546.0, 176.5, 546.0 ],
					"source" : [ "obj-23", 0 ]
				}

			}
, 			{
				"patchline" : 				{
					"destination" : [ "obj-63", 0 ],
					"midpoints" : [ 609.5, 396.0, 730.5, 396.0 ],
					"source" : [ "obj-27", 0 ]
				}

			}
, 			{
				"patchline" : 				{
					"destination" : [ "obj-11", 1 ],
					"midpoints" : [ 461.5, 468.0, 437.5, 468.0 ],
					"source" : [ "obj-3", 1 ]
				}

			}
, 			{
				"patchline" : 				{
					"destination" : [ "obj-11", 0 ],
					"midpoints" : [ 451.0, 468.0, 399.5, 468.0 ],
					"source" : [ "obj-3", 0 ]
				}

			}
, 			{
				"patchline" : 				{
					"destination" : [ "obj-39", 0 ],
					"midpoints" : [ 147.0, 426.0, 147.0, 426.0 ],
					"source" : [ "obj-30", 0 ]
				}

			}
, 			{
				"patchline" : 				{
					"destination" : [ "obj-15", 0 ],
					"midpoints" : [ 82.5, 81.0, 94.0, 81.0 ],
					"source" : [ "obj-31", 0 ]
				}

			}
, 			{
				"patchline" : 				{
					"destination" : [ "obj-15", 0 ],
					"midpoints" : [ 122.75, 81.0, 94.0, 81.0 ],
					"source" : [ "obj-32", 0 ]
				}

			}
, 			{
				"patchline" : 				{
					"destination" : [ "obj-30", 0 ],
					"midpoints" : [ 147.0, 378.0, 147.0, 378.0 ],
					"source" : [ "obj-33", 0 ]
				}

			}
, 			{
				"patchline" : 				{
					"destination" : [ "obj-39", 3 ],
					"midpoints" : [ 290.5, 438.0, 210.0, 438.0, 210.0, 426.0, 178.5, 426.0 ],
					"source" : [ "obj-34", 0 ]
				}

			}
, 			{
				"patchline" : 				{
					"destination" : [ "obj-15", 0 ],
					"midpoints" : [ 164.75, 81.0, 94.0, 81.0 ],
					"source" : [ "obj-35", 0 ]
				}

			}
, 			{
				"patchline" : 				{
					"destination" : [ "obj-48", 0 ],
					"midpoints" : [ -297.5, 387.0, -294.0, 387.0 ],
					"source" : [ "obj-36", 0 ]
				}

			}
, 			{
				"patchline" : 				{
					"destination" : [ "obj-64", 1 ],
					"midpoints" : [ -259.25, -6.0, -152.25, -6.0 ],
					"source" : [ "obj-37", 0 ]
				}

			}
, 			{
				"patchline" : 				{
					"destination" : [ "obj-23", 0 ],
					"midpoints" : [ 147.0, 453.0, 155.0, 453.0 ],
					"source" : [ "obj-39", 0 ]
				}

			}
, 			{
				"patchline" : 				{
					"destination" : [ "obj-1", 0 ],
					"midpoints" : [ 708.5, 633.0, 742.5, 633.0 ],
					"source" : [ "obj-4", 0 ]
				}

			}
, 			{
				"patchline" : 				{
					"destination" : [ "obj-43", 1 ],
					"midpoints" : [ -131.0, 771.0, 0.0, 771.0, 0.0, 810.0, 361.5, 810.0 ],
					"source" : [ "obj-40", 1 ]
				}

			}
, 			{
				"patchline" : 				{
					"destination" : [ "obj-9", 1 ],
					"midpoints" : [ -167.0, 771.0, 0.0, 771.0, 0.0, 810.0, 6.416666666666671, 810.0 ],
					"source" : [ "obj-40", 0 ]
				}

			}
, 			{
				"patchline" : 				{
					"destination" : [ "obj-43", 1 ],
					"midpoints" : [ -51.0, 771.0, 0.0, 771.0, 0.0, 810.0, 361.5, 810.0 ],
					"source" : [ "obj-41", 1 ]
				}

			}
, 			{
				"patchline" : 				{
					"destination" : [ "obj-9", 1 ],
					"midpoints" : [ -87.0, 771.0, 0.0, 771.0, 0.0, 810.0, 6.416666666666671, 810.0 ],
					"source" : [ "obj-41", 0 ]
				}

			}
, 			{
				"patchline" : 				{
					"destination" : [ "obj-107", 0 ],
					"midpoints" : [ -298.5, 705.0, -261.0, 705.0, -261.0, 675.0, -259.5, 675.0 ],
					"order" : 2,
					"source" : [ "obj-42", 0 ]
				}

			}
, 			{
				"patchline" : 				{
					"destination" : [ "obj-43", 0 ],
					"midpoints" : [ -298.5, 705.0, 51.0, 705.0, 51.0, 810.0, 315.5, 810.0 ],
					"order" : 0,
					"source" : [ "obj-42", 0 ]
				}

			}
, 			{
				"patchline" : 				{
					"destination" : [ "obj-9", 0 ],
					"midpoints" : [ -298.5, 819.0, -73.25, 819.0 ],
					"order" : 1,
					"source" : [ "obj-42", 0 ]
				}

			}
, 			{
				"patchline" : 				{
					"destination" : [ "obj-14", 0 ],
					"midpoints" : [ 315.5, 849.0, 315.5, 849.0 ],
					"source" : [ "obj-43", 0 ]
				}

			}
, 			{
				"patchline" : 				{
					"destination" : [ "obj-43", 1 ],
					"midpoints" : [ 18.0, 810.0, 361.5, 810.0 ],
					"source" : [ "obj-44", 1 ]
				}

			}
, 			{
				"patchline" : 				{
					"destination" : [ "obj-9", 1 ],
					"midpoints" : [ -18.0, 771.0, 0.0, 771.0, 0.0, 810.0, 6.416666666666671, 810.0 ],
					"source" : [ "obj-44", 0 ]
				}

			}
, 			{
				"patchline" : 				{
					"destination" : [ "obj-40", 0 ],
					"midpoints" : [ -160.5, 624.0, -167.0, 624.0 ],
					"source" : [ "obj-46", 0 ]
				}

			}
, 			{
				"patchline" : 				{
					"destination" : [ "obj-41", 0 ],
					"midpoints" : [ -149.0, 738.0, -87.0, 738.0 ],
					"source" : [ "obj-46", 1 ]
				}

			}
, 			{
				"patchline" : 				{
					"destination" : [ "obj-44", 0 ],
					"midpoints" : [ -137.5, 624.0, 0.0, 624.0, 0.0, 741.0, -18.0, 741.0 ],
					"source" : [ "obj-46", 2 ]
				}

			}
, 			{
				"patchline" : 				{
					"destination" : [ "obj-58", 0 ],
					"midpoints" : [ -294.0, 414.0, -294.0, 414.0 ],
					"order" : 3,
					"source" : [ "obj-48", 0 ]
				}

			}
, 			{
				"patchline" : 				{
					"destination" : [ "obj-89", 0 ],
					"midpoints" : [ -294.0, 555.0, -160.5, 555.0 ],
					"order" : 2,
					"source" : [ "obj-48", 0 ]
				}

			}
, 			{
				"patchline" : 				{
					"destination" : [ "obj-90", 0 ],
					"midpoints" : [ -294.0, 414.0, 123.0, 414.0, 123.0, 546.0, 143.0, 546.0 ],
					"order" : 1,
					"source" : [ "obj-48", 0 ]
				}

			}
, 			{
				"patchline" : 				{
					"destination" : [ "obj-91", 0 ],
					"midpoints" : [ -294.0, 414.0, 123.0, 414.0, 123.0, 546.0, 428.5, 546.0 ],
					"order" : 0,
					"source" : [ "obj-48", 0 ]
				}

			}
, 			{
				"patchline" : 				{
					"destination" : [ "obj-43", 2 ],
					"midpoints" : [ 213.0, 810.0, 407.5, 810.0 ],
					"source" : [ "obj-49", 1 ]
				}

			}
, 			{
				"patchline" : 				{
					"destination" : [ "obj-9", 2 ],
					"midpoints" : [ 155.0, 810.0, 86.083333333333343, 810.0 ],
					"source" : [ "obj-49", 0 ]
				}

			}
, 			{
				"patchline" : 				{
					"destination" : [ "obj-46", 1 ],
					"midpoints" : [ -137.5, 444.0, -137.5, 444.0 ],
					"source" : [ "obj-5", 0 ]
				}

			}
, 			{
				"patchline" : 				{
					"destination" : [ "obj-43", 2 ],
					"midpoints" : [ 133.5, 810.0, 407.5, 810.0 ],
					"source" : [ "obj-50", 1 ]
				}

			}
, 			{
				"patchline" : 				{
					"destination" : [ "obj-9", 2 ],
					"midpoints" : [ 75.5, 810.0, 86.083333333333343, 810.0 ],
					"source" : [ "obj-50", 0 ]
				}

			}
, 			{
				"patchline" : 				{
					"destination" : [ "obj-49", 0 ],
					"midpoints" : [ 165.0, 732.0, 155.0, 732.0 ],
					"source" : [ "obj-51", 1 ]
				}

			}
, 			{
				"patchline" : 				{
					"destination" : [ "obj-50", 0 ],
					"midpoints" : [ 153.5, 732.0, 75.5, 732.0 ],
					"source" : [ "obj-51", 0 ]
				}

			}
, 			{
				"patchline" : 				{
					"destination" : [ "obj-53", 0 ],
					"midpoints" : [ 176.5, 732.0, 237.0, 732.0 ],
					"source" : [ "obj-51", 2 ]
				}

			}
, 			{
				"patchline" : 				{
					"destination" : [ "obj-43", 3 ],
					"midpoints" : [ 463.5, 810.0, 453.5, 810.0 ],
					"source" : [ "obj-52", 1 ]
				}

			}
, 			{
				"patchline" : 				{
					"destination" : [ "obj-9", 3 ],
					"midpoints" : [ 414.5, 810.0, 165.75, 810.0 ],
					"source" : [ "obj-52", 0 ]
				}

			}
, 			{
				"patchline" : 				{
					"destination" : [ "obj-43", 2 ],
					"midpoints" : [ 295.0, 810.0, 407.5, 810.0 ],
					"source" : [ "obj-53", 1 ]
				}

			}
, 			{
				"patchline" : 				{
					"destination" : [ "obj-9", 2 ],
					"midpoints" : [ 237.0, 810.0, 86.083333333333343, 810.0 ],
					"source" : [ "obj-53", 0 ]
				}

			}
, 			{
				"patchline" : 				{
					"destination" : [ "obj-43", 3 ],
					"midpoints" : [ 543.0, 810.0, 453.5, 810.0 ],
					"source" : [ "obj-55", 1 ]
				}

			}
, 			{
				"patchline" : 				{
					"destination" : [ "obj-9", 3 ],
					"midpoints" : [ 494.0, 810.0, 165.75, 810.0 ],
					"source" : [ "obj-55", 0 ]
				}

			}
, 			{
				"patchline" : 				{
					"destination" : [ "obj-52", 0 ],
					"midpoints" : [ 450.5, 732.0, 414.5, 732.0 ],
					"source" : [ "obj-57", 1 ]
				}

			}
, 			{
				"patchline" : 				{
					"destination" : [ "obj-55", 0 ],
					"midpoints" : [ 462.0, 732.0, 494.0, 732.0 ],
					"source" : [ "obj-57", 2 ]
				}

			}
, 			{
				"patchline" : 				{
					"destination" : [ "obj-8", 0 ],
					"midpoints" : [ 439.0, 732.0, 332.0, 732.0 ],
					"source" : [ "obj-57", 0 ]
				}

			}
, 			{
				"patchline" : 				{
					"destination" : [ "obj-88", 0 ],
					"midpoints" : [ 115.5, -54.0, 115.5, -54.0 ],
					"source" : [ "obj-59", 0 ]
				}

			}
, 			{
				"patchline" : 				{
					"destination" : [ "obj-66", 1 ],
					"midpoints" : [ -164.75, 117.0, -64.25, 117.0 ],
					"source" : [ "obj-61", 4 ]
				}

			}
, 			{
				"patchline" : 				{
					"destination" : [ "obj-66", 0 ],
					"midpoints" : [ -175.25, 134.0, -160.25, 134.0 ],
					"source" : [ "obj-61", 3 ]
				}

			}
, 			{
				"patchline" : 				{
					"destination" : [ "obj-69", 0 ],
					"source" : [ "obj-61", 2 ]
				}

			}
, 			{
				"patchline" : 				{
					"destination" : [ "obj-93", 0 ],
					"midpoints" : [ -196.25, 140.0, -279.0, 140.0, -279.0, 237.0, -283.5, 237.0 ],
					"source" : [ "obj-61", 1 ]
				}

			}
, 			{
				"patchline" : 				{
					"destination" : [ "obj-11", 0 ],
					"midpoints" : [ 409.0, 468.0, 399.5, 468.0 ],
					"source" : [ "obj-62", 0 ]
				}

			}
, 			{
				"patchline" : 				{
					"destination" : [ "obj-28", 0 ],
					"order" : 0,
					"source" : [ "obj-63", 0 ]
				}

			}
, 			{
				"patchline" : 				{
					"destination" : [ "obj-29", 0 ],
					"source" : [ "obj-63", 1 ]
				}

			}
, 			{
				"patchline" : 				{
					"destination" : [ "obj-38", 0 ],
					"source" : [ "obj-63", 2 ]
				}

			}
, 			{
				"patchline" : 				{
					"destination" : [ "obj-60", 0 ],
					"source" : [ "obj-63", 3 ]
				}

			}
, 			{
				"patchline" : 				{
					"destination" : [ "obj-73", 0 ],
					"source" : [ "obj-63", 4 ]
				}

			}
, 			{
				"patchline" : 				{
					"destination" : [ "obj-74", 0 ],
					"midpoints" : [ 730.5, 441.0, 765.5, 441.0 ],
					"order" : 1,
					"source" : [ "obj-63", 0 ]
				}

			}
, 			{
				"patchline" : 				{
					"destination" : [ "obj-77", 0 ],
					"source" : [ "obj-63", 8 ]
				}

			}
, 			{
				"patchline" : 				{
					"destination" : [ "obj-78", 0 ],
					"source" : [ "obj-63", 7 ]
				}

			}
, 			{
				"patchline" : 				{
					"destination" : [ "obj-79", 0 ],
					"source" : [ "obj-63", 6 ]
				}

			}
, 			{
				"patchline" : 				{
					"destination" : [ "obj-81", 0 ],
					"source" : [ "obj-63", 5 ]
				}

			}
, 			{
				"patchline" : 				{
					"destination" : [ "obj-61", 2 ],
					"midpoints" : [ -152.25, 87.0, -164.75, 87.0 ],
					"source" : [ "obj-64", 2 ]
				}

			}
, 			{
				"patchline" : 				{
					"destination" : [ "obj-61", 1 ],
					"midpoints" : [ -163.75, 90.0, -185.75, 90.0 ],
					"source" : [ "obj-64", 1 ]
				}

			}
, 			{
				"patchline" : 				{
					"destination" : [ "obj-61", 0 ],
					"midpoints" : [ -175.25, 24.0, -201.0, 24.0, -201.0, 90.0, -206.75, 90.0 ],
					"source" : [ "obj-64", 0 ]
				}

			}
, 			{
				"patchline" : 				{
					"destination" : [ "obj-92", 0 ],
					"midpoints" : [ -170.25, -54.0, -170.25, -54.0 ],
					"source" : [ "obj-65", 0 ]
				}

			}
, 			{
				"patchline" : 				{
					"destination" : [ "obj-22", 0 ],
					"midpoints" : [ -160.25, 196.0, -160.25, 196.0 ],
					"source" : [ "obj-66", 0 ]
				}

			}
, 			{
				"patchline" : 				{
					"destination" : [ "obj-3", 0 ],
					"midpoints" : [ 467.0, 420.0, 453.0, 420.0, 453.0, 426.0, 451.0, 426.0 ],
					"source" : [ "obj-68", 0 ]
				}

			}
, 			{
				"patchline" : 				{
					"destination" : [ "obj-23", 0 ],
					"midpoints" : [ 98.25, 453.0, 155.0, 453.0 ],
					"source" : [ "obj-7", 0 ]
				}

			}
, 			{
				"patchline" : 				{
					"destination" : [ "obj-52", 0 ],
					"order" : 1,
					"source" : [ "obj-70", 0 ]
				}

			}
, 			{
				"patchline" : 				{
					"destination" : [ "obj-55", 0 ],
					"order" : 0,
					"source" : [ "obj-70", 0 ]
				}

			}
, 			{
				"patchline" : 				{
					"destination" : [ "obj-8", 0 ],
					"order" : 2,
					"source" : [ "obj-70", 0 ]
				}

			}
, 			{
				"patchline" : 				{
					"destination" : [ "obj-31", 0 ],
					"midpoints" : [ 94.0, 15.0, 84.0, 15.0, 84.0, 21.0, 82.5, 21.0 ],
					"source" : [ "obj-72", 0 ]
				}

			}
, 			{
				"patchline" : 				{
					"destination" : [ "obj-32", 0 ],
					"midpoints" : [ 126.5, 15.0, 122.75, 15.0 ],
					"source" : [ "obj-72", 1 ]
				}

			}
, 			{
				"patchline" : 				{
					"destination" : [ "obj-35", 0 ],
					"midpoints" : [ 159.0, 21.0, 164.75, 21.0 ],
					"source" : [ "obj-72", 2 ]
				}

			}
, 			{
				"patchline" : 				{
					"destination" : [ "obj-1", 1 ],
					"midpoints" : [ 765.5, 624.0, 823.5, 624.0 ],
					"order" : 0,
					"source" : [ "obj-74", 0 ]
				}

			}
, 			{
				"patchline" : 				{
					"destination" : [ "obj-1", 0 ],
					"midpoints" : [ 765.5, 624.0, 742.5, 624.0 ],
					"order" : 1,
					"source" : [ "obj-74", 0 ]
				}

			}
, 			{
				"patchline" : 				{
					"destination" : [ "obj-75", 0 ],
					"midpoints" : [ 765.5, 591.0, 750.0, 591.0, 750.0, 441.0, 702.5, 441.0 ],
					"order" : 2,
					"source" : [ "obj-74", 0 ]
				}

			}
, 			{
				"patchline" : 				{
					"destination" : [ "obj-43", 3 ],
					"midpoints" : [ 381.0, 810.0, 453.5, 810.0 ],
					"source" : [ "obj-8", 1 ]
				}

			}
, 			{
				"patchline" : 				{
					"destination" : [ "obj-9", 3 ],
					"midpoints" : [ 332.0, 810.0, 165.75, 810.0 ],
					"source" : [ "obj-8", 0 ]
				}

			}
, 			{
				"patchline" : 				{
					"destination" : [ "obj-72", 0 ],
					"midpoints" : [ 126.0, -24.0, 96.0, -24.0, 96.0, -12.0, 94.0, -12.0 ],
					"source" : [ "obj-88", 1 ]
				}

			}
, 			{
				"patchline" : 				{
					"destination" : [ "obj-72", 1 ],
					"midpoints" : [ 115.5, -12.0, 159.0, -12.0 ],
					"source" : [ "obj-88", 0 ]
				}

			}
, 			{
				"patchline" : 				{
					"destination" : [ "obj-46", 0 ],
					"midpoints" : [ -150.0, 582.0, -156.0, 582.0, -156.0, 594.0, -160.5, 594.0 ],
					"source" : [ "obj-89", 1 ]
				}

			}
, 			{
				"patchline" : 				{
					"destination" : [ "obj-46", 1 ],
					"midpoints" : [ -160.5, 591.0, -137.5, 591.0 ],
					"source" : [ "obj-89", 0 ]
				}

			}
, 			{
				"patchline" : 				{
					"destination" : [ "obj-25", 0 ],
					"midpoints" : [ -73.25, 849.0, -78.25, 849.0 ],
					"source" : [ "obj-9", 0 ]
				}

			}
, 			{
				"patchline" : 				{
					"destination" : [ "obj-51", 0 ],
					"midpoints" : [ 153.5, 582.0, 153.5, 582.0 ],
					"source" : [ "obj-90", 1 ]
				}

			}
, 			{
				"patchline" : 				{
					"destination" : [ "obj-51", 1 ],
					"midpoints" : [ 143.0, 582.0, 176.5, 582.0 ],
					"source" : [ "obj-90", 0 ]
				}

			}
, 			{
				"patchline" : 				{
					"destination" : [ "obj-57", 0 ],
					"midpoints" : [ 439.0, 582.0, 439.0, 582.0 ],
					"source" : [ "obj-91", 1 ]
				}

			}
, 			{
				"patchline" : 				{
					"destination" : [ "obj-57", 1 ],
					"midpoints" : [ 428.5, 582.0, 462.0, 582.0 ],
					"source" : [ "obj-91", 0 ]
				}

			}
, 			{
				"patchline" : 				{
					"destination" : [ "obj-64", 0 ],
					"midpoints" : [ -159.75, -12.0, -175.25, -12.0 ],
					"source" : [ "obj-92", 1 ]
				}

			}
, 			{
				"patchline" : 				{
					"destination" : [ "obj-64", 1 ],
					"midpoints" : [ -170.25, -6.0, -152.25, -6.0 ],
					"source" : [ "obj-92", 0 ]
				}

			}
, 			{
				"patchline" : 				{
					"destination" : [ "obj-49", 0 ],
					"midpoints" : [ 205.0, 732.0, 155.0, 732.0 ],
					"order" : 1,
					"source" : [ "obj-95", 0 ]
				}

			}
, 			{
				"patchline" : 				{
					"destination" : [ "obj-50", 0 ],
					"midpoints" : [ 205.0, 732.0, 75.5, 732.0 ],
					"order" : 2,
					"source" : [ "obj-95", 0 ]
				}

			}
, 			{
				"patchline" : 				{
					"destination" : [ "obj-53", 0 ],
					"midpoints" : [ 205.0, 732.0, 237.0, 732.0 ],
					"order" : 0,
					"source" : [ "obj-95", 0 ]
				}

			}
, 			{
				"patchline" : 				{
					"destination" : [ "obj-98", 0 ],
					"midpoints" : [ 867.0, 201.0, 835.0, 201.0 ],
					"source" : [ "obj-97", 1 ]
				}

			}
, 			{
				"patchline" : 				{
					"destination" : [ "obj-98", 1 ],
					"midpoints" : [ 856.5, 201.0, 900.0, 201.0 ],
					"source" : [ "obj-97", 0 ]
				}

			}
, 			{
				"patchline" : 				{
					"destination" : [ "obj-100", 0 ],
					"midpoints" : [ 900.0, 246.0, 905.75, 246.0 ],
					"source" : [ "obj-98", 2 ]
				}

			}
, 			{
				"patchline" : 				{
					"destination" : [ "obj-101", 0 ],
					"midpoints" : [ 867.5, 240.0, 837.0, 240.0, 837.0, 246.0, 834.75, 246.0 ],
					"source" : [ "obj-98", 1 ]
				}

			}
, 			{
				"patchline" : 				{
					"destination" : [ "obj-102", 0 ],
					"midpoints" : [ 835.0, 240.0, 768.0, 240.0, 768.0, 246.0, 765.5, 246.0 ],
					"source" : [ "obj-98", 0 ]
				}

			}
, 			{
				"patchline" : 				{
					"destination" : [ "obj-97", 0 ],
					"midpoints" : [ 856.5, 171.0, 856.5, 171.0 ],
					"source" : [ "obj-99", 0 ]
				}

			}
 ],
		"parameters" : 		{
			"obj-63.8::obj-2" : [ "live.gain~[9]", "live.gain~", 0 ],
			"obj-63.21::obj-2" : [ "live.gain~[22]", "live.gain~", 0 ],
			"obj-63.13::obj-2" : [ "live.gain~[14]", "live.gain~", 0 ],
			"obj-63.26::obj-2" : [ "live.gain~[27]", "live.gain~", 0 ],
			"obj-63.2::obj-2" : [ "live.gain~[3]", "live.gain~", 0 ],
			"obj-63.18::obj-2" : [ "live.gain~[19]", "live.gain~", 0 ],
			"obj-19" : [ "multislider", "multislider", 0 ],
			"obj-63.7::obj-2" : [ "live.gain~[8]", "live.gain~", 0 ],
			"obj-63.12::obj-2" : [ "live.gain~[13]", "live.gain~", 0 ],
			"obj-63.25::obj-2" : [ "live.gain~[26]", "live.gain~", 0 ],
			"obj-63.1::obj-2" : [ "live.gain~[51]", "live.gain~", 0 ],
			"obj-63.17::obj-2" : [ "live.gain~[18]", "live.gain~", 0 ],
			"obj-63.29::obj-2" : [ "live.gain~[30]", "live.gain~", 0 ],
			"obj-63.6::obj-2" : [ "live.gain~[7]", "live.gain~", 0 ],
			"obj-63.11::obj-2" : [ "live.gain~[12]", "live.gain~", 0 ],
			"obj-63.24::obj-2" : [ "live.gain~[25]", "live.gain~", 0 ],
			"obj-63.16::obj-2" : [ "live.gain~[17]", "live.gain~", 0 ],
			"obj-63.28::obj-2" : [ "live.gain~[29]", "live.gain~", 0 ],
			"obj-63.5::obj-2" : [ "live.gain~[6]", "live.gain~", 0 ],
			"obj-63.10::obj-2" : [ "live.gain~[11]", "live.gain~", 0 ],
			"obj-63.23::obj-2" : [ "live.gain~[24]", "live.gain~", 0 ],
			"obj-63.15::obj-2" : [ "live.gain~[16]", "live.gain~", 0 ],
			"obj-63.27::obj-2" : [ "live.gain~[28]", "live.gain~", 0 ],
			"obj-63.4::obj-2" : [ "live.gain~[5]", "live.gain~", 0 ],
			"obj-63.20::obj-2" : [ "live.gain~[21]", "live.gain~", 0 ],
			"obj-63.9::obj-2" : [ "live.gain~[10]", "live.gain~", 0 ],
			"obj-63.22::obj-2" : [ "live.gain~[23]", "live.gain~", 0 ],
			"obj-63.14::obj-2" : [ "live.gain~[15]", "live.gain~", 0 ],
			"obj-63.3::obj-2" : [ "live.gain~[4]", "live.gain~", 0 ],
			"obj-63.19::obj-2" : [ "live.gain~[20]", "live.gain~", 0 ],
			"obj-63.30::obj-2" : [ "live.gain~[31]", "live.gain~", 0 ],
			"parameterbanks" : 			{

			}
,
			"parameter_overrides" : 			{
				"obj-63.8::obj-2" : 				{
					"parameter_longname" : "live.gain~[9]"
				}
,
				"obj-63.21::obj-2" : 				{
					"parameter_longname" : "live.gain~[22]"
				}
,
				"obj-63.13::obj-2" : 				{
					"parameter_longname" : "live.gain~[14]"
				}
,
				"obj-63.26::obj-2" : 				{
					"parameter_longname" : "live.gain~[27]"
				}
,
				"obj-63.2::obj-2" : 				{
					"parameter_longname" : "live.gain~[3]"
				}
,
				"obj-63.18::obj-2" : 				{
					"parameter_longname" : "live.gain~[19]"
				}
,
				"obj-63.7::obj-2" : 				{
					"parameter_longname" : "live.gain~[8]"
				}
,
				"obj-63.12::obj-2" : 				{
					"parameter_longname" : "live.gain~[13]"
				}
,
				"obj-63.25::obj-2" : 				{
					"parameter_longname" : "live.gain~[26]"
				}
,
				"obj-63.1::obj-2" : 				{
					"parameter_longname" : "live.gain~[51]"
				}
,
				"obj-63.17::obj-2" : 				{
					"parameter_longname" : "live.gain~[18]"
				}
,
				"obj-63.29::obj-2" : 				{
					"parameter_longname" : "live.gain~[30]"
				}
,
				"obj-63.6::obj-2" : 				{
					"parameter_longname" : "live.gain~[7]"
				}
,
				"obj-63.11::obj-2" : 				{
					"parameter_longname" : "live.gain~[12]"
				}
,
				"obj-63.24::obj-2" : 				{
					"parameter_longname" : "live.gain~[25]"
				}
,
				"obj-63.16::obj-2" : 				{
					"parameter_longname" : "live.gain~[17]"
				}
,
				"obj-63.28::obj-2" : 				{
					"parameter_longname" : "live.gain~[29]"
				}
,
				"obj-63.5::obj-2" : 				{
					"parameter_longname" : "live.gain~[6]"
				}
,
				"obj-63.10::obj-2" : 				{
					"parameter_longname" : "live.gain~[11]"
				}
,
				"obj-63.23::obj-2" : 				{
					"parameter_longname" : "live.gain~[24]"
				}
,
				"obj-63.15::obj-2" : 				{
					"parameter_longname" : "live.gain~[16]"
				}
,
				"obj-63.27::obj-2" : 				{
					"parameter_longname" : "live.gain~[28]"
				}
,
				"obj-63.4::obj-2" : 				{
					"parameter_longname" : "live.gain~[5]"
				}
,
				"obj-63.20::obj-2" : 				{
					"parameter_longname" : "live.gain~[21]"
				}
,
				"obj-63.9::obj-2" : 				{
					"parameter_longname" : "live.gain~[10]"
				}
,
				"obj-63.22::obj-2" : 				{
					"parameter_longname" : "live.gain~[23]"
				}
,
				"obj-63.14::obj-2" : 				{
					"parameter_longname" : "live.gain~[15]"
				}
,
				"obj-63.3::obj-2" : 				{
					"parameter_longname" : "live.gain~[4]"
				}
,
				"obj-63.19::obj-2" : 				{
					"parameter_longname" : "live.gain~[20]"
				}
,
				"obj-63.30::obj-2" : 				{
					"parameter_longname" : "live.gain~[31]"
				}

			}

		}
,
		"dependency_cache" : [ 			{
				"name" : "synth_SF_5.maxpat",
				"bootpath" : "~/Nextcloud/Technik/Sound/Batti/MaxMSP",
				"patcherrelativepath" : ".",
				"type" : "JSON",
				"implicit" : 1
			}
, 			{
				"name" : "50_Playback.maxpat",
				"bootpath" : "~/Nextcloud/Technik/Sound/Batti/MaxMSP/subpatches/SubPacthes_Synth",
				"patcherrelativepath" : "./subpatches/SubPacthes_Synth",
				"type" : "JSON",
				"implicit" : 1
			}
, 			{
				"name" : "target_50.maxpat",
				"bootpath" : "~/Nextcloud/Technik/Sound/Batti/MaxMSP/subpatches/SubPacthes_Synth",
				"patcherrelativepath" : "./subpatches/SubPacthes_Synth",
				"type" : "JSON",
				"implicit" : 1
			}
, 			{
				"name" : "30_OSC.maxpat",
				"bootpath" : "~/Nextcloud/Technik/Sound/Batti/MaxMSP/subpatches/SubPacthes_Synth",
				"patcherrelativepath" : "./subpatches/SubPacthes_Synth",
				"type" : "JSON",
				"implicit" : 1
			}
, 			{
				"name" : "target_30.maxpat",
				"bootpath" : "~/Nextcloud/Technik/Sound/Batti/MaxMSP/subpatches/SubPacthes_Synth",
				"patcherrelativepath" : "./subpatches/SubPacthes_Synth",
				"type" : "JSON",
				"implicit" : 1
			}
, 			{
				"name" : "30_Manual.maxpat",
				"bootpath" : "~/Nextcloud/Technik/Sound/Batti/MaxMSP/subpatches/SubPacthes_Synth",
				"patcherrelativepath" : "./subpatches/SubPacthes_Synth",
				"type" : "JSON",
				"implicit" : 1
			}
, 			{
				"name" : "scale_prep_total.maxpat",
				"bootpath" : "~/Nextcloud/Technik/Sound/Batti/MaxMSP/subpatches/SubPacthes_Synth",
				"patcherrelativepath" : "./subpatches/SubPacthes_Synth",
				"type" : "JSON",
				"implicit" : 1
			}
, 			{
				"name" : "pentatonic_list_30.txt",
				"bootpath" : "~/Nextcloud/Technik/Sound/Batti/MaxMSP",
				"patcherrelativepath" : ".",
				"type" : "TEXT",
				"implicit" : 1
			}
, 			{
				"name" : "pentatonic_list_40.txt",
				"bootpath" : "~/Nextcloud/Technik/Sound/Batti/MaxMSP",
				"patcherrelativepath" : ".",
				"type" : "TEXT",
				"implicit" : 1
			}
, 			{
				"name" : "pentatonic_list_50.txt",
				"bootpath" : "~/Nextcloud/Technik/Sound/Batti/MaxMSP",
				"patcherrelativepath" : ".",
				"type" : "TEXT",
				"implicit" : 1
			}
, 			{
				"name" : "40_OSC.maxpat",
				"bootpath" : "~/Nextcloud/Technik/Sound/Batti/MaxMSP/subpatches/SubPacthes_Synth",
				"patcherrelativepath" : "./subpatches/SubPacthes_Synth",
				"type" : "JSON",
				"implicit" : 1
			}
, 			{
				"name" : "target_40.maxpat",
				"bootpath" : "~/Nextcloud/Technik/Sound/Batti/MaxMSP/subpatches/SubPacthes_Synth",
				"patcherrelativepath" : "./subpatches/SubPacthes_Synth",
				"type" : "JSON",
				"implicit" : 1
			}
, 			{
				"name" : "50_OSC.maxpat",
				"bootpath" : "~/Nextcloud/Technik/Sound/Batti/MaxMSP/subpatches/SubPacthes_Synth",
				"patcherrelativepath" : "./subpatches/SubPacthes_Synth",
				"type" : "JSON",
				"implicit" : 1
			}
, 			{
				"name" : "40_Playback.maxpat",
				"bootpath" : "~/Nextcloud/Technik/Sound/Batti/MaxMSP/subpatches/SubPacthes_Synth",
				"patcherrelativepath" : "./subpatches/SubPacthes_Synth",
				"type" : "JSON",
				"implicit" : 1
			}
, 			{
				"name" : "30_Playback.maxpat",
				"bootpath" : "~/Nextcloud/Technik/Sound/Batti/MaxMSP/subpatches/SubPacthes_Synth",
				"patcherrelativepath" : "./subpatches/SubPacthes_Synth",
				"type" : "JSON",
				"implicit" : 1
			}
, 			{
				"name" : "40_Manual.maxpat",
				"bootpath" : "~/Nextcloud/Technik/Sound/Batti/MaxMSP/subpatches/SubPacthes_Synth",
				"patcherrelativepath" : "./subpatches/SubPacthes_Synth",
				"type" : "JSON",
				"implicit" : 1
			}
, 			{
				"name" : "50_Manual.maxpat",
				"bootpath" : "~/Nextcloud/Technik/Sound/Batti/MaxMSP/subpatches/SubPacthes_Synth",
				"patcherrelativepath" : "./subpatches/SubPacthes_Synth",
				"type" : "JSON",
				"implicit" : 1
			}
, 			{
				"name" : "uzi_Total.maxpat",
				"bootpath" : "~/Nextcloud/Technik/Sound/Batti/MaxMSP/subpatches/SubPacthes_Synth",
				"patcherrelativepath" : "./subpatches/SubPacthes_Synth",
				"type" : "JSON",
				"implicit" : 1
			}
 ],
		"autosave" : 0
	}

}
