{
	"patcher" : 	{
		"fileversion" : 1,
		"appversion" : 		{
			"major" : 8,
			"minor" : 1,
			"revision" : 0,
			"architecture" : "x64",
			"modernui" : 1
		}
,
		"classnamespace" : "box",
		"rect" : [ 1075.0, -1121.0, 661.0, 627.0 ],
		"bglocked" : 0,
		"openinpresentation" : 1,
		"default_fontsize" : 12.0,
		"default_fontface" : 0,
		"default_fontname" : "Arial",
		"gridonopen" : 1,
		"gridsize" : [ 15.0, 15.0 ],
		"gridsnaponopen" : 1,
		"objectsnaponopen" : 1,
		"statusbarvisible" : 2,
		"toolbarvisible" : 1,
		"lefttoolbarpinned" : 0,
		"toptoolbarpinned" : 0,
		"righttoolbarpinned" : 0,
		"bottomtoolbarpinned" : 0,
		"toolbars_unpinned_last_save" : 0,
		"tallnewobj" : 0,
		"boxanimatetime" : 200,
		"enablehscroll" : 1,
		"enablevscroll" : 1,
		"devicewidth" : 0.0,
		"description" : "",
		"digest" : "",
		"tags" : "",
		"style" : "",
		"subpatcher_template" : "",
		"boxes" : [ 			{
				"box" : 				{
					"id" : "obj-47",
					"maxclass" : "newobj",
					"numinlets" : 1,
					"numoutlets" : 0,
					"patching_rect" : [ 183.0, 563.0, 92.0, 22.0 ],
					"text" : "s test_warnings"
				}

			}
, 			{
				"box" : 				{
					"id" : "obj-46",
					"maxclass" : "newobj",
					"numinlets" : 1,
					"numoutlets" : 0,
					"patching_rect" : [ 14.0, 502.0, 92.0, 22.0 ],
					"text" : "s test_warnings"
				}

			}
, 			{
				"box" : 				{
					"id" : "obj-45",
					"maxclass" : "newobj",
					"numinlets" : 1,
					"numoutlets" : 0,
					"patching_rect" : [ 183.0, 494.0, 92.0, 22.0 ],
					"text" : "s test_warnings"
				}

			}
, 			{
				"box" : 				{
					"id" : "obj-44",
					"maxclass" : "newobj",
					"numinlets" : 1,
					"numoutlets" : 1,
					"outlettype" : [ "" ],
					"patching_rect" : [ 183.0, 430.0, 179.0, 22.0 ],
					"text" : "prepend /voice/benched/release"
				}

			}
, 			{
				"box" : 				{
					"id" : "obj-43",
					"maxclass" : "newobj",
					"numinlets" : 1,
					"numoutlets" : 0,
					"patching_rect" : [ 183.0, 393.0, 92.0, 22.0 ],
					"text" : "s test_warnings"
				}

			}
, 			{
				"box" : 				{
					"id" : "obj-42",
					"maxclass" : "newobj",
					"numinlets" : 1,
					"numoutlets" : 1,
					"outlettype" : [ "" ],
					"patching_rect" : [ 2.0, 430.0, 170.0, 22.0 ],
					"text" : "prepend /voice/benched/break"
				}

			}
, 			{
				"box" : 				{
					"id" : "obj-41",
					"maxclass" : "newobj",
					"numinlets" : 1,
					"numoutlets" : 1,
					"outlettype" : [ "" ],
					"patching_rect" : [ 174.0, 321.0, 163.0, 22.0 ],
					"text" : "prepend /voice/benched/start"
				}

			}
, 			{
				"box" : 				{
					"id" : "obj-40",
					"maxclass" : "newobj",
					"numinlets" : 1,
					"numoutlets" : 0,
					"patching_rect" : [ 21.0, 393.0, 92.0, 22.0 ],
					"text" : "s test_warnings"
				}

			}
, 			{
				"box" : 				{
					"id" : "obj-39",
					"maxclass" : "newobj",
					"numinlets" : 1,
					"numoutlets" : 1,
					"outlettype" : [ "" ],
					"patching_rect" : [ -16.5, 321.0, 167.0, 22.0 ],
					"text" : "prepend /voice/freeze/release"
				}

			}
, 			{
				"box" : 				{
					"id" : "obj-38",
					"maxclass" : "newobj",
					"numinlets" : 1,
					"numoutlets" : 0,
					"patching_rect" : [ 183.0, 292.0, 92.0, 22.0 ],
					"text" : "s test_warnings"
				}

			}
, 			{
				"box" : 				{
					"id" : "obj-36",
					"maxclass" : "newobj",
					"numinlets" : 1,
					"numoutlets" : 1,
					"outlettype" : [ "" ],
					"patching_rect" : [ 183.0, 205.0, 157.0, 22.0 ],
					"text" : "prepend /voice/freeze/break"
				}

			}
, 			{
				"box" : 				{
					"id" : "obj-35",
					"maxclass" : "newobj",
					"numinlets" : 1,
					"numoutlets" : 1,
					"outlettype" : [ "" ],
					"patching_rect" : [ 21.0, 205.0, 151.0, 22.0 ],
					"text" : "prepend /voice/freeze/start"
				}

			}
, 			{
				"box" : 				{
					"id" : "obj-13",
					"maxclass" : "comment",
					"numinlets" : 1,
					"numoutlets" : 0,
					"patching_rect" : [ 457.0, 200.0, 70.0, 20.0 ],
					"presentation" : 1,
					"presentation_rect" : [ 295.0, 108.0, 70.0, 20.0 ],
					"text" : "Volume"
				}

			}
, 			{
				"box" : 				{
					"id" : "obj-8",
					"maxclass" : "comment",
					"numinlets" : 1,
					"numoutlets" : 0,
					"patching_rect" : [ 385.0, 200.0, 70.0, 20.0 ],
					"presentation" : 1,
					"presentation_rect" : [ 228.0, 108.0, 70.0, 20.0 ],
					"text" : "ID number "
				}

			}
, 			{
				"box" : 				{
					"id" : "obj-5",
					"maxclass" : "comment",
					"numinlets" : 1,
					"numoutlets" : 0,
					"patching_rect" : [ 106.0, 143.0, 70.0, 20.0 ],
					"presentation" : 1,
					"presentation_rect" : [ 7.0, 108.0, 70.0, 20.0 ],
					"text" : "ID number "
				}

			}
, 			{
				"box" : 				{
					"id" : "obj-3",
					"maxclass" : "number",
					"numinlets" : 1,
					"numoutlets" : 2,
					"outlettype" : [ "", "bang" ],
					"parameter_enable" : 0,
					"patching_rect" : [ 51.0, 143.0, 50.0, 22.0 ],
					"presentation" : 1,
					"presentation_rect" : [ 12.0, 130.0, 50.0, 22.0 ]
				}

			}
, 			{
				"box" : 				{
					"fontface" : 1,
					"id" : "obj-21",
					"maxclass" : "comment",
					"numinlets" : 1,
					"numoutlets" : 0,
					"patching_rect" : [ 62.0, 104.5, 96.0, 20.0 ],
					"presentation" : 1,
					"presentation_rect" : [ 12.0, 79.0, 120.0, 20.0 ],
					"text" : "WARNINGS"
				}

			}
, 			{
				"box" : 				{
					"fontface" : 1,
					"id" : "obj-20",
					"linecount" : 2,
					"maxclass" : "comment",
					"numinlets" : 1,
					"numoutlets" : 0,
					"patching_rect" : [ 409.0, 91.5, 96.0, 33.0 ],
					"presentation" : 1,
					"presentation_rect" : [ 234.0, 79.0, 120.0, 20.0 ],
					"text" : "HUMAN SYNTH"
				}

			}
, 			{
				"box" : 				{
					"id" : "obj-16",
					"maxclass" : "number",
					"numinlets" : 1,
					"numoutlets" : 2,
					"outlettype" : [ "", "bang" ],
					"parameter_enable" : 0,
					"patching_rect" : [ 400.0, 228.0, 50.0, 22.0 ],
					"presentation" : 1,
					"presentation_rect" : [ 238.0, 130.0, 50.0, 22.0 ]
				}

			}
, 			{
				"box" : 				{
					"id" : "obj-12",
					"maxclass" : "newobj",
					"numinlets" : 2,
					"numoutlets" : 1,
					"outlettype" : [ "" ],
					"patching_rect" : [ 400.0, 270.0, 51.0, 22.0 ],
					"text" : "pak 0 0."
				}

			}
, 			{
				"box" : 				{
					"format" : 6,
					"id" : "obj-64",
					"maxclass" : "flonum",
					"numinlets" : 1,
					"numoutlets" : 2,
					"outlettype" : [ "", "bang" ],
					"parameter_enable" : 0,
					"patching_rect" : [ 457.0, 228.0, 50.0, 22.0 ],
					"presentation" : 1,
					"presentation_rect" : [ 295.0, 130.0, 50.0, 22.0 ]
				}

			}
, 			{
				"box" : 				{
					"id" : "obj-61",
					"maxclass" : "message",
					"numinlets" : 2,
					"numoutlets" : 1,
					"outlettype" : [ "" ],
					"patching_rect" : [ 400.0, 302.0, 114.0, 22.0 ],
					"presentation" : 1,
					"presentation_rect" : [ 238.0, 164.0, 114.0, 22.0 ],
					"text" : "/synth $1 $2 0.4 0.4"
				}

			}
, 			{
				"box" : 				{
					"id" : "obj-1",
					"maxclass" : "newobj",
					"numinlets" : 1,
					"numoutlets" : 0,
					"patching_rect" : [ 400.0, 338.0, 113.0, 22.0 ],
					"text" : "s test_HumanSynth"
				}

			}
, 			{
				"box" : 				{
					"fontface" : 1,
					"id" : "obj-15",
					"maxclass" : "comment",
					"numinlets" : 1,
					"numoutlets" : 0,
					"patching_rect" : [ 27.5, 55.5, 96.0, 20.0 ],
					"presentation" : 1,
					"presentation_rect" : [ 12.0, 53.0, 78.0, 20.0 ],
					"text" : "TEST OSC "
				}

			}
, 			{
				"box" : 				{
					"id" : "obj-11",
					"maxclass" : "message",
					"numinlets" : 2,
					"numoutlets" : 1,
					"outlettype" : [ "" ],
					"patching_rect" : [ 183.0, 457.0, 149.0, 22.0 ],
					"presentation" : 1,
					"presentation_rect" : [ 12.0, 296.0, 162.0, 22.0 ],
					"text" : "/voice/benched/release 12"
				}

			}
, 			{
				"box" : 				{
					"id" : "obj-9",
					"maxclass" : "message",
					"numinlets" : 2,
					"numoutlets" : 1,
					"outlettype" : [ "" ],
					"patching_rect" : [ 14.0, 460.0, 139.0, 22.0 ],
					"presentation" : 1,
					"presentation_rect" : [ 12.0, 268.0, 162.0, 22.0 ],
					"text" : "/voice/benched/break 12"
				}

			}
, 			{
				"box" : 				{
					"id" : "obj-7",
					"linecount" : 2,
					"maxclass" : "message",
					"numinlets" : 2,
					"numoutlets" : 1,
					"outlettype" : [ "" ],
					"patching_rect" : [ 183.0, 355.0, 116.0, 35.0 ],
					"presentation" : 1,
					"presentation_rect" : [ 12.0, 241.0, 162.0, 22.0 ],
					"text" : "/voice/benched/start 12"
				}

			}
, 			{
				"box" : 				{
					"id" : "obj-10",
					"maxclass" : "message",
					"numinlets" : 2,
					"numoutlets" : 1,
					"outlettype" : [ "" ],
					"patching_rect" : [ 183.0, 530.0, 145.0, 22.0 ],
					"presentation" : 1,
					"presentation_rect" : [ 12.0, 324.0, 162.0, 22.0 ],
					"text" : "/voice/benched/releaseAll"
				}

			}
, 			{
				"box" : 				{
					"id" : "obj-23",
					"maxclass" : "message",
					"numinlets" : 2,
					"numoutlets" : 1,
					"outlettype" : [ "" ],
					"patching_rect" : [ 12.0, 355.0, 136.0, 22.0 ],
					"presentation" : 1,
					"presentation_rect" : [ 12.0, 214.0, 162.0, 22.0 ],
					"text" : "/voice/freeze/release 12"
				}

			}
, 			{
				"box" : 				{
					"id" : "obj-25",
					"maxclass" : "message",
					"numinlets" : 2,
					"numoutlets" : 1,
					"outlettype" : [ "" ],
					"patching_rect" : [ 183.0, 255.0, 127.0, 22.0 ],
					"presentation" : 1,
					"presentation_rect" : [ 12.0, 187.0, 162.0, 22.0 ],
					"text" : "/voice/freeze/break 12"
				}

			}
, 			{
				"box" : 				{
					"id" : "obj-180",
					"maxclass" : "message",
					"numinlets" : 2,
					"numoutlets" : 1,
					"outlettype" : [ "" ],
					"patching_rect" : [ 21.0, 250.0, 120.0, 22.0 ],
					"presentation" : 1,
					"presentation_rect" : [ 12.0, 160.0, 162.0, 22.0 ],
					"text" : "/voice/freeze/start 12"
				}

			}
, 			{
				"box" : 				{
					"id" : "obj-6",
					"maxclass" : "newobj",
					"numinlets" : 1,
					"numoutlets" : 0,
					"patching_rect" : [ 21.0, 292.0, 92.0, 22.0 ],
					"text" : "s test_warnings"
				}

			}
 ],
		"lines" : [ 			{
				"patchline" : 				{
					"destination" : [ "obj-47", 0 ],
					"source" : [ "obj-10", 0 ]
				}

			}
, 			{
				"patchline" : 				{
					"destination" : [ "obj-45", 0 ],
					"source" : [ "obj-11", 0 ]
				}

			}
, 			{
				"patchline" : 				{
					"destination" : [ "obj-61", 0 ],
					"source" : [ "obj-12", 0 ]
				}

			}
, 			{
				"patchline" : 				{
					"destination" : [ "obj-12", 0 ],
					"source" : [ "obj-16", 0 ]
				}

			}
, 			{
				"patchline" : 				{
					"destination" : [ "obj-6", 0 ],
					"source" : [ "obj-180", 0 ]
				}

			}
, 			{
				"patchline" : 				{
					"destination" : [ "obj-40", 0 ],
					"source" : [ "obj-23", 0 ]
				}

			}
, 			{
				"patchline" : 				{
					"destination" : [ "obj-38", 0 ],
					"source" : [ "obj-25", 0 ]
				}

			}
, 			{
				"patchline" : 				{
					"destination" : [ "obj-35", 0 ],
					"order" : 3,
					"source" : [ "obj-3", 0 ]
				}

			}
, 			{
				"patchline" : 				{
					"destination" : [ "obj-36", 0 ],
					"order" : 1,
					"source" : [ "obj-3", 0 ]
				}

			}
, 			{
				"patchline" : 				{
					"destination" : [ "obj-39", 0 ],
					"order" : 5,
					"source" : [ "obj-3", 0 ]
				}

			}
, 			{
				"patchline" : 				{
					"destination" : [ "obj-41", 0 ],
					"order" : 2,
					"source" : [ "obj-3", 0 ]
				}

			}
, 			{
				"patchline" : 				{
					"destination" : [ "obj-42", 0 ],
					"order" : 4,
					"source" : [ "obj-3", 0 ]
				}

			}
, 			{
				"patchline" : 				{
					"destination" : [ "obj-44", 0 ],
					"order" : 0,
					"source" : [ "obj-3", 0 ]
				}

			}
, 			{
				"patchline" : 				{
					"destination" : [ "obj-180", 1 ],
					"source" : [ "obj-35", 0 ]
				}

			}
, 			{
				"patchline" : 				{
					"destination" : [ "obj-25", 1 ],
					"source" : [ "obj-36", 0 ]
				}

			}
, 			{
				"patchline" : 				{
					"destination" : [ "obj-23", 1 ],
					"source" : [ "obj-39", 0 ]
				}

			}
, 			{
				"patchline" : 				{
					"destination" : [ "obj-7", 1 ],
					"source" : [ "obj-41", 0 ]
				}

			}
, 			{
				"patchline" : 				{
					"destination" : [ "obj-9", 1 ],
					"source" : [ "obj-42", 0 ]
				}

			}
, 			{
				"patchline" : 				{
					"destination" : [ "obj-11", 1 ],
					"source" : [ "obj-44", 0 ]
				}

			}
, 			{
				"patchline" : 				{
					"destination" : [ "obj-1", 0 ],
					"source" : [ "obj-61", 0 ]
				}

			}
, 			{
				"patchline" : 				{
					"destination" : [ "obj-12", 1 ],
					"source" : [ "obj-64", 0 ]
				}

			}
, 			{
				"patchline" : 				{
					"destination" : [ "obj-43", 0 ],
					"source" : [ "obj-7", 0 ]
				}

			}
, 			{
				"patchline" : 				{
					"destination" : [ "obj-46", 0 ],
					"source" : [ "obj-9", 0 ]
				}

			}
 ],
		"dependency_cache" : [  ],
		"autosave" : 0
	}

}
