{
	"patcher" : 	{
		"fileversion" : 1,
		"appversion" : 		{
			"major" : 8,
			"minor" : 1,
			"revision" : 0,
			"architecture" : "x64",
			"modernui" : 1
		}
,
		"classnamespace" : "box",
		"rect" : [ -92.0, -1121.0, 999.0, 520.0 ],
		"bglocked" : 0,
		"openinpresentation" : 0,
		"default_fontsize" : 12.0,
		"default_fontface" : 0,
		"default_fontname" : "Arial",
		"gridonopen" : 1,
		"gridsize" : [ 15.0, 15.0 ],
		"gridsnaponopen" : 1,
		"objectsnaponopen" : 1,
		"statusbarvisible" : 2,
		"toolbarvisible" : 1,
		"lefttoolbarpinned" : 0,
		"toptoolbarpinned" : 0,
		"righttoolbarpinned" : 0,
		"bottomtoolbarpinned" : 0,
		"toolbars_unpinned_last_save" : 0,
		"tallnewobj" : 0,
		"boxanimatetime" : 200,
		"enablehscroll" : 1,
		"enablevscroll" : 1,
		"devicewidth" : 0.0,
		"description" : "",
		"digest" : "",
		"tags" : "",
		"style" : "",
		"subpatcher_template" : "",
		"boxes" : [ 			{
				"box" : 				{
					"bgcolor" : [ 0.880169, 0.755396, 0.471904, 1.0 ],
					"bgcolor2" : [ 0.880169, 0.755396, 0.471904, 1.0 ],
					"bgfillcolor_angle" : 270.0,
					"bgfillcolor_autogradient" : 0.0,
					"bgfillcolor_color" : [ 0.591933, 0.564554, 0.074619, 1.0 ],
					"bgfillcolor_color1" : [ 0.880169, 0.755396, 0.471904, 1.0 ],
					"bgfillcolor_color2" : [ 0.2, 0.2, 0.2, 1.0 ],
					"bgfillcolor_proportion" : 0.5,
					"bgfillcolor_type" : "color",
					"gradient" : 1,
					"id" : "obj-12",
					"maxclass" : "message",
					"numinlets" : 2,
					"numoutlets" : 1,
					"outlettype" : [ "" ],
					"patching_rect" : [ 179.5, 14.0, 130.0, 22.0 ],
					"text" : "In der Regel fängt eine"
				}

			}
, 			{
				"box" : 				{
					"bgcolor" : [ 0.880169, 0.755396, 0.471904, 1.0 ],
					"bgcolor2" : [ 0.880169, 0.755396, 0.471904, 1.0 ],
					"bgfillcolor_angle" : 270.0,
					"bgfillcolor_autogradient" : 0.0,
					"bgfillcolor_color" : [ 0.591933, 0.564554, 0.074619, 1.0 ],
					"bgfillcolor_color1" : [ 0.880169, 0.755396, 0.471904, 1.0 ],
					"bgfillcolor_color2" : [ 0.2, 0.2, 0.2, 1.0 ],
					"bgfillcolor_proportion" : 0.5,
					"bgfillcolor_type" : "color",
					"gradient" : 1,
					"id" : "obj-11",
					"maxclass" : "message",
					"numinlets" : 2,
					"numoutlets" : 1,
					"outlettype" : [ "" ],
					"patching_rect" : [ 209.0, 69.0, 29.5, 22.0 ],
					"text" : "Alle"
				}

			}
, 			{
				"box" : 				{
					"bgcolor" : [ 0.880169, 0.755396, 0.471904, 1.0 ],
					"bgcolor2" : [ 0.880169, 0.755396, 0.471904, 1.0 ],
					"bgfillcolor_angle" : 270.0,
					"bgfillcolor_autogradient" : 0.0,
					"bgfillcolor_color" : [ 0.591933, 0.564554, 0.074619, 1.0 ],
					"bgfillcolor_color1" : [ 0.880169, 0.755396, 0.471904, 1.0 ],
					"bgfillcolor_color2" : [ 0.2, 0.2, 0.2, 1.0 ],
					"bgfillcolor_proportion" : 0.5,
					"bgfillcolor_type" : "color",
					"gradient" : 1,
					"id" : "obj-10",
					"maxclass" : "message",
					"numinlets" : 2,
					"numoutlets" : 1,
					"outlettype" : [ "" ],
					"patching_rect" : [ 506.0, 475.5, 31.0, 22.0 ],
					"text" : "eins"
				}

			}
, 			{
				"box" : 				{
					"bgcolor" : [ 0.880169, 0.755396, 0.471904, 1.0 ],
					"bgcolor2" : [ 0.880169, 0.755396, 0.471904, 1.0 ],
					"bgfillcolor_angle" : 270.0,
					"bgfillcolor_autogradient" : 0.0,
					"bgfillcolor_color" : [ 0.591933, 0.564554, 0.074619, 1.0 ],
					"bgfillcolor_color1" : [ 0.880169, 0.755396, 0.471904, 1.0 ],
					"bgfillcolor_color2" : [ 0.2, 0.2, 0.2, 1.0 ],
					"bgfillcolor_proportion" : 0.5,
					"bgfillcolor_type" : "color",
					"gradient" : 1,
					"id" : "obj-9",
					"maxclass" : "message",
					"numinlets" : 2,
					"numoutlets" : 1,
					"outlettype" : [ "" ],
					"patching_rect" : [ 491.0, 451.5, 87.0, 22.0 ],
					"text" : "Hans zwei drei"
				}

			}
, 			{
				"box" : 				{
					"bgcolor" : [ 0.880169, 0.755396, 0.471904, 1.0 ],
					"bgcolor2" : [ 0.880169, 0.755396, 0.471904, 1.0 ],
					"bgfillcolor_angle" : 270.0,
					"bgfillcolor_autogradient" : 0.0,
					"bgfillcolor_color" : [ 0.591933, 0.564554, 0.074619, 1.0 ],
					"bgfillcolor_color1" : [ 0.880169, 0.755396, 0.471904, 1.0 ],
					"bgfillcolor_color2" : [ 0.2, 0.2, 0.2, 1.0 ],
					"bgfillcolor_proportion" : 0.5,
					"bgfillcolor_type" : "color",
					"gradient" : 1,
					"id" : "obj-8",
					"maxclass" : "message",
					"numinlets" : 2,
					"numoutlets" : 1,
					"outlettype" : [ "" ],
					"patching_rect" : [ 476.0, 417.5, 64.0, 22.0 ],
					"text" : "Masse an,"
				}

			}
, 			{
				"box" : 				{
					"bgcolor" : [ 0.880169, 0.755396, 0.471904, 1.0 ],
					"bgcolor2" : [ 0.880169, 0.755396, 0.471904, 1.0 ],
					"bgfillcolor_angle" : 270.0,
					"bgfillcolor_autogradient" : 0.0,
					"bgfillcolor_color" : [ 0.591933, 0.564554, 0.074619, 1.0 ],
					"bgfillcolor_color1" : [ 0.880169, 0.755396, 0.471904, 1.0 ],
					"bgfillcolor_color2" : [ 0.2, 0.2, 0.2, 1.0 ],
					"bgfillcolor_proportion" : 0.5,
					"bgfillcolor_type" : "color",
					"gradient" : 1,
					"id" : "obj-7",
					"maxclass" : "message",
					"numinlets" : 2,
					"numoutlets" : 1,
					"outlettype" : [ "" ],
					"patching_rect" : [ 408.0, 153.5, 139.0, 22.0 ],
					"text" : "dass die Masse anfängt,"
				}

			}
, 			{
				"box" : 				{
					"bgcolor" : [ 0.880169, 0.755396, 0.471904, 1.0 ],
					"bgcolor2" : [ 0.880169, 0.755396, 0.471904, 1.0 ],
					"bgfillcolor_angle" : 270.0,
					"bgfillcolor_autogradient" : 0.0,
					"bgfillcolor_color" : [ 0.591933, 0.564554, 0.074619, 1.0 ],
					"bgfillcolor_color1" : [ 0.880169, 0.755396, 0.471904, 1.0 ],
					"bgfillcolor_color2" : [ 0.2, 0.2, 0.2, 1.0 ],
					"bgfillcolor_proportion" : 0.5,
					"bgfillcolor_type" : "color",
					"gradient" : 1,
					"id" : "obj-3",
					"maxclass" : "message",
					"numinlets" : 2,
					"numoutlets" : 1,
					"outlettype" : [ "" ],
					"patching_rect" : [ 351.5, 179.0, 340.0, 22.0 ],
					"text" : "sich zu organisieren und gemeinsame Forderungen zu stellen,"
				}

			}
, 			{
				"box" : 				{
					"bgcolor" : [ 0.880169, 0.755396, 0.471904, 1.0 ],
					"bgcolor2" : [ 0.880169, 0.755396, 0.471904, 1.0 ],
					"bgfillcolor_angle" : 270.0,
					"bgfillcolor_autogradient" : 0.0,
					"bgfillcolor_color" : [ 0.591933, 0.564554, 0.074619, 1.0 ],
					"bgfillcolor_color1" : [ 0.880169, 0.755396, 0.471904, 1.0 ],
					"bgfillcolor_color2" : [ 0.2, 0.2, 0.2, 1.0 ],
					"bgfillcolor_proportion" : 0.5,
					"bgfillcolor_type" : "color",
					"gradient" : 1,
					"id" : "obj-1",
					"maxclass" : "message",
					"numinlets" : 2,
					"numoutlets" : 1,
					"outlettype" : [ "" ],
					"patching_rect" : [ 383.0, 260.5, 67.0, 22.0 ],
					"text" : "Testperson"
				}

			}
, 			{
				"box" : 				{
					"bgcolor" : [ 0.880169, 0.755396, 0.471904, 1.0 ],
					"bgcolor2" : [ 0.880169, 0.755396, 0.471904, 1.0 ],
					"bgfillcolor_angle" : 270.0,
					"bgfillcolor_autogradient" : 0.0,
					"bgfillcolor_color" : [ 0.591933, 0.564554, 0.074619, 1.0 ],
					"bgfillcolor_color1" : [ 0.880169, 0.755396, 0.471904, 1.0 ],
					"bgfillcolor_color2" : [ 0.2, 0.2, 0.2, 1.0 ],
					"bgfillcolor_proportion" : 0.5,
					"bgfillcolor_type" : "color",
					"gradient" : 1,
					"id" : "obj-6",
					"maxclass" : "message",
					"numinlets" : 2,
					"numoutlets" : 1,
					"outlettype" : [ "" ],
					"patching_rect" : [ 283.5, 129.5, 380.0, 22.0 ],
					"text" : "Alle, die rot angeleuchtet werden, begeben sich bitte in die Wartezone"
				}

			}
, 			{
				"box" : 				{
					"bgcolor" : [ 0.880169, 0.755396, 0.471904, 1.0 ],
					"bgcolor2" : [ 0.880169, 0.755396, 0.471904, 1.0 ],
					"bgfillcolor_angle" : 270.0,
					"bgfillcolor_autogradient" : 0.0,
					"bgfillcolor_color" : [ 0.591933, 0.564554, 0.074619, 1.0 ],
					"bgfillcolor_color1" : [ 0.880169, 0.755396, 0.471904, 1.0 ],
					"bgfillcolor_color2" : [ 0.2, 0.2, 0.2, 1.0 ],
					"bgfillcolor_proportion" : 0.5,
					"bgfillcolor_type" : "color",
					"gradient" : 1,
					"id" : "obj-5",
					"maxclass" : "message",
					"numinlets" : 2,
					"numoutlets" : 1,
					"outlettype" : [ "" ],
					"patching_rect" : [ 220.75, 97.0, 51.0, 22.0 ],
					"text" : "Ei diese"
				}

			}
, 			{
				"box" : 				{
					"bgcolor" : [ 0.880169, 0.755396, 0.471904, 1.0 ],
					"bgcolor2" : [ 0.880169, 0.755396, 0.471904, 1.0 ],
					"bgfillcolor_angle" : 270.0,
					"bgfillcolor_autogradient" : 0.0,
					"bgfillcolor_color" : [ 0.591933, 0.564554, 0.074619, 1.0 ],
					"bgfillcolor_color1" : [ 0.880169, 0.755396, 0.471904, 1.0 ],
					"bgfillcolor_color2" : [ 0.2, 0.2, 0.2, 1.0 ],
					"bgfillcolor_proportion" : 0.5,
					"bgfillcolor_type" : "color",
					"gradient" : 1,
					"id" : "obj-4",
					"maxclass" : "message",
					"numinlets" : 2,
					"numoutlets" : 1,
					"outlettype" : [ "" ],
					"patching_rect" : [ 186.0, 38.0, 143.0, 22.0 ],
					"text" : "sich kritisch zu verhalten,"
				}

			}
, 			{
				"box" : 				{
					"id" : "obj-2",
					"maxclass" : "message",
					"numinlets" : 2,
					"numoutlets" : 1,
					"outlettype" : [ "" ],
					"patching_rect" : [ 110.0, 167.0, 55.0, 22.0 ],
					"text" : "JA"
				}

			}
, 			{
				"box" : 				{
					"id" : "obj-19",
					"maxclass" : "newobj",
					"numinlets" : 1,
					"numoutlets" : 1,
					"outlettype" : [ "" ],
					"patching_rect" : [ 209.0, 250.5, 75.0, 22.0 ],
					"text" : "prepend say"
				}

			}
, 			{
				"box" : 				{
					"id" : "obj-20",
					"maxclass" : "newobj",
					"numinlets" : 1,
					"numoutlets" : 2,
					"outlettype" : [ "", "bang" ],
					"patching_rect" : [ 209.0, 365.0, 58.0, 22.0 ],
					"saved_object_attributes" : 					{
						"shell" : "(default)"
					}
,
					"text" : "shell"
				}

			}
, 			{
				"box" : 				{
					"bgcolor" : [ 0.880169, 0.755396, 0.471904, 1.0 ],
					"bgcolor2" : [ 0.880169, 0.755396, 0.471904, 1.0 ],
					"bgfillcolor_angle" : 270.0,
					"bgfillcolor_autogradient" : 0.0,
					"bgfillcolor_color" : [ 0.591933, 0.564554, 0.074619, 1.0 ],
					"bgfillcolor_color1" : [ 0.880169, 0.755396, 0.471904, 1.0 ],
					"bgfillcolor_color2" : [ 0.2, 0.2, 0.2, 1.0 ],
					"bgfillcolor_proportion" : 0.5,
					"bgfillcolor_type" : "color",
					"gradient" : 1,
					"id" : "obj-84",
					"maxclass" : "message",
					"numinlets" : 2,
					"numoutlets" : 1,
					"outlettype" : [ "" ],
					"patching_rect" : [ 321.0, 203.0, 239.0, 22.0 ],
					"text" : "um etwas in der Gesellschaft zu verändern."
				}

			}
 ],
		"lines" : [ 			{
				"patchline" : 				{
					"destination" : [ "obj-19", 0 ],
					"source" : [ "obj-1", 0 ]
				}

			}
, 			{
				"patchline" : 				{
					"destination" : [ "obj-19", 0 ],
					"source" : [ "obj-10", 0 ]
				}

			}
, 			{
				"patchline" : 				{
					"destination" : [ "obj-19", 0 ],
					"source" : [ "obj-11", 0 ]
				}

			}
, 			{
				"patchline" : 				{
					"destination" : [ "obj-19", 0 ],
					"source" : [ "obj-12", 0 ]
				}

			}
, 			{
				"patchline" : 				{
					"destination" : [ "obj-20", 0 ],
					"source" : [ "obj-19", 0 ]
				}

			}
, 			{
				"patchline" : 				{
					"destination" : [ "obj-19", 0 ],
					"source" : [ "obj-2", 0 ]
				}

			}
, 			{
				"patchline" : 				{
					"destination" : [ "obj-19", 0 ],
					"source" : [ "obj-3", 0 ]
				}

			}
, 			{
				"patchline" : 				{
					"destination" : [ "obj-19", 0 ],
					"source" : [ "obj-4", 0 ]
				}

			}
, 			{
				"patchline" : 				{
					"destination" : [ "obj-19", 0 ],
					"source" : [ "obj-5", 0 ]
				}

			}
, 			{
				"patchline" : 				{
					"destination" : [ "obj-19", 0 ],
					"source" : [ "obj-6", 0 ]
				}

			}
, 			{
				"patchline" : 				{
					"destination" : [ "obj-19", 0 ],
					"source" : [ "obj-7", 0 ]
				}

			}
, 			{
				"patchline" : 				{
					"destination" : [ "obj-19", 0 ],
					"source" : [ "obj-8", 0 ]
				}

			}
, 			{
				"patchline" : 				{
					"destination" : [ "obj-19", 0 ],
					"source" : [ "obj-84", 0 ]
				}

			}
, 			{
				"patchline" : 				{
					"destination" : [ "obj-19", 0 ],
					"source" : [ "obj-9", 0 ]
				}

			}
 ],
		"dependency_cache" : [ 			{
				"name" : "shell.mxo",
				"type" : "iLaX"
			}
 ],
		"autosave" : 0
	}

}
