{
	"patcher" : 	{
		"fileversion" : 1,
		"appversion" : 		{
			"major" : 8,
			"minor" : 1,
			"revision" : 0,
			"architecture" : "x64",
			"modernui" : 1
		}
,
		"classnamespace" : "box",
		"rect" : [ 845.0, -971.0, 1344.0, 736.0 ],
		"bglocked" : 0,
		"openinpresentation" : 0,
		"default_fontsize" : 12.0,
		"default_fontface" : 0,
		"default_fontname" : "Arial",
		"gridonopen" : 1,
		"gridsize" : [ 15.0, 15.0 ],
		"gridsnaponopen" : 1,
		"objectsnaponopen" : 1,
		"statusbarvisible" : 2,
		"toolbarvisible" : 1,
		"lefttoolbarpinned" : 0,
		"toptoolbarpinned" : 0,
		"righttoolbarpinned" : 0,
		"bottomtoolbarpinned" : 0,
		"toolbars_unpinned_last_save" : 0,
		"tallnewobj" : 0,
		"boxanimatetime" : 200,
		"enablehscroll" : 1,
		"enablevscroll" : 1,
		"devicewidth" : 0.0,
		"description" : "",
		"digest" : "",
		"tags" : "",
		"style" : "",
		"subpatcher_template" : "",
		"boxes" : [ 			{
				"box" : 				{
					"comment" : "",
					"id" : "obj-1",
					"index" : 0,
					"maxclass" : "outlet",
					"numinlets" : 1,
					"numoutlets" : 0,
					"patching_rect" : [ 501.0, 420.0, 30.0, 30.0 ]
				}

			}
, 			{
				"box" : 				{
					"comment" : "",
					"id" : "obj-9",
					"index" : 0,
					"maxclass" : "outlet",
					"numinlets" : 1,
					"numoutlets" : 0,
					"patching_rect" : [ 108.5, 411.0, 30.0, 30.0 ]
				}

			}
, 			{
				"box" : 				{
					"id" : "obj-36",
					"maxclass" : "newobj",
					"numinlets" : 40,
					"numoutlets" : 1,
					"outlettype" : [ "" ],
					"patching_rect" : [ 501.0, 381.0, 683.5, 22.0 ],
					"text" : "target_40"
				}

			}
, 			{
				"box" : 				{
					"id" : "obj-43",
					"maxclass" : "newobj",
					"numinlets" : 40,
					"numoutlets" : 1,
					"outlettype" : [ "list" ],
					"patching_rect" : [ 83.5, 273.0, 968.5, 22.0 ],
					"text" : "funnel 40 1"
				}

			}
, 			{
				"box" : 				{
					"id" : "obj-2",
					"maxclass" : "newobj",
					"numinlets" : 1,
					"numoutlets" : 40,
					"outlettype" : [ "float", "float", "float", "float", "float", "float", "float", "float", "float", "float", "float", "float", "float", "float", "float", "float", "float", "float", "float", "float", "float", "float", "float", "float", "float", "float", "float", "float", "float", "float", "float", "float", "float", "float", "float", "float", "float", "float", "float", "float" ],
					"patching_rect" : [ 157.96969696969694, 94.0, 725.0, 22.0 ],
					"text" : "unpack 0. 0. 0. 0. 0. 0. 0. 0. 0. 0. 0. 0. 0. 0. 0. 0. 0. 0. 0. 0. 0. 0. 0. 0. 0. 0. 0. 0. 0. 0. 0. 0. 0. 0. 0. 0. 0. 0. 0. 0."
				}

			}
, 			{
				"box" : 				{
					"comment" : "",
					"id" : "obj-7",
					"index" : 0,
					"maxclass" : "inlet",
					"numinlets" : 0,
					"numoutlets" : 1,
					"outlettype" : [ "" ],
					"patching_rect" : [ 157.96969696969694, 46.0, 30.0, 30.0 ]
				}

			}
 ],
		"lines" : [ 			{
				"patchline" : 				{
					"destination" : [ "obj-36", 39 ],
					"order" : 0,
					"source" : [ "obj-2", 39 ]
				}

			}
, 			{
				"patchline" : 				{
					"destination" : [ "obj-36", 38 ],
					"order" : 0,
					"source" : [ "obj-2", 38 ]
				}

			}
, 			{
				"patchline" : 				{
					"destination" : [ "obj-36", 37 ],
					"order" : 0,
					"source" : [ "obj-2", 37 ]
				}

			}
, 			{
				"patchline" : 				{
					"destination" : [ "obj-36", 36 ],
					"order" : 0,
					"source" : [ "obj-2", 36 ]
				}

			}
, 			{
				"patchline" : 				{
					"destination" : [ "obj-36", 35 ],
					"order" : 0,
					"source" : [ "obj-2", 35 ]
				}

			}
, 			{
				"patchline" : 				{
					"destination" : [ "obj-36", 34 ],
					"order" : 0,
					"source" : [ "obj-2", 34 ]
				}

			}
, 			{
				"patchline" : 				{
					"destination" : [ "obj-36", 33 ],
					"order" : 0,
					"source" : [ "obj-2", 33 ]
				}

			}
, 			{
				"patchline" : 				{
					"destination" : [ "obj-36", 32 ],
					"order" : 0,
					"source" : [ "obj-2", 32 ]
				}

			}
, 			{
				"patchline" : 				{
					"destination" : [ "obj-36", 31 ],
					"order" : 0,
					"source" : [ "obj-2", 31 ]
				}

			}
, 			{
				"patchline" : 				{
					"destination" : [ "obj-36", 30 ],
					"order" : 0,
					"source" : [ "obj-2", 30 ]
				}

			}
, 			{
				"patchline" : 				{
					"destination" : [ "obj-36", 29 ],
					"order" : 0,
					"source" : [ "obj-2", 29 ]
				}

			}
, 			{
				"patchline" : 				{
					"destination" : [ "obj-36", 28 ],
					"order" : 0,
					"source" : [ "obj-2", 28 ]
				}

			}
, 			{
				"patchline" : 				{
					"destination" : [ "obj-36", 27 ],
					"order" : 0,
					"source" : [ "obj-2", 27 ]
				}

			}
, 			{
				"patchline" : 				{
					"destination" : [ "obj-36", 26 ],
					"order" : 0,
					"source" : [ "obj-2", 26 ]
				}

			}
, 			{
				"patchline" : 				{
					"destination" : [ "obj-36", 25 ],
					"order" : 0,
					"source" : [ "obj-2", 25 ]
				}

			}
, 			{
				"patchline" : 				{
					"destination" : [ "obj-36", 24 ],
					"order" : 0,
					"source" : [ "obj-2", 24 ]
				}

			}
, 			{
				"patchline" : 				{
					"destination" : [ "obj-36", 23 ],
					"order" : 0,
					"source" : [ "obj-2", 23 ]
				}

			}
, 			{
				"patchline" : 				{
					"destination" : [ "obj-36", 22 ],
					"order" : 0,
					"source" : [ "obj-2", 22 ]
				}

			}
, 			{
				"patchline" : 				{
					"destination" : [ "obj-36", 21 ],
					"order" : 0,
					"source" : [ "obj-2", 21 ]
				}

			}
, 			{
				"patchline" : 				{
					"destination" : [ "obj-36", 20 ],
					"order" : 0,
					"source" : [ "obj-2", 20 ]
				}

			}
, 			{
				"patchline" : 				{
					"destination" : [ "obj-36", 19 ],
					"order" : 0,
					"source" : [ "obj-2", 19 ]
				}

			}
, 			{
				"patchline" : 				{
					"destination" : [ "obj-36", 18 ],
					"order" : 0,
					"source" : [ "obj-2", 18 ]
				}

			}
, 			{
				"patchline" : 				{
					"destination" : [ "obj-36", 17 ],
					"order" : 0,
					"source" : [ "obj-2", 17 ]
				}

			}
, 			{
				"patchline" : 				{
					"destination" : [ "obj-36", 16 ],
					"order" : 0,
					"source" : [ "obj-2", 16 ]
				}

			}
, 			{
				"patchline" : 				{
					"destination" : [ "obj-36", 15 ],
					"order" : 0,
					"source" : [ "obj-2", 15 ]
				}

			}
, 			{
				"patchline" : 				{
					"destination" : [ "obj-36", 14 ],
					"order" : 0,
					"source" : [ "obj-2", 14 ]
				}

			}
, 			{
				"patchline" : 				{
					"destination" : [ "obj-36", 13 ],
					"order" : 0,
					"source" : [ "obj-2", 13 ]
				}

			}
, 			{
				"patchline" : 				{
					"destination" : [ "obj-36", 12 ],
					"order" : 0,
					"source" : [ "obj-2", 12 ]
				}

			}
, 			{
				"patchline" : 				{
					"destination" : [ "obj-36", 11 ],
					"order" : 0,
					"source" : [ "obj-2", 11 ]
				}

			}
, 			{
				"patchline" : 				{
					"destination" : [ "obj-36", 10 ],
					"order" : 0,
					"source" : [ "obj-2", 10 ]
				}

			}
, 			{
				"patchline" : 				{
					"destination" : [ "obj-36", 9 ],
					"order" : 0,
					"source" : [ "obj-2", 9 ]
				}

			}
, 			{
				"patchline" : 				{
					"destination" : [ "obj-36", 8 ],
					"order" : 0,
					"source" : [ "obj-2", 8 ]
				}

			}
, 			{
				"patchline" : 				{
					"destination" : [ "obj-36", 7 ],
					"order" : 0,
					"source" : [ "obj-2", 7 ]
				}

			}
, 			{
				"patchline" : 				{
					"destination" : [ "obj-36", 6 ],
					"order" : 0,
					"source" : [ "obj-2", 6 ]
				}

			}
, 			{
				"patchline" : 				{
					"destination" : [ "obj-36", 5 ],
					"order" : 0,
					"source" : [ "obj-2", 5 ]
				}

			}
, 			{
				"patchline" : 				{
					"destination" : [ "obj-36", 4 ],
					"order" : 0,
					"source" : [ "obj-2", 4 ]
				}

			}
, 			{
				"patchline" : 				{
					"destination" : [ "obj-36", 3 ],
					"order" : 0,
					"source" : [ "obj-2", 3 ]
				}

			}
, 			{
				"patchline" : 				{
					"destination" : [ "obj-36", 2 ],
					"order" : 0,
					"source" : [ "obj-2", 2 ]
				}

			}
, 			{
				"patchline" : 				{
					"destination" : [ "obj-36", 1 ],
					"order" : 0,
					"source" : [ "obj-2", 1 ]
				}

			}
, 			{
				"patchline" : 				{
					"destination" : [ "obj-36", 0 ],
					"order" : 0,
					"source" : [ "obj-2", 0 ]
				}

			}
, 			{
				"patchline" : 				{
					"destination" : [ "obj-43", 39 ],
					"order" : 1,
					"source" : [ "obj-2", 39 ]
				}

			}
, 			{
				"patchline" : 				{
					"destination" : [ "obj-43", 38 ],
					"order" : 1,
					"source" : [ "obj-2", 38 ]
				}

			}
, 			{
				"patchline" : 				{
					"destination" : [ "obj-43", 37 ],
					"order" : 1,
					"source" : [ "obj-2", 37 ]
				}

			}
, 			{
				"patchline" : 				{
					"destination" : [ "obj-43", 36 ],
					"order" : 1,
					"source" : [ "obj-2", 36 ]
				}

			}
, 			{
				"patchline" : 				{
					"destination" : [ "obj-43", 35 ],
					"order" : 1,
					"source" : [ "obj-2", 35 ]
				}

			}
, 			{
				"patchline" : 				{
					"destination" : [ "obj-43", 34 ],
					"order" : 1,
					"source" : [ "obj-2", 34 ]
				}

			}
, 			{
				"patchline" : 				{
					"destination" : [ "obj-43", 33 ],
					"order" : 1,
					"source" : [ "obj-2", 33 ]
				}

			}
, 			{
				"patchline" : 				{
					"destination" : [ "obj-43", 32 ],
					"order" : 1,
					"source" : [ "obj-2", 32 ]
				}

			}
, 			{
				"patchline" : 				{
					"destination" : [ "obj-43", 31 ],
					"order" : 1,
					"source" : [ "obj-2", 31 ]
				}

			}
, 			{
				"patchline" : 				{
					"destination" : [ "obj-43", 30 ],
					"order" : 1,
					"source" : [ "obj-2", 30 ]
				}

			}
, 			{
				"patchline" : 				{
					"destination" : [ "obj-43", 29 ],
					"midpoints" : [ 692.44405594405589, 258.0, 799.038461538461547, 258.0 ],
					"order" : 1,
					"source" : [ "obj-2", 29 ]
				}

			}
, 			{
				"patchline" : 				{
					"destination" : [ "obj-43", 28 ],
					"midpoints" : [ 674.341491841491916, 258.0, 774.692307692307736, 258.0 ],
					"order" : 1,
					"source" : [ "obj-2", 28 ]
				}

			}
, 			{
				"patchline" : 				{
					"destination" : [ "obj-43", 27 ],
					"midpoints" : [ 656.238927738927714, 258.0, 750.346153846153811, 258.0 ],
					"order" : 1,
					"source" : [ "obj-2", 27 ]
				}

			}
, 			{
				"patchline" : 				{
					"destination" : [ "obj-43", 26 ],
					"midpoints" : [ 638.136363636363626, 258.0, 726.0, 258.0 ],
					"order" : 1,
					"source" : [ "obj-2", 26 ]
				}

			}
, 			{
				"patchline" : 				{
					"destination" : [ "obj-43", 25 ],
					"midpoints" : [ 620.033799533799538, 258.0, 701.653846153846189, 258.0 ],
					"order" : 1,
					"source" : [ "obj-2", 25 ]
				}

			}
, 			{
				"patchline" : 				{
					"destination" : [ "obj-43", 24 ],
					"midpoints" : [ 601.931235431235336, 258.0, 677.307692307692264, 258.0 ],
					"order" : 1,
					"source" : [ "obj-2", 24 ]
				}

			}
, 			{
				"patchline" : 				{
					"destination" : [ "obj-43", 23 ],
					"midpoints" : [ 583.828671328671362, 258.0, 652.961538461538453, 258.0 ],
					"order" : 1,
					"source" : [ "obj-2", 23 ]
				}

			}
, 			{
				"patchline" : 				{
					"destination" : [ "obj-43", 22 ],
					"midpoints" : [ 565.72610722610716, 267.0, 628.615384615384642, 267.0 ],
					"order" : 1,
					"source" : [ "obj-2", 22 ]
				}

			}
, 			{
				"patchline" : 				{
					"destination" : [ "obj-43", 21 ],
					"midpoints" : [ 547.623543123543072, 117.0, 604.269230769230717, 117.0 ],
					"order" : 1,
					"source" : [ "obj-2", 21 ]
				}

			}
, 			{
				"patchline" : 				{
					"destination" : [ "obj-43", 20 ],
					"midpoints" : [ 529.520979020978984, 267.0, 579.923076923076906, 267.0 ],
					"order" : 1,
					"source" : [ "obj-2", 20 ]
				}

			}
, 			{
				"patchline" : 				{
					"destination" : [ "obj-43", 19 ],
					"midpoints" : [ 511.418414918414896, 258.0, 555.576923076923094, 258.0 ],
					"order" : 1,
					"source" : [ "obj-2", 19 ]
				}

			}
, 			{
				"patchline" : 				{
					"destination" : [ "obj-43", 18 ],
					"midpoints" : [ 493.315850815850808, 258.0, 531.230769230769283, 258.0 ],
					"order" : 1,
					"source" : [ "obj-2", 18 ]
				}

			}
, 			{
				"patchline" : 				{
					"destination" : [ "obj-43", 17 ],
					"midpoints" : [ 475.213286713286664, 258.0, 506.884615384615358, 258.0 ],
					"order" : 1,
					"source" : [ "obj-2", 17 ]
				}

			}
, 			{
				"patchline" : 				{
					"destination" : [ "obj-43", 16 ],
					"midpoints" : [ 457.110722610722576, 258.0, 482.538461538461547, 258.0 ],
					"order" : 1,
					"source" : [ "obj-2", 16 ]
				}

			}
, 			{
				"patchline" : 				{
					"destination" : [ "obj-43", 15 ],
					"midpoints" : [ 439.008158508158488, 258.0, 458.192307692307679, 258.0 ],
					"order" : 1,
					"source" : [ "obj-2", 15 ]
				}

			}
, 			{
				"patchline" : 				{
					"destination" : [ "obj-43", 14 ],
					"midpoints" : [ 420.9055944055944, 258.0, 433.846153846153868, 258.0 ],
					"order" : 1,
					"source" : [ "obj-2", 14 ]
				}

			}
, 			{
				"patchline" : 				{
					"destination" : [ "obj-43", 13 ],
					"midpoints" : [ 402.803030303030255, 258.0, 409.5, 258.0 ],
					"order" : 1,
					"source" : [ "obj-2", 13 ]
				}

			}
, 			{
				"patchline" : 				{
					"destination" : [ "obj-43", 12 ],
					"midpoints" : [ 384.700466200466167, 258.0, 385.153846153846132, 258.0 ],
					"order" : 1,
					"source" : [ "obj-2", 12 ]
				}

			}
, 			{
				"patchline" : 				{
					"destination" : [ "obj-43", 11 ],
					"midpoints" : [ 366.597902097902079, 258.0, 360.807692307692321, 258.0 ],
					"order" : 1,
					"source" : [ "obj-2", 11 ]
				}

			}
, 			{
				"patchline" : 				{
					"destination" : [ "obj-43", 10 ],
					"midpoints" : [ 348.495337995337991, 258.0, 336.461538461538453, 258.0 ],
					"order" : 1,
					"source" : [ "obj-2", 10 ]
				}

			}
, 			{
				"patchline" : 				{
					"destination" : [ "obj-43", 9 ],
					"midpoints" : [ 330.392773892773903, 258.0, 312.115384615384642, 258.0 ],
					"order" : 1,
					"source" : [ "obj-2", 9 ]
				}

			}
, 			{
				"patchline" : 				{
					"destination" : [ "obj-43", 8 ],
					"midpoints" : [ 312.290209790209758, 258.0, 287.769230769230774, 258.0 ],
					"order" : 1,
					"source" : [ "obj-2", 8 ]
				}

			}
, 			{
				"patchline" : 				{
					"destination" : [ "obj-43", 7 ],
					"midpoints" : [ 294.18764568764567, 258.0, 263.423076923076906, 258.0 ],
					"order" : 1,
					"source" : [ "obj-2", 7 ]
				}

			}
, 			{
				"patchline" : 				{
					"destination" : [ "obj-43", 6 ],
					"midpoints" : [ 276.085081585081525, 258.0, 239.076923076923066, 258.0 ],
					"order" : 1,
					"source" : [ "obj-2", 6 ]
				}

			}
, 			{
				"patchline" : 				{
					"destination" : [ "obj-43", 5 ],
					"midpoints" : [ 257.982517482517437, 258.0, 214.730769230769226, 258.0 ],
					"order" : 1,
					"source" : [ "obj-2", 5 ]
				}

			}
, 			{
				"patchline" : 				{
					"destination" : [ "obj-43", 4 ],
					"midpoints" : [ 239.879953379953349, 258.0, 190.384615384615387, 258.0 ],
					"order" : 1,
					"source" : [ "obj-2", 4 ]
				}

			}
, 			{
				"patchline" : 				{
					"destination" : [ "obj-43", 3 ],
					"midpoints" : [ 221.777389277389261, 258.0, 166.038461538461547, 258.0 ],
					"order" : 1,
					"source" : [ "obj-2", 3 ]
				}

			}
, 			{
				"patchline" : 				{
					"destination" : [ "obj-43", 2 ],
					"midpoints" : [ 203.674825174825145, 258.0, 141.692307692307679, 258.0 ],
					"order" : 1,
					"source" : [ "obj-2", 2 ]
				}

			}
, 			{
				"patchline" : 				{
					"destination" : [ "obj-43", 1 ],
					"midpoints" : [ 185.572261072261028, 258.0, 117.34615384615384, 258.0 ],
					"order" : 1,
					"source" : [ "obj-2", 1 ]
				}

			}
, 			{
				"patchline" : 				{
					"destination" : [ "obj-43", 0 ],
					"midpoints" : [ 167.46969696969694, 258.0, 93.0, 258.0 ],
					"order" : 1,
					"source" : [ "obj-2", 0 ]
				}

			}
, 			{
				"patchline" : 				{
					"destination" : [ "obj-1", 0 ],
					"source" : [ "obj-36", 0 ]
				}

			}
, 			{
				"patchline" : 				{
					"destination" : [ "obj-9", 0 ],
					"source" : [ "obj-43", 0 ]
				}

			}
, 			{
				"patchline" : 				{
					"destination" : [ "obj-2", 0 ],
					"midpoints" : [ 167.46969696969694, 78.0, 167.46969696969694, 78.0 ],
					"source" : [ "obj-7", 0 ]
				}

			}
 ],
		"dependency_cache" : [ 			{
				"name" : "target_40.maxpat",
				"bootpath" : "~/Nextcloud/Technik/Sound/Batti/MaxMSP/subpatches_Synth",
				"patcherrelativepath" : ".",
				"type" : "JSON",
				"implicit" : 1
			}
 ],
		"autosave" : 0
	}

}
